{
.appVersion = "924";
classes = (
{
automatic = 1;
code = "A B C D E F G H I J K L M N O P Q R S T U V W X Y Z Agrave Aacute Acircumflex Atilde Adieresis Amacron Abreve Aring Aringacute Adotbelow Aogonek AE AEacute Cacute Ccircumflex Ccaron Cdotaccent Ccedilla Dcaron Dcroat Eth Egrave Eacute Ecircumflex Etilde Ecaron Edieresis Emacron Ebreve Edotaccent Edotbelow Eogonek Gcircumflex Gcaron Gbreve Gdotaccent Gcommaaccent Hcircumflex Hbar Igrave Iacute Icircumflex Itilde Idieresis Imacron Ibreve Idotaccent Idotbelow Iogonek Jcircumflex Kcommaaccent Lacute Lcaron Lcommaaccent Lslash Ldot Nacute Ntilde Ncaron Ncommaaccent Eng Ograve Oacute Ocircumflex Otilde Odieresis Omacron Obreve Ohungarumlaut Odotbelow Oogonek Oslash Oslashacute OE Racute Rcaron Rcommaaccent Sacute Scircumflex Scaron Scedilla Scommaaccent Germandbls Tcaron Tcedilla Tcommaaccent Tbar Thorn Ugrave Uacute Ucircumflex Utilde Udieresis Umacron Ubreve Uring Uhungarumlaut Udotbelow Uogonek Wgrave Wacute Wcircumflex Wdieresis Ygrave Yacute Ycircumflex Ytilde Ydieresis Ymacron Zacute Zcaron Zdotaccent IJ Schwa DZcaron Dzcaron LJ Lj NJ Nj Adblgrave Ainvertedbreve Edblgrave Einvertedbreve Idblgrave Iinvertedbreve Odblgrave Oinvertedbreve Rdblgrave Rinvertedbreve Udblgrave Uinvertedbreve Odieresismacron Otildemacron Odotaccentmacron Abreveacute Abrevedotbelow Abrevegrave Abrevehookabove Abrevetilde Acircumflexacute Acircumflexdotbelow Acircumflexgrave Acircumflexhookabove Acircumflextilde Ahookabove Ecircumflexacute Ecircumflexdotbelow Ecircumflexgrave Ecircumflexhookabove Ecircumflextilde Ehookabove Ocircumflexacute Ocircumflexdotbelow Ocircumflexgrave Ocircumflexhookabove Ocircumflextilde Ohookabove Ohorn Ohornacute Ohorndotbelow Ohorngrave Ohornhookabove Ohorntilde Uhorn Uhornacute Uhorndotbelow Uhorngrave Uhornhookabove Uhorntilde Uhookabove Ydotbelow Yhookabove Ihookabove Bdotaccent DZ Ddotaccent Dz Fdotaccent Gacute Mdotaccent Pdotaccent Sdotaccent Tdotaccent Delta Omega";
name = Uppercase;
}
);

glyphs = (
{
glyphname = A;
layers = (
{
anchors = (
{
name = bottom;
position = "{541, 0}";
},
{
name = ogonek;
position = "{977, 0}";
},
{
name = top;
position = "{550, 1284}";
},
{
name = top_case;
position = "{550, 1284}";
}
);
layerId = "1D628CB9-BBF5-410A-9D74-9E6094BFE839";
paths = (
{
closed = 1;
nodes = (
"193 0 LINE",
"293 328 LINE",
"800 328 LINE",
"897 0 LINE",
"1027 0 LINE",
"645 1284 LINE",
"454 1284 LINE",
"54 0 LINE"
);
},
{
closed = 1;
nodes = (
"550 1174 LINE",
"769 420 LINE",
"323 420 LINE"
);
}
);
width = 1081;
}
);
unicode = 0041;
},
{
glyphname = AE;
layers = (
{
anchors = (
{
name = bottom;
position = "{691, 0}";
},
{
name = top_case;
position = "{955, 1284}";
}
);
layerId = "1D628CB9-BBF5-410A-9D74-9E6094BFE839";
paths = (
{
closed = 1;
nodes = (
"114 0 LINE",
"278 328 LINE",
"689 328 LINE",
"689 0 LINE",
"1298 0 LINE",
"1282 100 LINE",
"817 100 LINE",
"817 626 LINE",
"1238 626 LINE",
"1238 722 LINE",
"817 722 LINE",
"817 1184 LINE",
"1272 1184 LINE",
"1294 1284 LINE",
"616 1284 LINE",
"-26 0 LINE"
);
},
{
closed = 1;
nodes = (
"689 1194 LINE",
"689 420 LINE",
"316 420 LINE"
);
}
);
width = 1381;
}
);
unicode = 00C6;
},
{
glyphname = B;
layers = (
{
anchors = (
{
name = bottom;
position = "{521, 0}";
},
{
name = top_case;
position = "{521, 1284}";
}
);
layerId = "1D628CB9-BBF5-410A-9D74-9E6094BFE839";
paths = (
{
closed = 1;
nodes = (
"467 0 LINE SMOOTH",
"780 0 OFFCURVE",
"949 65 OFFCURVE",
"949 377 CURVE SMOOTH",
"949 556 OFFCURVE",
"852 654 OFFCURVE",
"709 687 CURVE",
"853 722 OFFCURVE",
"903 810 OFFCURVE",
"903 971 CURVE SMOOTH",
"903 1222 OFFCURVE",
"764 1284 OFFCURVE",
"470 1284 CURVE SMOOTH",
"149 1284 LINE",
"149 0 LINE"
);
},
{
closed = 1;
nodes = (
"277 629 LINE",
"511 629 LINE SMOOTH",
"712 629 OFFCURVE",
"821 555 OFFCURVE",
"821 375 CURVE SMOOTH",
"821 139 OFFCURVE",
"694 100 OFFCURVE",
"474 100 CURVE SMOOTH",
"277 100 LINE"
);
},
{
closed = 1;
nodes = (
"277 1184 LINE",
"494 1184 LINE SMOOTH",
"701 1184 OFFCURVE",
"791 1132 OFFCURVE",
"791 971 CURVE SMOOTH",
"791 781 OFFCURVE",
"700 723 OFFCURVE",
"510 723 CURVE SMOOTH",
"277 723 LINE"
);
}
);
width = 1041;
}
);
unicode = 0042;
},
{
glyphname = C;
layers = (
{
anchors = (
{
name = bottom;
position = "{507, 0}";
},
{
name = cedilla;
position = "{578, 0}";
},
{
name = top;
position = "{586, 1284}";
},
{
name = top_case;
position = "{592, 1284}";
}
);
layerId = "1D628CB9-BBF5-410A-9D74-9E6094BFE839";
paths = (
{
closed = 1;
nodes = (
"702 -10 OFFCURVE",
"806 8 OFFCURVE",
"923 64 CURVE",
"883 161 LINE",
"780 112 OFFCURVE",
"693 96 OFFCURVE",
"606 96 CURVE SMOOTH",
"401 96 OFFCURVE",
"246 252 OFFCURVE",
"246 638 CURVE SMOOTH",
"246 1092 OFFCURVE",
"371 1195 OFFCURVE",
"597 1195 CURVE SMOOTH",
"668 1195 OFFCURVE",
"735 1180 OFFCURVE",
"787 1157 CURVE",
"787 984 LINE",
"896 984 LINE",
"896 1226 LINE",
"786 1280 OFFCURVE",
"685 1301 OFFCURVE",
"586 1301 CURVE SMOOTH",
"270 1301 OFFCURVE",
"118 1114 OFFCURVE",
"118 641 CURVE SMOOTH",
"118 189 OFFCURVE",
"329 -10 OFFCURVE",
"598 -10 CURVE SMOOTH"
);
}
);
width = 1014;
}
);
unicode = 0043;
},
{
glyphname = D;
layers = (
{
anchors = (
{
name = bottom;
position = "{550, 0}";
},
{
name = center;
position = "{550, 642}";
},
{
name = top_case;
position = "{530, 1284}";
}
);
layerId = "1D628CB9-BBF5-410A-9D74-9E6094BFE839";
paths = (
{
closed = 1;
nodes = (
"433 0 LINE SMOOTH",
"905 0 OFFCURVE",
"981 229 OFFCURVE",
"981 636 CURVE SMOOTH",
"981 1101 OFFCURVE",
"876 1284 OFFCURVE",
"422 1284 CURVE SMOOTH",
"149 1284 LINE",
"149 0 LINE"
);
},
{
closed = 1;
nodes = (
"277 1184 LINE",
"422 1184 LINE SMOOTH",
"797 1184 OFFCURVE",
"853 1030 OFFCURVE",
"853 636 CURVE SMOOTH",
"853 266 OFFCURVE",
"817 100 OFFCURVE",
"433 100 CURVE SMOOTH",
"277 100 LINE"
);
}
);
width = 1099;
}
);
unicode = 0044;
},
{
glyphname = Eth;
layers = (
{
layerId = "1D628CB9-BBF5-410A-9D74-9E6094BFE839";
paths = (
{
closed = 1;
nodes = (
"433 0 LINE SMOOTH",
"905 0 OFFCURVE",
"981 229 OFFCURVE",
"981 636 CURVE SMOOTH",
"981 1101 OFFCURVE",
"876 1284 OFFCURVE",
"422 1284 CURVE SMOOTH",
"149 1284 LINE",
"149 712 LINE",
"0 712 LINE",
"0 609 LINE",
"149 609 LINE",
"149 0 LINE"
);
},
{
closed = 1;
nodes = (
"277 609 LINE",
"480 609 LINE",
"480 712 LINE",
"277 712 LINE",
"277 1184 LINE",
"422 1184 LINE SMOOTH",
"797 1184 OFFCURVE",
"853 1030 OFFCURVE",
"853 636 CURVE SMOOTH",
"853 269 OFFCURVE",
"817 104 OFFCURVE",
"433 104 CURVE SMOOTH",
"277 104 LINE"
);
}
);
width = 1099;
}
);
unicode = 00D0;
},
{
glyphname = Dcroat;
layers = (
{
layerId = "1D628CB9-BBF5-410A-9D74-9E6094BFE839";
paths = (
{
closed = 1;
nodes = (
"433 0 LINE SMOOTH",
"905 0 OFFCURVE",
"981 229 OFFCURVE",
"981 636 CURVE SMOOTH",
"981 1101 OFFCURVE",
"876 1284 OFFCURVE",
"422 1284 CURVE SMOOTH",
"149 1284 LINE",
"149 712 LINE",
"0 712 LINE",
"0 609 LINE",
"149 609 LINE",
"149 0 LINE"
);
},
{
closed = 1;
nodes = (
"277 609 LINE",
"480 609 LINE",
"480 712 LINE",
"277 712 LINE",
"277 1184 LINE",
"422 1184 LINE SMOOTH",
"797 1184 OFFCURVE",
"853 1030 OFFCURVE",
"853 636 CURVE SMOOTH",
"853 269 OFFCURVE",
"817 104 OFFCURVE",
"433 104 CURVE SMOOTH",
"277 104 LINE"
);
}
);
width = 1099;
}
);
unicode = 0110;
},
{
glyphname = E;
layers = (
{
anchors = (
{
name = bottom;
position = "{494, 0}";
},
{
name = ogonek;
position = "{788, 0}";
},
{
name = top;
position = "{502, 1284}";
},
{
name = top_case;
position = "{502, 1284}";
}
);
layerId = "1D628CB9-BBF5-410A-9D74-9E6094BFE839";
paths = (
{
closed = 1;
nodes = (
"838 0 LINE",
"822 100 LINE",
"277 100 LINE",
"277 626 LINE",
"778 626 LINE",
"778 722 LINE",
"277 722 LINE",
"277 1184 LINE",
"812 1184 LINE",
"834 1284 LINE",
"149 1284 LINE",
"149 0 LINE"
);
}
);
width = 921;
}
);
unicode = 0045;
},
{
glyphname = F;
layers = (
{
anchors = (
{
name = bottom;
position = "{426, 0}";
},
{
name = top_case;
position = "{506, 1284}";
}
);
layerId = "1D628CB9-BBF5-410A-9D74-9E6094BFE839";
paths = (
{
closed = 1;
nodes = (
"277 0 LINE",
"277 603 LINE",
"733 603 LINE",
"733 697 LINE",
"277 697 LINE",
"277 1184 LINE",
"797 1184 LINE",
"816 1284 LINE",
"149 1284 LINE",
"149 0 LINE"
);
}
);
width = 852;
}
);
unicode = 0046;
},
{
glyphname = G;
layers = (
{
anchors = (
{
name = bottom;
position = "{584, 0}";
},
{
name = top_case;
position = "{598, 1284}";
}
);
layerId = "1D628CB9-BBF5-410A-9D74-9E6094BFE839";
paths = (
{
closed = 1;
nodes = (
"778 -10 OFFCURVE",
"901 58 OFFCURVE",
"964 92 CURVE",
"964 665 LINE",
"612 665 LINE",
"612 567 LINE",
"848 567 LINE",
"848 145 LINE",
"779 112 OFFCURVE",
"678 96 OFFCURVE",
"590 96 CURVE SMOOTH",
"319 96 OFFCURVE",
"235 263 OFFCURVE",
"235 659 CURVE SMOOTH",
"236 1103 OFFCURVE",
"386 1195 OFFCURVE",
"610 1195 CURVE SMOOTH",
"681 1195 OFFCURVE",
"768 1180 OFFCURVE",
"820 1157 CURVE",
"820 984 LINE",
"929 984 LINE",
"929 1226 LINE",
"819 1280 OFFCURVE",
"698 1301 OFFCURVE",
"599 1301 CURVE SMOOTH",
"283 1301 OFFCURVE",
"110 1123 OFFCURVE",
"110 650 CURVE SMOOTH",
"110 198 OFFCURVE",
"231 -10 OFFCURVE",
"584 -10 CURVE SMOOTH"
);
}
);
width = 1094;
}
);
unicode = 0047;
},
{
glyphname = H;
layers = (
{
anchors = (
{
name = bottom;
position = "{567, 0}";
},
{
name = center;
position = "{567, 642}";
},
{
name = top_case;
position = "{567, 1284}";
}
);
layerId = "1D628CB9-BBF5-410A-9D74-9E6094BFE839";
paths = (
{
closed = 1;
nodes = (
"277 0 LINE",
"277 602 LINE",
"857 602 LINE",
"857 0 LINE",
"985 0 LINE",
"985 1284 LINE",
"857 1284 LINE",
"857 703 LINE",
"277 703 LINE",
"277 1284 LINE",
"149 1284 LINE",
"149 0 LINE"
);
}
);
width = 1134;
}
);
unicode = 0048;
userData = {
com.fontlab.hintData = {
hhints = (
{
position = 0;
width = 21;
},
{
position = 602;
width = 101;
},
{
position = 1264;
width = 20;
}
);
vhints = (
{
position = 149;
width = 128;
},
{
position = 857;
width = 128;
}
);
};
};
},
{
glyphname = Hbar;
layers = (
{
layerId = "1D628CB9-BBF5-410A-9D74-9E6094BFE839";
paths = (
{
closed = 1;
nodes = (
"277 0 LINE",
"277 602 LINE",
"857 602 LINE",
"857 0 LINE",
"985 0 LINE",
"985 896 LINE",
"1097 896 LINE",
"1097 984 LINE",
"985 984 LINE",
"985 1284 LINE",
"857 1284 LINE",
"857 984 LINE",
"277 984 LINE",
"277 1284 LINE",
"149 1284 LINE",
"149 984 LINE",
"41 984 LINE",
"41 896 LINE",
"149 896 LINE",
"149 0 LINE"
);
},
{
closed = 1;
nodes = (
"277 896 LINE",
"857 896 LINE",
"857 703 LINE",
"277 703 LINE"
);
}
);
width = 1134;
}
);
unicode = 0126;
},
{
glyphname = I;
layers = (
{
anchors = (
{
name = bottom;
position = "{365, 0}";
},
{
name = ogonek;
position = "{374, 0}";
},
{
name = top_case;
position = "{368, 1284}";
}
);
layerId = "1D628CB9-BBF5-410A-9D74-9E6094BFE839";
paths = (
{
closed = 1;
nodes = (
"620 0 LINE",
"620 100 LINE",
"432 100 LINE",
"432 1184 LINE",
"616 1184 LINE",
"616 1284 LINE",
"110 1284 LINE",
"110 1184 LINE",
"304 1184 LINE",
"304 100 LINE",
"110 100 LINE",
"110 0 LINE"
);
}
);
width = 730;
}
);
unicode = 0049;
},
{
glyphname = J;
layers = (
{
anchors = (
{
name = bottom;
position = "{322, 0}";
},
{
name = top_case;
position = "{322, 1284}";
}
);
layerId = "1D628CB9-BBF5-410A-9D74-9E6094BFE839";
paths = (
{
closed = 1;
nodes = (
"395 -232 OFFCURVE",
"494 -155 OFFCURVE",
"494 91 CURVE SMOOTH",
"494 1284 LINE",
"105 1284 LINE",
"105 1184 LINE",
"366 1184 LINE",
"366 91 LINE SMOOTH",
"366 -62 OFFCURVE",
"327 -127 OFFCURVE",
"214 -127 CURVE SMOOTH",
"167 -127 OFFCURVE",
"110 -116 OFFCURVE",
"62 -99 CURVE",
"47 -200 LINE",
"102 -221 OFFCURVE",
"166 -232 OFFCURVE",
"223 -232 CURVE SMOOTH"
);
}
);
width = 643;
}
);
unicode = 004A;
},
{
glyphname = K;
layers = (
{
anchors = (
{
name = bottom;
position = "{516, 0}";
},
{
name = top;
position = "{516, 1284}";
}
);
layerId = "1D628CB9-BBF5-410A-9D74-9E6094BFE839";
paths = (
{
closed = 1;
nodes = (
"277 0 LINE",
"277 480 LINE",
"453 652 LINE",
"860 0 LINE",
"1001 0 LINE",
"550 721 LINE",
"975 1284 LINE",
"825 1284 LINE",
"432 778 LINE",
"277 609 LINE",
"277 1284 LINE",
"149 1284 LINE",
"149 0 LINE"
);
}
);
width = 1032;
}
);
unicode = 004B;
userData = {
com.fontlab.hintData = {
hhints = (
{
position = 0;
width = 21;
},
{
position = 1264;
width = 20;
}
);
vhints = (
{
position = 149;
width = 128;
}
);
};
};
},
{
glyphname = L;
layers = (
{
anchors = (
{
name = bottom;
position = "{468, 0}";
},
{
name = center;
position = "{626, 675}";
},
{
name = top_case;
position = "{413, 1284}";
},
{
name = topright;
position = "{597, 1284}";
}
);
layerId = "1D628CB9-BBF5-410A-9D74-9E6094BFE839";
paths = (
{
closed = 1;
nodes = (
"786 0 LINE",
"769 100 LINE",
"277 100 LINE",
"277 1284 LINE",
"149 1284 LINE",
"149 0 LINE"
);
}
);
width = 825;
}
);
unicode = 004C;
},
{
glyphname = Lslash;
layers = (
{
layerId = "1D628CB9-BBF5-410A-9D74-9E6094BFE839";
paths = (
{
closed = 1;
nodes = (
"786 0 LINE",
"769 100 LINE",
"277 100 LINE",
"277 623 LINE",
"658 920 LINE",
"606 1000 LINE",
"277 744 LINE",
"277 1284 LINE",
"149 1284 LINE",
"149 645 LINE",
"-40 498 LINE",
"13 418 LINE",
"149 523 LINE",
"149 0 LINE"
);
}
);
width = 825;
}
);
unicode = 0141;
},
{
glyphname = M;
layers = (
{
anchors = (
{
name = bottom;
position = "{681, 0}";
},
{
name = top_case;
position = "{677, 1284}";
}
);
layerId = "1D628CB9-BBF5-410A-9D74-9E6094BFE839";
paths = (
{
closed = 1;
nodes = (
"255 0 LINE",
"341 1101 LINE",
"624 438 LINE",
"739 438 LINE",
"1012 1099 LINE",
"1107 0 LINE",
"1225 0 LINE",
"1116 1284 LINE",
"975 1284 LINE",
"681 582 LINE",
"379 1284 LINE",
"237 1284 LINE",
"137 0 LINE"
);
}
);
width = 1362;
}
);
unicode = 004D;
},
{
glyphname = N;
layers = (
{
anchors = (
{
name = bottom;
position = "{607, 0}";
},
{
name = top_case;
position = "{625, 1284}";
}
);
layerId = "1D628CB9-BBF5-410A-9D74-9E6094BFE839";
paths = (
{
closed = 1;
nodes = (
"271 0 LINE",
"271 1081 LINE",
"918 0 LINE",
"1044 0 LINE",
"1044 1284 LINE",
"928 1284 LINE",
"928 219 LINE",
"285 1284 LINE",
"149 1284 LINE",
"149 0 LINE"
);
}
);
width = 1193;
}
);
unicode = 004E;
},
{
glyphname = Eng;
layers = (
{
layerId = "1D628CB9-BBF5-410A-9D74-9E6094BFE839";
paths = (
{
closed = 1;
nodes = (
"832 -250 OFFCURVE",
"1044 -211 OFFCURVE",
"1044 100 CURVE SMOOTH",
"1044 1284 LINE",
"928 1284 LINE",
"928 317 LINE",
"285 1284 LINE",
"149 1284 LINE",
"149 0 LINE",
"271 0 LINE",
"271 1081 LINE",
"912 122 LINE",
"912 -121 OFFCURVE",
"811 -143 OFFCURVE",
"610 -143 CURVE",
"612 -250 LINE"
);
}
);
width = 1193;
}
);
unicode = 014A;
},
{
glyphname = O;
layers = (
{
anchors = (
{
name = bottom;
position = "{564, 0}";
},
{
name = ogonek;
position = "{725, 30}";
},
{
name = top;
position = "{564, 1284}";
},
{
name = top_case;
position = "{564, 1284}";
},
{
name = topright;
position = "{890, 974}";
}
);
layerId = "1D628CB9-BBF5-410A-9D74-9E6094BFE839";
paths = (
{
closed = 1;
nodes = (
"925 -10 OFFCURVE",
"1012 232 OFFCURVE",
"1012 648 CURVE SMOOTH",
"1012 1065 OFFCURVE",
"913 1301 OFFCURVE",
"564 1301 CURVE SMOOTH",
"215 1301 OFFCURVE",
"116 1065 OFFCURVE",
"116 648 CURVE SMOOTH",
"116 232 OFFCURVE",
"203 -10 OFFCURVE",
"564 -10 CURVE SMOOTH"
);
},
{
closed = 1;
nodes = (
"314 96 OFFCURVE",
"244 264 OFFCURVE",
"244 645 CURVE SMOOTH",
"244 1030 OFFCURVE",
"317 1195 OFFCURVE",
"564 1195 CURVE SMOOTH",
"811 1195 OFFCURVE",
"884 1030 OFFCURVE",
"884 645 CURVE SMOOTH",
"884 264 OFFCURVE",
"814 96 OFFCURVE",
"564 96 CURVE SMOOTH"
);
}
);
width = 1128;
}
);
unicode = 004F;
userData = {
com.fontlab.hintData = {
hhints = (
{
position = -10;
width = 106;
},
{
position = 1195;
width = 106;
}
);
vhints = (
{
position = 116;
width = 128;
},
{
position = 884;
width = 128;
}
);
};
};
},
{
glyphname = Ohorn;
layers = (
{
anchors = (
{
name = _topright;
position = "{890, 974}";
},
{
name = bottom;
position = "{564, 0}";
},
{
name = ogonek;
position = "{725, 30}";
},
{
name = top;
position = "{564, 1284}";
},
{
name = top_case;
position = "{564, 1284}";
},
{
name = topright;
position = "{890, 974}";
}
);
layerId = "1D628CB9-BBF5-410A-9D74-9E6094BFE839";
paths = (
{
closed = 1;
nodes = (
"116 232 OFFCURVE",
"203 -10 OFFCURVE",
"564 -10 CURVE SMOOTH",
"925 -10 OFFCURVE",
"1012 232 OFFCURVE",
"1012 648 CURVE SMOOTH",
"1012 840 OFFCURVE",
"991 994 OFFCURVE",
"934 1104 CURVE",
"914 1070 LINE",
"1029 1111 OFFCURVE",
"1128 1170 OFFCURVE",
"1128 1291 CURVE SMOOTH",
"1128 1331 OFFCURVE",
"1121 1363 OFFCURVE",
"1111 1389 CURVE",
"979 1389 LINE",
"992 1361 OFFCURVE",
"1000 1330 OFFCURVE",
"1000 1299 CURVE SMOOTH",
"1000 1216 OFFCURVE",
"954 1173 OFFCURVE",
"870 1141 CURVE",
"919 1132 LINE",
"850 1242 OFFCURVE",
"738 1301 OFFCURVE",
"564 1301 CURVE SMOOTH",
"215 1301 OFFCURVE",
"116 1065 OFFCURVE",
"116 648 CURVE SMOOTH"
);
},
{
closed = 1;
nodes = (
"244 1030 OFFCURVE",
"317 1195 OFFCURVE",
"564 1195 CURVE SMOOTH",
"811 1195 OFFCURVE",
"884 1030 OFFCURVE",
"884 645 CURVE SMOOTH",
"884 264 OFFCURVE",
"814 96 OFFCURVE",
"564 96 CURVE SMOOTH",
"314 96 OFFCURVE",
"244 264 OFFCURVE",
"244 645 CURVE SMOOTH"
);
}
);
width = 1128;
},
{
anchors = (
{
name = _topright;
position = "{890, 974}";
},
{
name = bottom;
position = "{564, 0}";
},
{
name = ogonek;
position = "{725, 30}";
},
{
name = top;
position = "{564, 1284}";
},
{
name = top_case;
position = "{564, 1284}";
},
{
name = topright;
position = "{890, 974}";
}
);
associatedMasterId = "1D628CB9-BBF5-410A-9D74-9E6094BFE839";
layerId = "14DD0084-6660-4B70-A99D-CC78A7D99BE3";
name = "Regular Jul 25 16, 11:36";
paths = (
{
closed = 1;
nodes = (
"925 -10 OFFCURVE",
"1012 232 OFFCURVE",
"1012 648 CURVE SMOOTH",
"1012 1065 OFFCURVE",
"913 1301 OFFCURVE",
"564 1301 CURVE SMOOTH",
"215 1301 OFFCURVE",
"116 1065 OFFCURVE",
"116 648 CURVE SMOOTH",
"116 232 OFFCURVE",
"203 -10 OFFCURVE",
"564 -10 CURVE SMOOTH"
);
},
{
closed = 1;
nodes = (
"314 96 OFFCURVE",
"244 264 OFFCURVE",
"244 645 CURVE SMOOTH",
"244 1030 OFFCURVE",
"317 1195 OFFCURVE",
"564 1195 CURVE SMOOTH",
"811 1195 OFFCURVE",
"884 1030 OFFCURVE",
"884 645 CURVE SMOOTH",
"884 264 OFFCURVE",
"814 96 OFFCURVE",
"564 96 CURVE SMOOTH"
);
},
{
closed = 1;
nodes = (
"900 1066 LINE SMOOTH",
"1022 1107 OFFCURVE",
"1128 1166 OFFCURVE",
"1128 1291 CURVE SMOOTH",
"1128 1331 OFFCURVE",
"1121 1363 OFFCURVE",
"1111 1389 CURVE",
"979 1389 LINE",
"992 1361 OFFCURVE",
"1000 1330 OFFCURVE",
"1000 1299 CURVE SMOOTH",
"1000 1223 OFFCURVE",
"961 1180 OFFCURVE",
"890 1149 CURVE SMOOTH",
"855 1134 LINE",
"855 1051 LINE"
);
}
);
width = 1128;
}
);
unicode = 01A0;
userData = {
com.schriftgestaltung.Glyphs.ColorIndex = 7;
};
},
{
glyphname = OE;
layers = (
{
anchors = (
{
name = bottom;
position = "{948, 0}";
},
{
name = top_case;
position = "{953, 1284}";
}
);
layerId = "1D628CB9-BBF5-410A-9D74-9E6094BFE839";
paths = (
{
closed = 1;
nodes = (
"1573 0 LINE",
"1557 104 LINE",
"1012 104 LINE",
"1012 626 LINE",
"1513 626 LINE",
"1513 722 LINE",
"1012 722 LINE",
"1012 1184 LINE",
"1547 1184 LINE",
"1569 1284 LINE",
"564 1284 LINE SMOOTH",
"215 1284 OFFCURVE",
"116 1065 OFFCURVE",
"116 648 CURVE SMOOTH",
"116 232 OFFCURVE",
"203 0 OFFCURVE",
"564 0 CURVE SMOOTH"
);
},
{
closed = 1;
nodes = (
"314 104 OFFCURVE",
"244 264 OFFCURVE",
"244 645 CURVE SMOOTH",
"244 1030 OFFCURVE",
"317 1184 OFFCURVE",
"564 1184 CURVE SMOOTH",
"885 1185 LINE",
"884 105 LINE",
"564 104 LINE SMOOTH"
);
}
);
width = 1656;
}
);
unicode = 0152;
},
{
glyphname = P;
layers = (
{
anchors = (
{
name = bottom;
position = "{491, 0}";
},
{
name = top_case;
position = "{491, 1284}";
}
);
layerId = "1D628CB9-BBF5-410A-9D74-9E6094BFE839";
paths = (
{
closed = 1;
nodes = (
"277 0 LINE",
"277 536 LINE",
"384 536 LINE SMOOTH",
"729 536 OFFCURVE",
"917 597 OFFCURVE",
"917 905 CURVE SMOOTH",
"917 1200 OFFCURVE",
"757 1284 OFFCURVE",
"498 1284 CURVE SMOOTH",
"149 1284 LINE",
"149 0 LINE"
);
},
{
closed = 1;
nodes = (
"277 1184 LINE",
"506 1184 LINE SMOOTH",
"694 1184 OFFCURVE",
"789 1127 OFFCURVE",
"789 903 CURVE SMOOTH",
"789 647 OFFCURVE",
"651 640 OFFCURVE",
"361 640 CURVE SMOOTH",
"277 640 LINE"
);
}
);
width = 981;
}
);
unicode = 0050;
},
{
glyphname = Thorn;
layers = (
{
layerId = "1D628CB9-BBF5-410A-9D74-9E6094BFE839";
paths = (
{
closed = 1;
nodes = (
"277 0 LINE",
"277 327 LINE",
"369 327 LINE SMOOTH",
"714 327 OFFCURVE",
"917 389 OFFCURVE",
"917 697 CURVE SMOOTH",
"917 992 OFFCURVE",
"726 1052 OFFCURVE",
"467 1052 CURVE SMOOTH",
"278 1052 LINE",
"278 1284 LINE",
"149 1284 LINE",
"149 0 LINE"
);
},
{
closed = 1;
nodes = (
"277 952 LINE",
"475 952 LINE SMOOTH",
"663 952 OFFCURVE",
"789 919 OFFCURVE",
"789 695 CURVE SMOOTH",
"789 447 OFFCURVE",
"656 431 OFFCURVE",
"366 431 CURVE SMOOTH",
"277 431 LINE"
);
}
);
width = 981;
}
);
unicode = 00DE;
},
{
glyphname = Q;
layers = (
{
anchors = (
{
name = bottom;
position = "{566, 0}";
},
{
name = top;
position = "{566, 1284}";
}
);
layerId = "1D628CB9-BBF5-410A-9D74-9E6094BFE839";
paths = (
{
closed = 1;
nodes = (
"993 -104 LINE",
"861 80 LINE",
"979 188 OFFCURVE",
"1014 384 OFFCURVE",
"1014 648 CURVE SMOOTH",
"1014 1065 OFFCURVE",
"915 1308 OFFCURVE",
"566 1308 CURVE SMOOTH",
"217 1308 OFFCURVE",
"118 1065 OFFCURVE",
"118 648 CURVE SMOOTH",
"118 232 OFFCURVE",
"205 -16 OFFCURVE",
"566 -16 CURVE SMOOTH",
"656 -16 OFFCURVE",
"728 -1 OFFCURVE",
"787 29 CURVE",
"922 -159 LINE"
);
},
{
closed = 1;
nodes = (
"316 96 OFFCURVE",
"246 264 OFFCURVE",
"246 645 CURVE SMOOTH",
"246 1030 OFFCURVE",
"319 1196 OFFCURVE",
"566 1196 CURVE SMOOTH",
"813 1196 OFFCURVE",
"886 1030 OFFCURVE",
"886 645 CURVE SMOOTH",
"886 419 OFFCURVE",
"861 267 OFFCURVE",
"789 180 CURVE",
"667 351 LINE",
"596 295 LINE",
"719 124 LINE",
"678 102 OFFCURVE",
"627 96 OFFCURVE",
"566 96 CURVE SMOOTH"
);
}
);
width = 1132;
}
);
unicode = 0051;
},
{
glyphname = R;
layers = (
{
anchors = (
{
name = bottom;
position = "{527, 0}";
},
{
name = top_case;
position = "{527, 1284}";
}
);
layerId = "1D628CB9-BBF5-410A-9D74-9E6094BFE839";
paths = (
{
closed = 1;
nodes = (
"974 43 LINE",
"669 591 LINE",
"834 629 OFFCURVE",
"917 722 OFFCURVE",
"917 922 CURVE SMOOTH",
"917 1238 OFFCURVE",
"743 1284 OFFCURVE",
"402 1284 CURVE SMOOTH",
"149 1284 LINE",
"149 0 LINE",
"277 0 LINE",
"277 567 LINE",
"387 567 LINE SMOOTH",
"444 567 OFFCURVE",
"502 569 OFFCURVE",
"550 573 CURVE",
"632 385 OFFCURVE",
"781 122 OFFCURVE",
"870 -25 CURVE"
);
},
{
closed = 1;
nodes = (
"277 1184 LINE",
"396 1184 LINE SMOOTH",
"656 1184 OFFCURVE",
"789 1166 OFFCURVE",
"789 920 CURVE SMOOTH",
"789 697 OFFCURVE",
"689 662 OFFCURVE",
"364 662 CURVE SMOOTH",
"277 662 LINE"
);
}
);
width = 1053;
}
);
unicode = 0052;
},
{
glyphname = S;
layers = (
{
anchors = (
{
name = bottom;
position = "{474, 0}";
},
{
name = cedilla;
position = "{449, 0}";
},
{
name = top_case;
position = "{496, 1284}";
}
);
layerId = "1D628CB9-BBF5-410A-9D74-9E6094BFE839";
paths = (
{
closed = 1;
nodes = (
"713 -10 OFFCURVE",
"873 117 OFFCURVE",
"873 353 CURVE SMOOTH",
"873 617 OFFCURVE",
"694 661 OFFCURVE",
"531 720 CURVE SMOOTH",
"417 761 LINE SMOOTH",
"265 816 OFFCURVE",
"233 867 OFFCURVE",
"233 972 CURVE SMOOTH",
"233 1143 OFFCURVE",
"359 1195 OFFCURVE",
"514 1195 CURVE SMOOTH",
"641 1195 OFFCURVE",
"734 1169 OFFCURVE",
"819 1137 CURVE",
"842 1239 LINE",
"733 1284 OFFCURVE",
"615 1301 OFFCURVE",
"497 1301 CURVE SMOOTH",
"282 1301 OFFCURVE",
"105 1213 OFFCURVE",
"105 969 CURVE SMOOTH",
"105 786 OFFCURVE",
"209 700 OFFCURVE",
"376 644 CURVE SMOOTH",
"499 603 LINE SMOOTH",
"660 549 OFFCURVE",
"745 512 OFFCURVE",
"745 355 CURVE SMOOTH",
"745 175 OFFCURVE",
"634 96 OFFCURVE",
"471 96 CURVE SMOOTH",
"310 96 OFFCURVE",
"209 140 OFFCURVE",
"133 173 CURVE",
"105 68 LINE",
"208 11 OFFCURVE",
"345 -10 OFFCURVE",
"471 -10 CURVE SMOOTH"
);
}
);
width = 947;
}
);
unicode = 0053;
},
{
glyphname = Germandbls;
layers = (
{
layerId = "1D628CB9-BBF5-410A-9D74-9E6094BFE839";
paths = (
{
closed = 1;
nodes = (
"891 -10 OFFCURVE",
"1046 130 OFFCURVE",
"1046 347 CURVE SMOOTH",
"1046 592 OFFCURVE",
"845 735 OFFCURVE",
"545 735 CURVE",
"553 680 LINE",
"956 1080 LINE",
"956 1182 LINE",
"857 1253 OFFCURVE",
"723 1301 OFFCURVE",
"587 1301 CURVE SMOOTH",
"290 1301 OFFCURVE",
"149 1142 OFFCURVE",
"149 822 CURVE SMOOTH",
"149 0 LINE",
"277 0 LINE",
"277 811 LINE SMOOTH",
"277 1071 OFFCURVE",
"363 1195 OFFCURVE",
"583 1195 CURVE SMOOTH",
"698 1195 OFFCURVE",
"794 1161 OFFCURVE",
"877 1109 CURVE",
"877 1161 LINE",
"457 735 LINE",
"457 624 LINE",
"536 624 LINE SMOOTH",
"777 624 OFFCURVE",
"918 531 OFFCURVE",
"918 347 CURVE SMOOTH",
"918 189 OFFCURVE",
"824 95 OFFCURVE",
"667 95 CURVE SMOOTH",
"587 95 OFFCURVE",
"502 122 OFFCURVE",
"434 156 CURVE",
"396 66 LINE",
"481 18 OFFCURVE",
"580 -10 OFFCURVE",
"679 -10 CURVE SMOOTH"
);
}
);
width = 1106;
}
);
unicode = 1E9E;
},
{
glyphname = Schwa;
layers = (
{
layerId = "1D628CB9-BBF5-410A-9D74-9E6094BFE839";
paths = (
{
closed = 1;
nodes = (
"868 -10 OFFCURVE",
"1016 201 OFFCURVE",
"1016 632 CURVE SMOOTH",
"1016 1086 OFFCURVE",
"849 1308 OFFCURVE",
"509 1308 CURVE SMOOTH",
"395 1308 OFFCURVE",
"251 1274 OFFCURVE",
"136 1197 CURVE",
"186 1096 LINE",
"297 1172 OFFCURVE",
"400 1198 OFFCURVE",
"518 1198 CURVE SMOOTH",
"766 1198 OFFCURVE",
"888 1011 OFFCURVE",
"888 630 CURVE SMOOTH",
"888 271 OFFCURVE",
"793 96 OFFCURVE",
"565 96 CURVE SMOOTH",
"320 96 OFFCURVE",
"240 234 OFFCURVE",
"240 583 CURVE",
"931 583 LINE",
"931 684 LINE",
"126 684 LINE",
"120 629 OFFCURVE",
"116 557 OFFCURVE",
"116 507 CURVE SMOOTH",
"116 165 OFFCURVE",
"269 -10 OFFCURVE",
"565 -10 CURVE SMOOTH"
);
}
);
width = 1132;
},
{
associatedMasterId = "1D628CB9-BBF5-410A-9D74-9E6094BFE839";
layerId = "43E52C2D-3EEE-49AE-BEA2-65001AC44158";
name = "Regular Jul 6 16, 10:41";
paths = (
{
closed = 1;
nodes = (
"542 1200 CURVE SMOOTH",
"412 1200 OFFCURVE",
"298 1173 OFFCURVE",
"176 1096 CURVE",
"126 1197 LINE",
"251 1274 OFFCURVE",
"409 1308 OFFCURVE",
"533 1308 CURVE SMOOTH",
"869 1308 OFFCURVE",
"1087 1120 OFFCURVE",
"1087 649 CURVE SMOOTH",
"1087 195 OFFCURVE",
"870 -10 OFFCURVE",
"566 -10 CURVE SMOOTH",
"276 -10 OFFCURVE",
"102 198 OFFCURVE",
"102 507 CURVE SMOOTH",
"102 547 OFFCURVE",
"106 607 OFFCURVE",
"112 684 CURVE",
"920 684 LINE",
"915 1109 OFFCURVE",
"733 1200 OFFCURVE"
);
},
{
closed = 1;
nodes = (
"565 127 CURVE SMOOTH",
"791 127 OFFCURVE",
"900 296 OFFCURVE",
"920 566 CURVE",
"258 566 LINE",
"258 501 LINE SMOOTH",
"258 274 OFFCURVE",
"375 127 OFFCURVE"
);
}
);
width = 1203;
}
);
leftMetricsKey = "=O";
rightMetricsKey = "=O";
unicode = 018F;
userData = {
com.schriftgestaltung.Glyphs.leftMetricsKey = "=O";
com.schriftgestaltung.Glyphs.rightMetricsKey = "=O";
com.typemytype.robofont.layerData = {
"Regular Jul 6 16, 10:41" = {
anchors = (
);
components = (
);
contours = (
{
points = (
{
segmentType = curve;
smooth = 1;
x = 542;
y = 1200;
},
{
smooth = 0;
x = 412;
y = 1200;
},
{
smooth = 0;
x = 298;
y = 1173;
},
{
segmentType = curve;
smooth = 0;
x = 176;
y = 1096;
},
{
segmentType = line;
smooth = 0;
x = 126;
y = 1197;
},
{
smooth = 0;
x = 251;
y = 1274;
},
{
smooth = 0;
x = 409;
y = 1308;
},
{
segmentType = curve;
smooth = 1;
x = 533;
y = 1308;
},
{
smooth = 0;
x = 869;
y = 1308;
},
{
smooth = 0;
x = 1087;
y = 1120;
},
{
segmentType = curve;
smooth = 1;
x = 1087;
y = 649;
},
{
smooth = 0;
x = 1087;
y = 195;
},
{
smooth = 0;
x = 870;
y = -10;
},
{
segmentType = curve;
smooth = 1;
x = 566;
y = -10;
},
{
smooth = 0;
x = 276;
y = -10;
},
{
smooth = 0;
x = 102;
y = 198;
},
{
segmentType = curve;
smooth = 1;
x = 102;
y = 507;
},
{
smooth = 0;
x = 102;
y = 547;
},
{
smooth = 0;
x = 106;
y = 607;
},
{
segmentType = curve;
smooth = 0;
x = 112;
y = 684;
},
{
segmentType = line;
smooth = 0;
x = 920;
y = 684;
},
{
smooth = 0;
x = 915;
y = 1109;
},
{
smooth = 0;
x = 733;
y = 1200;
}
);
},
{
points = (
{
segmentType = curve;
smooth = 1;
x = 565;
y = 127;
},
{
smooth = 0;
x = 791;
y = 127;
},
{
smooth = 0;
x = 900;
y = 296;
},
{
segmentType = curve;
smooth = 0;
x = 920;
y = 566;
},
{
segmentType = line;
smooth = 0;
x = 258;
y = 566;
},
{
segmentType = line;
smooth = 1;
x = 258;
y = 501;
},
{
smooth = 0;
x = 258;
y = 274;
},
{
smooth = 0;
x = 375;
y = 127;
}
);
}
);
lib = {
};
name = Schwa;
unicodes = (
);
width = 1203;
};
};
};
},
{
glyphname = T;
layers = (
{
anchors = (
{
name = " cedilla";
position = "{443, 0}";
},
{
name = bottom;
position = "{443, 0}";
},
{
name = top_case;
position = "{446, 1284}";
}
);
layerId = "1D628CB9-BBF5-410A-9D74-9E6094BFE839";
paths = (
{
closed = 1;
nodes = (
"507 0 LINE",
"507 1184 LINE",
"856 1184 LINE",
"856 1284 LINE",
"35 1284 LINE",
"35 1184 LINE",
"379 1184 LINE",
"379 0 LINE"
);
}
);
width = 891;
}
);
unicode = 0054;
},
{
glyphname = Tbar;
layers = (
{
layerId = "1D628CB9-BBF5-410A-9D74-9E6094BFE839";
paths = (
{
closed = 1;
nodes = (
"507 0 LINE",
"507 609 LINE",
"716 609 LINE",
"716 712 LINE",
"507 712 LINE",
"507 1184 LINE",
"856 1184 LINE",
"856 1284 LINE",
"35 1284 LINE",
"35 1184 LINE",
"379 1184 LINE",
"379 712 LINE",
"166 712 LINE",
"166 609 LINE",
"379 609 LINE",
"379 0 LINE"
);
}
);
width = 891;
}
);
unicode = 0166;
},
{
glyphname = U;
layers = (
{
anchors = (
{
name = bottom;
position = "{540, 0}";
},
{
name = ogonek;
position = "{721, 30}";
},
{
name = top;
position = "{540, 1284}";
},
{
name = top_case;
position = "{540, 1284}";
},
{
name = topright;
position = "{956, 974}";
}
);
layerId = "1D628CB9-BBF5-410A-9D74-9E6094BFE839";
paths = (
{
closed = 1;
nodes = (
"926 -16 OFFCURVE",
"956 224 OFFCURVE",
"956 635 CURVE SMOOTH",
"956 1284 LINE",
"828 1284 LINE",
"828 540 LINE SMOOTH",
"828 263 OFFCURVE",
"813 96 OFFCURVE",
"540 96 CURVE SMOOTH",
"267 96 OFFCURVE",
"252 263 OFFCURVE",
"252 540 CURVE SMOOTH",
"252 1284 LINE",
"124 1284 LINE",
"124 635 LINE SMOOTH",
"124 224 OFFCURVE",
"154 -16 OFFCURVE",
"540 -16 CURVE SMOOTH"
);
}
);
width = 1080;
}
);
unicode = 0055;
},
{
glyphname = Uhorn;
layers = (
{
anchors = (
{
name = bottom;
position = "{540, 0}";
},
{
name = ogonek;
position = "{721, 30}";
},
{
name = top;
position = "{540, 1284}";
},
{
name = top_case;
position = "{540, 1284}";
}
);
layerId = "1D628CB9-BBF5-410A-9D74-9E6094BFE839";
paths = (
{
closed = 1;
nodes = (
"124 224 OFFCURVE",
"154 -16 OFFCURVE",
"540 -16 CURVE SMOOTH",
"926 -16 OFFCURVE",
"956 224 OFFCURVE",
"956 635 CURVE SMOOTH",
"956 1093 LINE",
"913 1048 LINE",
"966 1066 LINE SMOOTH",
"1088 1107 OFFCURVE",
"1194 1166 OFFCURVE",
"1194 1291 CURVE SMOOTH",
"1194 1331 OFFCURVE",
"1187 1363 OFFCURVE",
"1177 1389 CURVE",
"1045 1389 LINE",
"1058 1361 OFFCURVE",
"1066 1330 OFFCURVE",
"1066 1299 CURVE SMOOTH",
"1066 1212 OFFCURVE",
"1014 1168 OFFCURVE",
"922 1136 CURVE",
"956 1121 LINE",
"956 1284 LINE",
"828 1284 LINE",
"828 540 LINE SMOOTH",
"828 263 OFFCURVE",
"813 96 OFFCURVE",
"540 96 CURVE SMOOTH",
"267 96 OFFCURVE",
"252 263 OFFCURVE",
"252 540 CURVE SMOOTH",
"252 1284 LINE",
"124 1284 LINE",
"124 635 LINE SMOOTH"
);
}
);
width = 1144;
},
{
anchors = (
{
name = _topright;
position = "{956, 974}";
},
{
name = bottom;
position = "{540, 0}";
},
{
name = ogonek;
position = "{721, 30}";
},
{
name = top_case;
position = "{540, 1284}";
},
{
name = topright;
position = "{956, 974}";
}
);
associatedMasterId = "1D628CB9-BBF5-410A-9D74-9E6094BFE839";
layerId = "F9DD0791-68B1-45D6-AA01-62C5055AAAB5";
name = "Regular Jul 25 16, 11:38";
paths = (
{
closed = 1;
nodes = (
"926 -16 OFFCURVE",
"956 224 OFFCURVE",
"956 635 CURVE SMOOTH",
"956 1284 LINE",
"828 1284 LINE",
"828 540 LINE SMOOTH",
"828 263 OFFCURVE",
"813 96 OFFCURVE",
"540 96 CURVE SMOOTH",
"267 96 OFFCURVE",
"252 263 OFFCURVE",
"252 540 CURVE SMOOTH",
"252 1284 LINE",
"124 1284 LINE",
"124 635 LINE SMOOTH",
"124 224 OFFCURVE",
"154 -16 OFFCURVE",
"540 -16 CURVE SMOOTH"
);
},
{
closed = 1;
nodes = (
"966 1066 LINE SMOOTH",
"1088 1107 OFFCURVE",
"1194 1166 OFFCURVE",
"1194 1291 CURVE SMOOTH",
"1194 1331 OFFCURVE",
"1187 1363 OFFCURVE",
"1177 1389 CURVE",
"1045 1389 LINE",
"1058 1361 OFFCURVE",
"1066 1330 OFFCURVE",
"1066 1299 CURVE SMOOTH",
"1066 1223 OFFCURVE",
"1027 1180 OFFCURVE",
"956 1149 CURVE SMOOTH",
"921 1134 LINE",
"921 1051 LINE"
);
}
);
width = 1080;
}
);
unicode = 01AF;
userData = {
com.schriftgestaltung.Glyphs.ColorIndex = 7;
};
},
{
glyphname = V;
layers = (
{
anchors = (
{
name = bottom;
position = "{504, 0}";
},
{
name = top;
position = "{504, 1284}";
}
);
layerId = "1D628CB9-BBF5-410A-9D74-9E6094BFE839";
paths = (
{
closed = 1;
nodes = (
"583 0 LINE",
"952 1285 LINE",
"817 1285 LINE",
"702 838 OFFCURVE",
"593 468 OFFCURVE",
"504 134 CURVE",
"415 468 OFFCURVE",
"303 838 OFFCURVE",
"188 1285 CURVE",
"56 1285 LINE",
"425 0 LINE"
);
}
);
width = 1008;
}
);
unicode = 0056;
},
{
glyphname = W;
layers = (
{
anchors = (
{
name = bottom;
position = "{669, 0}";
},
{
name = top_case;
position = "{669, 1284}";
}
);
layerId = "1D628CB9-BBF5-410A-9D74-9E6094BFE839";
paths = (
{
closed = 1;
nodes = (
"427 0 LINE",
"681 702 LINE",
"943 0 LINE",
"1085 0 LINE",
"1205 1284 LINE",
"1087 1284 LINE",
"981 183 LINE",
"738 846 LINE",
"623 846 LINE",
"390 185 LINE",
"275 1284 LINE",
"157 1284 LINE",
"286 0 LINE"
);
}
);
width = 1337;
}
);
unicode = 0057;
},
{
glyphname = X;
layers = (
{
anchors = (
{
name = bottom;
position = "{450, 0}";
},
{
name = top;
position = "{450, 1284}";
}
);
layerId = "1D628CB9-BBF5-410A-9D74-9E6094BFE839";
paths = (
{
closed = 1;
nodes = (
"182 0 LINE",
"453 569 LINE",
"727 0 LINE",
"855 0 LINE",
"535 657 LINE",
"820 1284 LINE",
"702 1284 LINE",
"452 745 LINE",
"200 1284 LINE",
"70 1284 LINE",
"362 658 LINE",
"44 0 LINE"
);
}
);
width = 899;
}
);
unicode = 0058;
},
{
glyphname = Y;
layers = (
{
anchors = (
{
name = bottom;
position = "{463, 0}";
},
{
name = top;
position = "{461, 1284}";
},
{
name = top_case;
position = "{461, 1284}";
},
{
name = topleft;
position = "{20, 1284}";
}
);
layerId = "1D628CB9-BBF5-410A-9D74-9E6094BFE839";
paths = (
{
closed = 1;
nodes = (
"527 0 LINE",
"527 588 LINE",
"911 1284 LINE",
"765 1284 LINE",
"463 704 LINE",
"157 1284 LINE",
"15 1284 LINE",
"399 586 LINE",
"399 0 LINE"
);
}
);
width = 926;
}
);
unicode = 0059;
},
{
glyphname = Z;
layers = (
{
anchors = (
{
name = bottom;
position = "{464, 0}";
},
{
name = top_case;
position = "{464, 1284}";
}
);
layerId = "1D628CB9-BBF5-410A-9D74-9E6094BFE839";
paths = (
{
closed = 1;
nodes = (
"841 0 LINE",
"841 100 LINE",
"252 100 LINE",
"820 1176 LINE",
"804 1284 LINE",
"135 1284 LINE",
"135 1184 LINE",
"673 1184 LINE",
"104 98 LINE",
"125 0 LINE"
);
}
);
width = 927;
}
);
unicode = 005A;
},
{
glyphname = a;
layers = (
{
anchors = (
{
name = bottom;
position = "{477, 0}";
},
{
name = ogonek;
position = "{760, 0}";
},
{
name = top;
position = "{474, 985}";
}
);
layerId = "1D628CB9-BBF5-410A-9D74-9E6094BFE839";
paths = (
{
closed = 1;
nodes = (
"532 -10 OFFCURVE",
"653 30 OFFCURVE",
"698 66 CURVE",
"718 0 LINE",
"810 0 LINE",
"810 617 LINE SMOOTH",
"810 902 OFFCURVE",
"663 1000 OFFCURVE",
"474 1000 CURVE SMOOTH",
"377 1000 OFFCURVE",
"270 976 OFFCURVE",
"166 942 CURVE",
"191 843 LINE",
"289 868 OFFCURVE",
"386 895 OFFCURVE",
"468 895 CURVE SMOOTH",
"594 895 OFFCURVE",
"684 831 OFFCURVE",
"685 599 CURVE SMOOTH",
"685 567 LINE",
"597 567 LINE SMOOTH",
"223 567 OFFCURVE",
"109 422 OFFCURVE",
"109 269 CURVE SMOOTH",
"109 83 OFFCURVE",
"241 -10 OFFCURVE",
"425 -10 CURVE SMOOTH"
);
},
{
closed = 1;
nodes = (
"305 92 OFFCURVE",
"229 153 OFFCURVE",
"229 278 CURVE SMOOTH",
"229 455 OFFCURVE",
"462 473 OFFCURVE",
"629 473 CURVE SMOOTH",
"685 473 LINE",
"685 158 LINE",
"630 122 OFFCURVE",
"533 92 OFFCURVE",
"445 92 CURVE SMOOTH"
);
}
);
width = 953;
}
);
unicode = 0061;
},
{
glyphname = ae;
layers = (
{
anchors = (
{
name = bottom;
position = "{771, 0}";
},
{
name = ogonek;
position = "{760, 0}";
},
{
name = top;
position = "{771, 985}";
}
);
layerId = "1D628CB9-BBF5-410A-9D74-9E6094BFE839";
paths = (
{
closed = 1;
nodes = (
"603 -10 OFFCURVE",
"732 76 OFFCURVE",
"808 168 CURVE",
"751 234 LINE",
"693 159 OFFCURVE",
"571 92 OFFCURVE",
"445 92 CURVE SMOOTH",
"305 92 OFFCURVE",
"229 153 OFFCURVE",
"229 278 CURVE SMOOTH",
"229 451 OFFCURVE",
"462 469 OFFCURVE",
"629 469 CURVE SMOOTH",
"1431 469 LINE",
"1436 528 OFFCURVE",
"1439 574 OFFCURVE",
"1439 604 CURVE SMOOTH",
"1439 841 OFFCURVE",
"1306 1000 OFFCURVE",
"1084 1000 CURVE SMOOTH",
"916 1000 OFFCURVE",
"783 919 OFFCURVE",
"722 743 CURVE",
"792 771 LINE",
"747 939 OFFCURVE",
"624 1000 OFFCURVE",
"474 1000 CURVE SMOOTH",
"377 1000 OFFCURVE",
"270 976 OFFCURVE",
"166 942 CURVE",
"191 843 LINE",
"289 868 OFFCURVE",
"386 895 OFFCURVE",
"468 895 CURVE SMOOTH",
"594 895 OFFCURVE",
"685 831 OFFCURVE",
"685 599 CURVE SMOOTH",
"685 496 LINE SMOOTH",
"685 134 OFFCURVE",
"852 -10 OFFCURVE",
"1109 -10 CURVE SMOOTH",
"1204 -10 OFFCURVE",
"1325 16 OFFCURVE",
"1421 75 CURVE",
"1382 176 LINE",
"1289 117 OFFCURVE",
"1202 96 OFFCURVE",
"1102 96 CURVE SMOOTH",
"947 96 OFFCURVE",
"812 172 OFFCURVE",
"812 519 CURVE SMOOTH",
"812 750 OFFCURVE",
"902 895 OFFCURVE",
"1085 895 CURVE SMOOTH",
"1230 895 OFFCURVE",
"1320 783 OFFCURVE",
"1320 609 CURVE SMOOTH",
"1320 561 LINE",
"597 562 LINE SMOOTH",
"223 562 OFFCURVE",
"109 419 OFFCURVE",
"109 269 CURVE SMOOTH",
"109 83 OFFCURVE",
"241 -10 OFFCURVE",
"425 -10 CURVE SMOOTH"
);
}
);
width = 1541;
},
{
anchors = (
{
name = bottom;
position = "{771, 0}";
},
{
name = top;
position = "{771, 985}";
}
);
associatedMasterId = "1D628CB9-BBF5-410A-9D74-9E6094BFE839";
layerId = "5E165179-021E-4BCF-A508-2B1321AC368B";
name = "Regular Jul 6 16, 13:18";
paths = (
{
closed = 1;
nodes = (
"166 942 LINE",
"270 976 OFFCURVE",
"377 1000 OFFCURVE",
"474 1000 CURVE SMOOTH",
"599 1000 OFFCURVE",
"726 944 OFFCURVE",
"762 789 CURVE",
"829 941 OFFCURVE",
"950 1000 OFFCURVE",
"1087 1000 CURVE SMOOTH",
"1290 1000 OFFCURVE",
"1429 844 OFFCURVE",
"1429 707 CURVE SMOOTH",
"1429 581 OFFCURVE",
"1341 469 OFFCURVE",
"1128 469 CURVE SMOOTH",
"813 469 LINE",
"817 162 OFFCURVE",
"956 96 OFFCURVE",
"1102 96 CURVE SMOOTH",
"1202 96 OFFCURVE",
"1289 117 OFFCURVE",
"1382 176 CURVE",
"1421 75 LINE",
"1325 16 OFFCURVE",
"1204 -10 OFFCURVE",
"1109 -10 CURVE SMOOTH",
"960 -10 OFFCURVE",
"842 38 OFFCURVE",
"768 149 CURVE",
"710 64 OFFCURVE",
"625 -10 OFFCURVE",
"425 -10 CURVE SMOOTH",
"241 -10 OFFCURVE",
"109 85 OFFCURVE",
"109 284 CURVE SMOOTH",
"109 429 OFFCURVE",
"223 567 OFFCURVE",
"597 567 CURVE SMOOTH",
"685 567 LINE",
"685 599 LINE SMOOTH",
"684 831 OFFCURVE",
"594 895 OFFCURVE",
"468 895 CURVE SMOOTH",
"386 895 OFFCURVE",
"289 868 OFFCURVE",
"191 843 CURVE"
);
},
{
closed = 1;
nodes = (
"229 278 CURVE SMOOTH",
"229 153 OFFCURVE",
"305 92 OFFCURVE",
"445 92 CURVE SMOOTH",
"551 92 OFFCURVE",
"627 113 OFFCURVE",
"732 216 CURVE",
"703 284 OFFCURVE",
"687 369 OFFCURVE",
"685 472 CURVE",
"685 473 LINE",
"629 473 LINE SMOOTH",
"462 473 OFFCURVE",
"229 455 OFFCURVE"
);
},
{
closed = 1;
nodes = (
"813 559 CURVE",
"1126 559 LINE SMOOTH",
"1261 559 OFFCURVE",
"1321 630 OFFCURVE",
"1321 707 CURVE SMOOTH",
"1321 798 OFFCURVE",
"1238 896 OFFCURVE",
"1099 896 CURVE SMOOTH",
"917 896 OFFCURVE",
"829 767 OFFCURVE"
);
}
);
width = 1541;
}
);
unicode = 00E6;
userData = {
com.typemytype.robofont.layerData = {
"Regular Jul 6 16, 13:18" = {
anchors = (
{
name = top;
x = 771;
y = 985;
},
{
name = bottom;
x = 771;
y = 0;
}
);
components = (
);
contours = (
{
points = (
{
segmentType = line;
smooth = 0;
x = 166;
y = 942;
},
{
smooth = 0;
x = 270;
y = 976;
},
{
smooth = 0;
x = 377;
y = 1000;
},
{
segmentType = curve;
smooth = 1;
x = 474;
y = 1000;
},
{
smooth = 0;
x = 599;
y = 1000;
},
{
smooth = 0;
x = 726;
y = 944;
},
{
segmentType = curve;
smooth = 0;
x = 762;
y = 789;
},
{
smooth = 0;
x = 829;
y = 941;
},
{
smooth = 0;
x = 950;
y = 1000;
},
{
segmentType = curve;
smooth = 1;
x = 1087;
y = 1000;
},
{
smooth = 0;
x = 1290;
y = 1000;
},
{
smooth = 0;
x = 1429;
y = 844;
},
{
segmentType = curve;
smooth = 1;
x = 1429;
y = 707;
},
{
smooth = 0;
x = 1429;
y = 581;
},
{
smooth = 0;
x = 1341;
y = 469;
},
{
segmentType = curve;
smooth = 1;
x = 1128;
y = 469;
},
{
segmentType = line;
smooth = 0;
x = 813;
y = 469;
},
{
smooth = 0;
x = 817;
y = 162;
},
{
smooth = 0;
x = 956;
y = 96;
},
{
segmentType = curve;
smooth = 1;
x = 1102;
y = 96;
},
{
smooth = 0;
x = 1202;
y = 96;
},
{
smooth = 0;
x = 1289;
y = 117;
},
{
segmentType = curve;
smooth = 0;
x = 1382;
y = 176;
},
{
segmentType = line;
smooth = 0;
x = 1421;
y = 75;
},
{
smooth = 0;
x = 1325;
y = 16;
},
{
smooth = 0;
x = 1204;
y = -10;
},
{
segmentType = curve;
smooth = 1;
x = 1109;
y = -10;
},
{
smooth = 0;
x = 960;
y = -10;
},
{
smooth = 0;
x = 842;
y = 38;
},
{
segmentType = curve;
smooth = 0;
x = 768;
y = 149;
},
{
smooth = 0;
x = 710;
y = 64;
},
{
smooth = 0;
x = 625;
y = -10;
},
{
segmentType = curve;
smooth = 1;
x = 425;
y = -10;
},
{
smooth = 0;
x = 241;
y = -10;
},
{
smooth = 0;
x = 109;
y = 85;
},
{
segmentType = curve;
smooth = 1;
x = 109;
y = 284;
},
{
smooth = 0;
x = 109;
y = 429;
},
{
smooth = 0;
x = 223;
y = 567;
},
{
segmentType = curve;
smooth = 1;
x = 597;
y = 567;
},
{
segmentType = line;
smooth = 0;
x = 685;
y = 567;
},
{
segmentType = line;
smooth = 1;
x = 685;
y = 599;
},
{
smooth = 0;
x = 684;
y = 831;
},
{
smooth = 0;
x = 594;
y = 895;
},
{
segmentType = curve;
smooth = 1;
x = 468;
y = 895;
},
{
smooth = 0;
x = 386;
y = 895;
},
{
smooth = 0;
x = 289;
y = 868;
},
{
segmentType = curve;
smooth = 0;
x = 191;
y = 843;
}
);
},
{
points = (
{
segmentType = curve;
smooth = 1;
x = 229;
y = 278;
},
{
smooth = 0;
x = 229;
y = 153;
},
{
smooth = 0;
x = 305;
y = 92;
},
{
segmentType = curve;
smooth = 1;
x = 445;
y = 92;
},
{
smooth = 0;
x = 551;
y = 92;
},
{
smooth = 0;
x = 627;
y = 113;
},
{
segmentType = curve;
smooth = 0;
x = 732;
y = 216;
},
{
smooth = 0;
x = 703;
y = 284;
},
{
smooth = 0;
x = 687;
y = 369;
},
{
segmentType = curve;
smooth = 0;
x = 685;
y = 472;
},
{
segmentType = line;
smooth = 0;
x = 685;
y = 473;
},
{
segmentType = line;
smooth = 1;
x = 629;
y = 473;
},
{
smooth = 0;
x = 462;
y = 473;
},
{
smooth = 0;
x = 229;
y = 455;
}
);
},
{
points = (
{
segmentType = curve;
smooth = 0;
x = 813;
y = 559;
},
{
segmentType = line;
smooth = 1;
x = 1126;
y = 559;
},
{
smooth = 0;
x = 1261;
y = 559;
},
{
smooth = 0;
x = 1321;
y = 630;
},
{
segmentType = curve;
smooth = 1;
x = 1321;
y = 707;
},
{
smooth = 0;
x = 1321;
y = 798;
},
{
smooth = 0;
x = 1238;
y = 896;
},
{
segmentType = curve;
smooth = 1;
x = 1099;
y = 896;
},
{
smooth = 0;
x = 917;
y = 896;
},
{
smooth = 0;
x = 829;
y = 767;
}
);
}
);
lib = {
};
name = ae;
unicodes = (
);
width = 1541;
};
};
};
},
{
glyphname = b;
layers = (
{
anchors = (
{
name = bottom;
position = "{492, 0}";
},
{
name = top_case;
position = "{204, 1358}";
}
);
layerId = "1D628CB9-BBF5-410A-9D74-9E6094BFE839";
paths = (
{
closed = 1;
nodes = (
"747 -10 OFFCURVE",
"876 126 OFFCURVE",
"876 493 CURVE SMOOTH",
"876 852 OFFCURVE",
"740 1000 OFFCURVE",
"540 1000 CURVE SMOOTH",
"456 1000 OFFCURVE",
"370 986 OFFCURVE",
"268 923 CURVE",
"268 1358 LINE",
"140 1358 LINE",
"140 0 LINE",
"244 0 LINE",
"254 50 LINE",
"336 6 OFFCURVE",
"435 -10 OFFCURVE",
"510 -10 CURVE SMOOTH"
);
},
{
closed = 1;
nodes = (
"408 96 OFFCURVE",
"350 99 OFFCURVE",
"268 137 CURVE",
"268 809 LINE",
"377 872 OFFCURVE",
"456 895 OFFCURVE",
"524 895 CURVE SMOOTH",
"681 895 OFFCURVE",
"748 767 OFFCURVE",
"748 491 CURVE SMOOTH",
"748 206 OFFCURVE",
"672 96 OFFCURVE",
"492 96 CURVE SMOOTH",
"463 96 LINE SMOOTH"
);
}
);
width = 984;
}
);
unicode = 0062;
userData = {
com.fontlab.hintData = {
hhints = (
{
position = -10;
width = 106;
},
{
position = 895;
width = 105;
},
{
position = 1338;
width = 20;
}
);
vhints = (
{
position = 140;
width = 128;
},
{
position = 140;
width = 104;
},
{
position = 748;
width = 128;
}
);
};
};
},
{
glyphname = c;
layers = (
{
anchors = (
{
name = bottom;
position = "{432, 0}";
},
{
name = cedilla;
position = "{498, 0}";
},
{
name = top;
position = "{496, 985}";
}
);
layerId = "1D628CB9-BBF5-410A-9D74-9E6094BFE839";
paths = (
{
closed = 1;
nodes = (
"610 -10 OFFCURVE",
"705 11 OFFCURVE",
"798 79 CURVE",
"750 170 LINE",
"666 113 OFFCURVE",
"594 94 OFFCURVE",
"521 94 CURVE SMOOTH",
"351 94 OFFCURVE",
"236 233 OFFCURVE",
"236 493 CURVE SMOOTH",
"236 732 OFFCURVE",
"292 898 OFFCURVE",
"494 898 CURVE SMOOTH",
"551 898 OFFCURVE",
"606 892 OFFCURVE",
"657 872 CURVE",
"657 672 LINE",
"759 682 LINE",
"759 940 LINE",
"674 980 OFFCURVE",
"587 1000 OFFCURVE",
"496 1000 CURVE SMOOTH",
"237 1000 OFFCURVE",
"108 831 OFFCURVE",
"108 495 CURVE SMOOTH",
"108 158 OFFCURVE",
"285 -10 OFFCURVE",
"507 -10 CURVE SMOOTH"
);
}
);
width = 864;
}
);
unicode = 0063;
},
{
glyphname = d;
layers = (
{
anchors = (
{
name = bottom;
position = "{505, 0}";
},
{
name = center;
position = "{505, 493}";
},
{
name = top_case;
position = "{806, 1358}";
},
{
name = topright;
position = "{967, 1358}";
}
);
layerId = "1D628CB9-BBF5-410A-9D74-9E6094BFE839";
paths = (
{
closed = 1;
nodes = (
"589 -10 OFFCURVE",
"674 6 OFFCURVE",
"756 50 CURVE",
"766 0 LINE",
"870 0 LINE",
"870 1358 LINE",
"742 1358 LINE",
"742 923 LINE",
"640 986 OFFCURVE",
"568 1000 OFFCURVE",
"484 1000 CURVE SMOOTH",
"284 1000 OFFCURVE",
"108 852 OFFCURVE",
"108 493 CURVE SMOOTH",
"108 126 OFFCURVE",
"277 -10 OFFCURVE",
"514 -10 CURVE SMOOTH"
);
},
{
closed = 1;
nodes = (
"352 96 OFFCURVE",
"236 206 OFFCURVE",
"236 491 CURVE SMOOTH",
"236 767 OFFCURVE",
"343 895 OFFCURVE",
"500 895 CURVE SMOOTH",
"568 895 OFFCURVE",
"633 872 OFFCURVE",
"742 809 CURVE",
"742 137 LINE",
"660 99 OFFCURVE",
"612 96 OFFCURVE",
"560 96 CURVE SMOOTH",
"532 96 LINE SMOOTH"
);
}
);
width = 1010;
}
);
unicode = 0064;
},
{
glyphname = eth;
layers = (
{
layerId = "1D628CB9-BBF5-410A-9D74-9E6094BFE839";
paths = (
{
closed = 1;
nodes = (
"757 -10 OFFCURVE",
"879 183 OFFCURVE",
"879 544 CURVE SMOOTH",
"879 836 OFFCURVE",
"807 1064 OFFCURVE",
"684 1175 CURVE",
"874 1309 LINE",
"822 1377 LINE",
"612 1229 LINE",
"511 1293 OFFCURVE",
"386 1328 OFFCURVE",
"245 1351 CURVE",
"224 1245 LINE",
"337 1235 OFFCURVE",
"434 1206 OFFCURVE",
"513 1161 CURVE",
"330 1035 LINE",
"382 967 LINE",
"588 1109 LINE",
"688 1041 OFFCURVE",
"755 812 OFFCURVE",
"761 672 CURVE",
"700 754 OFFCURVE",
"595 804 OFFCURVE",
"475 804 CURVE SMOOTH",
"272 804 OFFCURVE",
"88 671 OFFCURVE",
"88 394 CURVE SMOOTH",
"88 121 OFFCURVE",
"253 -10 OFFCURVE",
"485 -10 CURVE SMOOTH"
);
},
{
closed = 1;
nodes = (
"322 96 OFFCURVE",
"216 170 OFFCURVE",
"216 395 CURVE SMOOTH",
"216 601 OFFCURVE",
"326 701 OFFCURVE",
"469 701 CURVE SMOOTH",
"573 701 OFFCURVE",
"751 650 OFFCURVE",
"751 450 CURVE SMOOTH",
"751 203 OFFCURVE",
"670 96 OFFCURVE",
"490 96 CURVE SMOOTH"
);
}
);
width = 998;
}
);
unicode = 00F0;
},
{
glyphname = dcroat;
layers = (
{
layerId = "1D628CB9-BBF5-410A-9D74-9E6094BFE839";
paths = (
{
closed = 1;
nodes = (
"589 -10 OFFCURVE",
"674 6 OFFCURVE",
"756 50 CURVE",
"766 0 LINE",
"870 0 LINE",
"870 1107 LINE",
"1010 1107 LINE",
"1010 1195 LINE",
"870 1195 LINE",
"870 1358 LINE",
"742 1358 LINE",
"742 1195 LINE",
"530 1195 LINE",
"530 1107 LINE",
"742 1107 LINE",
"742 923 LINE",
"640 986 OFFCURVE",
"568 1000 OFFCURVE",
"484 1000 CURVE SMOOTH",
"284 1000 OFFCURVE",
"108 852 OFFCURVE",
"108 493 CURVE SMOOTH",
"108 126 OFFCURVE",
"277 -10 OFFCURVE",
"514 -10 CURVE SMOOTH"
);
},
{
closed = 1;
nodes = (
"352 96 OFFCURVE",
"236 206 OFFCURVE",
"236 491 CURVE SMOOTH",
"236 767 OFFCURVE",
"343 895 OFFCURVE",
"500 895 CURVE SMOOTH",
"568 895 OFFCURVE",
"633 872 OFFCURVE",
"742 809 CURVE",
"742 137 LINE",
"660 99 OFFCURVE",
"612 96 OFFCURVE",
"560 96 CURVE SMOOTH",
"532 96 LINE SMOOTH"
);
}
);
width = 1010;
}
);
unicode = 0111;
},
{
glyphname = e;
layers = (
{
anchors = (
{
name = bottom;
position = "{533, 0}";
},
{
name = ogonek;
position = "{767, 60}";
},
{
name = top;
position = "{507, 985}";
}
);
layerId = "1D628CB9-BBF5-410A-9D74-9E6094BFE839";
paths = (
{
closed = 1;
nodes = (
"627 -10 OFFCURVE",
"748 16 OFFCURVE",
"844 75 CURVE",
"805 176 LINE",
"712 117 OFFCURVE",
"625 96 OFFCURVE",
"525 96 CURVE SMOOTH",
"379 96 OFFCURVE",
"240 162 OFFCURVE",
"236 469 CURVE",
"854 469 LINE",
"859 528 OFFCURVE",
"862 574 OFFCURVE",
"862 604 CURVE SMOOTH",
"862 841 OFFCURVE",
"729 1000 OFFCURVE",
"507 1000 CURVE SMOOTH",
"274 1000 OFFCURVE",
"108 843 OFFCURVE",
"108 496 CURVE SMOOTH",
"108 134 OFFCURVE",
"275 -10 OFFCURVE",
"532 -10 CURVE SMOOTH"
);
},
{
closed = 1;
nodes = (
"251 766 OFFCURVE",
"335 895 OFFCURVE",
"508 895 CURVE SMOOTH",
"653 895 OFFCURVE",
"743 783 OFFCURVE",
"743 609 CURVE SMOOTH",
"743 559 LINE",
"236 559 LINE"
);
}
);
width = 964;
}
);
unicode = 0065;
userData = {
com.fontlab.hintData = {
hhints = (
{
position = -10;
width = 106;
},
{
position = 469;
width = 90;
},
{
position = 895;
width = 105;
}
);
vhints = (
{
position = 108;
width = 128;
},
{
position = 743;
width = 119;
}
);
};
};
},
{
glyphname = schwa;
layers = (
{
layerId = "1D628CB9-BBF5-410A-9D74-9E6094BFE839";
paths = (
{
closed = 1;
nodes = (
"690 -10 OFFCURVE",
"856 147 OFFCURVE",
"856 494 CURVE SMOOTH",
"856 856 OFFCURVE",
"689 1000 OFFCURVE",
"432 1000 CURVE SMOOTH",
"337 1000 OFFCURVE",
"216 974 OFFCURVE",
"120 915 CURVE",
"159 814 LINE",
"252 873 OFFCURVE",
"339 894 OFFCURVE",
"439 894 CURVE SMOOTH",
"585 894 OFFCURVE",
"724 828 OFFCURVE",
"728 521 CURVE",
"110 521 LINE",
"105 462 OFFCURVE",
"102 416 OFFCURVE",
"102 386 CURVE SMOOTH",
"102 149 OFFCURVE",
"235 -10 OFFCURVE",
"457 -10 CURVE SMOOTH"
);
},
{
closed = 1;
nodes = (
"311 95 OFFCURVE",
"221 207 OFFCURVE",
"221 381 CURVE SMOOTH",
"221 431 LINE",
"728 431 LINE",
"713 224 OFFCURVE",
"629 95 OFFCURVE",
"456 95 CURVE SMOOTH"
);
}
);
width = 964;
}
);
leftMetricsKey = "=|e";
rightMetricsKey = "=|e";
unicode = 0259;
userData = {
com.schriftgestaltung.Glyphs.leftMetricsKey = "=|e";
com.schriftgestaltung.Glyphs.rightMetricsKey = "=|e";
};
},
{
glyphname = f;
layers = (
{
anchors = (
{
name = bottom;
position = "{343, 0}";
},
{
name = top_case;
position = "{513, 1358}";
}
);
layerId = "1D628CB9-BBF5-410A-9D74-9E6094BFE839";
paths = (
{
closed = 1;
nodes = (
"382 0 LINE",
"382 893 LINE",
"606 893 LINE",
"606 985 LINE",
"382 985 LINE",
"382 1250 OFFCURVE",
"425 1289 OFFCURVE",
"541 1289 CURVE SMOOTH",
"579 1289 OFFCURVE",
"660 1274 OFFCURVE",
"682 1268 CURVE",
"698 1368 LINE",
"631 1391 OFFCURVE",
"569 1394 OFFCURVE",
"513 1394 CURVE",
"300 1387 OFFCURVE",
"254 1271 OFFCURVE",
"254 985 CURVE",
"62 985 LINE",
"62 893 LINE",
"254 893 LINE",
"254 0 LINE"
);
}
);
width = 686;
}
);
unicode = 0066;
},
{
glyphname = g;
layers = (
{
anchors = (
{
name = bottom;
position = "{546, 0}";
},
{
name = top;
position = "{539, 985}";
}
);
layerId = "1D628CB9-BBF5-410A-9D74-9E6094BFE839";
paths = (
{
closed = 1;
nodes = (
"869 -340 OFFCURVE",
"965 -168 OFFCURVE",
"965 -41 CURVE SMOOTH",
"965 97 OFFCURVE",
"900 165 OFFCURVE",
"682 165 CURVE SMOOTH",
"303 165 LINE",
"303 165 OFFCURVE",
"272 200 OFFCURVE",
"272 254 CURVE SMOOTH",
"272 301 OFFCURVE",
"306 362 OFFCURVE",
"338 414 CURVE",
"398 390 OFFCURVE",
"477 377 OFFCURVE",
"544 377 CURVE SMOOTH",
"763 377 OFFCURVE",
"914 491 OFFCURVE",
"914 674 CURVE SMOOTH",
"914 746 OFFCURVE",
"877 829 OFFCURVE",
"806 883 CURVE",
"1029 883 LINE",
"1029 977 LINE",
"742 977 LINE SMOOTH",
"663 977 OFFCURVE",
"626 1000 OFFCURVE",
"539 1000 CURVE SMOOTH",
"325 1000 OFFCURVE",
"150 909 OFFCURVE",
"150 688 CURVE SMOOTH",
"150 589 OFFCURVE",
"200 516 OFFCURVE",
"261 465 CURVE",
"193 369 OFFCURVE",
"158 313 OFFCURVE",
"158 237 CURVE SMOOTH",
"158 187 OFFCURVE",
"184 126 OFFCURVE",
"229 96 CURVE",
"189 73 OFFCURVE",
"118 -10 OFFCURVE",
"118 -93 CURVE SMOOTH",
"118 -184 OFFCURVE",
"182 -340 OFFCURVE",
"515 -340 CURVE SMOOTH"
);
},
{
closed = 1;
nodes = (
"258 -235 OFFCURVE",
"246 -145 OFFCURVE",
"246 -79 CURVE SMOOTH",
"246 -18 OFFCURVE",
"280 28 OFFCURVE",
"319 65 CURVE",
"698 65 LINE SMOOTH",
"825 65 OFFCURVE",
"845 18 OFFCURVE",
"845 -49 CURVE SMOOTH",
"845 -139 OFFCURVE",
"753 -235 OFFCURVE",
"521 -235 CURVE SMOOTH"
);
},
{
closed = 1;
nodes = (
"376 475 OFFCURVE",
"278 548 OFFCURVE",
"278 689 CURVE SMOOTH",
"278 811 OFFCURVE",
"351 905 OFFCURVE",
"545 905 CURVE SMOOTH",
"720 905 OFFCURVE",
"797 800 OFFCURVE",
"797 678 CURVE SMOOTH",
"797 542 OFFCURVE",
"704 475 OFFCURVE",
"535 475 CURVE SMOOTH"
);
}
);
width = 1092;
}
);
unicode = 0067;
userData = {
com.fontlab.hintData = {
hhints = (
{
position = -309;
width = 105;
},
{
position = 96;
width = 100;
},
{
position = 363;
width = 98;
},
{
position = 883;
width = 94;
},
{
position = 905;
width = 95;
}
);
vhints = (
{
position = 118;
width = 128;
},
{
position = 158;
width = 114;
},
{
position = 797;
width = 117;
},
{
position = 837;
width = 128;
}
);
};
};
},
{
glyphname = h;
layers = (
{
anchors = (
{
name = bottom;
position = "{486, 0}";
},
{
name = center;
position = "{486, 493}";
},
{
name = top_case;
position = "{204, 1358}";
}
);
layerId = "1D628CB9-BBF5-410A-9D74-9E6094BFE839";
paths = (
{
closed = 1;
nodes = (
"268 0 LINE",
"268 800 LINE",
"398 870 OFFCURVE",
"488 895 OFFCURVE",
"559 895 CURVE SMOOTH",
"678 895 OFFCURVE",
"716 826 OFFCURVE",
"716 669 CURVE SMOOTH",
"716 0 LINE",
"844 0 LINE",
"844 663 LINE SMOOTH",
"844 900 OFFCURVE",
"753 1000 OFFCURVE",
"567 1000 CURVE SMOOTH",
"472 1000 OFFCURVE",
"375 970 OFFCURVE",
"268 911 CURVE",
"268 1358 LINE",
"140 1358 LINE",
"140 0 LINE"
);
}
);
width = 972;
}
);
unicode = 0068;
},
{
glyphname = hbar;
layers = (
{
layerId = "1D628CB9-BBF5-410A-9D74-9E6094BFE839";
paths = (
{
closed = 1;
nodes = (
"287 0 LINE",
"287 800 LINE",
"417 870 OFFCURVE",
"507 895 OFFCURVE",
"578 895 CURVE SMOOTH",
"697 895 OFFCURVE",
"735 826 OFFCURVE",
"735 669 CURVE SMOOTH",
"735 0 LINE",
"863 0 LINE",
"863 663 LINE SMOOTH",
"863 900 OFFCURVE",
"772 1000 OFFCURVE",
"586 1000 CURVE SMOOTH",
"491 1000 OFFCURVE",
"394 970 OFFCURVE",
"287 911 CURVE",
"287 1100 LINE",
"499 1100 LINE",
"499 1195 LINE",
"287 1195 LINE",
"287 1358 LINE",
"159 1358 LINE",
"159 1195 LINE",
"-31 1195 LINE",
"-31 1100 LINE",
"159 1100 LINE",
"159 0 LINE"
);
}
);
width = 991;
}
);
unicode = 0127;
},
{
glyphname = i;
layers = (
{
anchors = (
{
name = bottom;
position = "{374, 0}";
},
{
name = ogonek;
position = "{385, 0}";
}
);
layerId = "1D628CB9-BBF5-410A-9D74-9E6094BFE839";
paths = (
{
closed = 1;
nodes = (
"630 0 LINE",
"630 90 LINE",
"438 90 LINE",
"438 985 LINE",
"118 985 LINE",
"118 895 LINE",
"310 895 LINE",
"310 90 LINE",
"118 90 LINE",
"118 0 LINE"
);
},
{
closed = 1;
nodes = (
"427 1176 OFFCURVE",
"464 1206 OFFCURVE",
"464 1266 CURVE SMOOTH",
"464 1326 OFFCURVE",
"427 1356 OFFCURVE",
"374 1356 CURVE SMOOTH",
"323 1356 OFFCURVE",
"283 1321 OFFCURVE",
"283 1264 CURVE SMOOTH",
"283 1208 OFFCURVE",
"323 1176 OFFCURVE",
"374 1176 CURVE SMOOTH"
);
}
);
width = 679;
}
);
unicode = 0069;
},
{
glyphname = idotless;
layers = (
{
anchors = (
{
name = bottom;
position = "{337, 0}";
},
{
name = ogonek;
position = "{606, 10}";
},
{
name = top;
position = "{320, 1034}";
}
);
layerId = "1D628CB9-BBF5-410A-9D74-9E6094BFE839";
paths = (
{
closed = 1;
nodes = (
"623 0 LINE",
"623 90 LINE",
"431 90 LINE",
"431 985 LINE",
"111 985 LINE",
"111 895 LINE",
"303 895 LINE",
"303 90 LINE",
"111 90 LINE",
"111 0 LINE"
);
}
);
width = 673;
}
);
unicode = 0131;
},
{
glyphname = j;
layers = (
{
layerId = "1D628CB9-BBF5-410A-9D74-9E6094BFE839";
paths = (
{
closed = 1;
nodes = (
"378 -295 OFFCURVE",
"467 -203 OFFCURVE",
"467 18 CURVE SMOOTH",
"467 985 LINE",
"115 985 LINE",
"115 895 LINE",
"339 895 LINE",
"339 28 LINE SMOOTH",
"339 -123 OFFCURVE",
"315 -182 OFFCURVE",
"202 -182 CURVE SMOOTH",
"139 -182 OFFCURVE",
"99 -177 OFFCURVE",
"54 -166 CURVE",
"38 -275 LINE",
"93 -291 OFFCURVE",
"149 -295 OFFCURVE",
"206 -295 CURVE SMOOTH"
);
},
{
closed = 1;
nodes = (
"454 1176 OFFCURVE",
"491 1206 OFFCURVE",
"491 1266 CURVE SMOOTH",
"491 1326 OFFCURVE",
"454 1356 OFFCURVE",
"401 1356 CURVE SMOOTH",
"350 1356 OFFCURVE",
"310 1321 OFFCURVE",
"310 1264 CURVE SMOOTH",
"310 1208 OFFCURVE",
"350 1176 OFFCURVE",
"401 1176 CURVE SMOOTH"
);
}
);
width = 626;
}
);
unicode = 006A;
},
{
glyphname = jdotless;
layers = (
{
anchors = (
{
name = bottom;
position = "{269, -295}";
},
{
name = top;
position = "{310, 985}";
}
);
layerId = "1D628CB9-BBF5-410A-9D74-9E6094BFE839";
paths = (
{
closed = 1;
nodes = (
"378 -295 OFFCURVE",
"467 -203 OFFCURVE",
"467 18 CURVE SMOOTH",
"467 985 LINE",
"115 985 LINE",
"115 895 LINE",
"339 895 LINE",
"339 28 LINE SMOOTH",
"339 -123 OFFCURVE",
"315 -182 OFFCURVE",
"202 -182 CURVE SMOOTH",
"139 -182 OFFCURVE",
"99 -177 OFFCURVE",
"54 -166 CURVE",
"38 -275 LINE",
"93 -291 OFFCURVE",
"149 -295 OFFCURVE",
"206 -295 CURVE SMOOTH"
);
}
);
width = 620;
}
);
unicode = 0237;
},
{
glyphname = k;
layers = (
{
anchors = (
{
name = bottom;
position = "{499, 0}";
},
{
name = top;
position = "{469, 985}";
}
);
layerId = "1D628CB9-BBF5-410A-9D74-9E6094BFE839";
paths = (
{
closed = 1;
nodes = (
"268 0 LINE",
"268 377 LINE",
"359 458 LINE",
"760 0 LINE",
"908 0 LINE",
"456 522 LINE",
"872 985 LINE",
"719 985 LINE",
"520 760 OFFCURVE",
"370 603 OFFCURVE",
"268 494 CURVE",
"268 1358 LINE",
"140 1358 LINE",
"140 0 LINE"
);
}
);
width = 937;
}
);
unicode = 006B;
userData = {
com.fontlab.hintData = {
hhints = (
{
position = 0;
width = 21;
},
{
position = 965;
width = 20;
},
{
position = 1338;
width = 20;
}
);
vhints = (
{
position = 140;
width = 128;
}
);
};
};
},
{
glyphname = kgreenlandic;
layers = (
{
layerId = "1D628CB9-BBF5-410A-9D74-9E6094BFE839";
paths = (
{
closed = 1;
nodes = (
"268 0 LINE",
"268 364 LINE",
"359 445 LINE",
"385 416 LINE",
"385 416 OFFCURVE",
"567 209 OFFCURVE",
"760 0 CURVE",
"921 0 LINE",
"457 504 LINE",
"885 985 LINE",
"719 985 LINE",
"520 754 OFFCURVE",
"370 593 OFFCURVE",
"268 481 CURVE",
"268 985 LINE",
"140 985 LINE",
"140 0 LINE"
);
}
);
width = 953;
}
);
unicode = 0138;
},
{
glyphname = l;
layers = (
{
anchors = (
{
name = bottom;
position = "{357, 0}";
},
{
name = center;
position = "{698, 714}";
},
{
name = top_case;
position = "{357, 1358}";
},
{
name = topright;
position = "{520, 1358}";
}
);
layerId = "1D628CB9-BBF5-410A-9D74-9E6094BFE839";
paths = (
{
closed = 1;
nodes = (
"632 0 LINE",
"632 90 LINE",
"421 90 LINE",
"421 1358 LINE",
"72 1358 LINE",
"72 1267 LINE",
"293 1267 LINE",
"293 90 LINE",
"70 90 LINE",
"70 0 LINE"
);
}
);
width = 682;
}
);
unicode = 006C;
},
{
glyphname = lslash;
layers = (
{
layerId = "1D628CB9-BBF5-410A-9D74-9E6094BFE839";
paths = (
{
closed = 1;
nodes = (
"694 0 LINE",
"694 90 LINE",
"483 90 LINE",
"483 688 LINE",
"784 923 LINE",
"726 1000 LINE",
"483 810 LINE",
"483 1358 LINE",
"134 1358 LINE",
"134 1267 LINE",
"355 1267 LINE",
"355 711 LINE",
"81 498 LINE",
"139 420 LINE",
"355 589 LINE",
"355 90 LINE",
"132 90 LINE",
"132 0 LINE"
);
}
);
width = 744;
}
);
unicode = 0142;
},
{
glyphname = m;
layers = (
{
anchors = (
{
name = bottom;
position = "{751, 0}";
},
{
name = top;
position = "{751, 985}";
}
);
layerId = "1D628CB9-BBF5-410A-9D74-9E6094BFE839";
paths = (
{
closed = 1;
nodes = (
"268 0 LINE",
"268 823 LINE",
"370 879 OFFCURVE",
"482 896 OFFCURVE",
"541 896 CURVE SMOOTH",
"543 896 LINE SMOOTH",
"663 895 OFFCURVE",
"701 826 OFFCURVE",
"701 668 CURVE SMOOTH",
"701 0 LINE",
"829 0 LINE",
"829 664 LINE SMOOTH",
"829 728 OFFCURVE",
"819 820 OFFCURVE",
"817 830 CURVE",
"914 891 OFFCURVE",
"1035 895 OFFCURVE",
"1084 895 CURVE SMOOTH",
"1187 895 OFFCURVE",
"1245 827 OFFCURVE",
"1245 672 CURVE SMOOTH",
"1245 0 LINE",
"1373 0 LINE",
"1373 671 LINE SMOOTH",
"1373 894 OFFCURVE",
"1265 1000 OFFCURVE",
"1080 1000 CURVE SMOOTH",
"999 1000 OFFCURVE",
"889 982 OFFCURVE",
"770 918 CURVE",
"730 978 OFFCURVE",
"647 1000 OFFCURVE",
"560 1000 CURVE SMOOTH",
"474 1000 OFFCURVE",
"364 978 OFFCURVE",
"263 922 CURVE",
"258 985 LINE",
"140 985 LINE",
"140 0 LINE"
);
}
);
width = 1501;
}
);
unicode = 006D;
},
{
glyphname = n;
layers = (
{
anchors = (
{
name = bottom;
position = "{499, 0}";
},
{
name = top;
position = "{493, 985}";
}
);
layerId = "1D628CB9-BBF5-410A-9D74-9E6094BFE839";
paths = (
{
closed = 1;
nodes = (
"268 0 LINE",
"268 822 LINE",
"388 888 OFFCURVE",
"479 895 OFFCURVE",
"553 895 CURVE SMOOTH",
"689 895 OFFCURVE",
"729 825 OFFCURVE",
"729 668 CURVE SMOOTH",
"729 0 LINE",
"857 0 LINE",
"857 663 LINE SMOOTH",
"857 891 OFFCURVE",
"763 1000 OFFCURVE",
"560 1000 CURVE SMOOTH",
"463 1000 OFFCURVE",
"389 985 OFFCURVE",
"254 921 CURVE",
"245 985 LINE",
"140 985 LINE",
"140 0 LINE"
);
}
);
width = 985;
}
);
unicode = 006E;
userData = {
com.fontlab.hintData = {
hhints = (
{
position = 0;
width = 21;
},
{
position = 895;
width = 105;
},
{
position = 965;
width = 20;
}
);
vhints = (
{
position = 140;
width = 128;
},
{
position = 140;
width = 105;
},
{
position = 729;
width = 128;
}
);
};
};
},
{
glyphname = eng;
layers = (
{
layerId = "1D628CB9-BBF5-410A-9D74-9E6094BFE839";
paths = (
{
closed = 1;
nodes = (
"685 -288 OFFCURVE",
"850 -206 OFFCURVE",
"850 128 CURVE SMOOTH",
"850 663 LINE SMOOTH",
"850 891 OFFCURVE",
"756 1000 OFFCURVE",
"553 1000 CURVE SMOOTH",
"456 1000 OFFCURVE",
"382 985 OFFCURVE",
"247 921 CURVE",
"238 985 LINE",
"133 985 LINE",
"133 0 LINE",
"261 0 LINE",
"261 822 LINE",
"381 888 OFFCURVE",
"472 895 OFFCURVE",
"546 895 CURVE SMOOTH",
"682 895 OFFCURVE",
"722 825 OFFCURVE",
"722 668 CURVE SMOOTH",
"722 108 LINE SMOOTH",
"722 -137 OFFCURVE",
"626 -184 OFFCURVE",
"426 -184 CURVE",
"425 -288 LINE"
);
}
);
width = 978;
}
);
unicode = 014B;
},
{
glyphname = o;
layers = (
{
anchors = (
{
name = bottom;
position = "{492, 0}";
},
{
name = center;
position = "{492, 493}";
},
{
name = ogonek;
position = "{625, 30}";
},
{
name = top;
position = "{492, 985}";
},
{
name = topright;
position = "{786, 664}";
}
);
layerId = "1D628CB9-BBF5-410A-9D74-9E6094BFE839";
paths = (
{
closed = 1;
nodes = (
"759 -10 OFFCURVE",
"876 182 OFFCURVE",
"876 495 CURVE SMOOTH",
"876 826 OFFCURVE",
"761 1000 OFFCURVE",
"492 1000 CURVE SMOOTH",
"223 1000 OFFCURVE",
"108 826 OFFCURVE",
"108 495 CURVE SMOOTH",
"108 182 OFFCURVE",
"225 -10 OFFCURVE",
"492 -10 CURVE SMOOTH"
);
},
{
closed = 1;
nodes = (
"292 96 OFFCURVE",
"236 257 OFFCURVE",
"236 495 CURVE SMOOTH",
"236 730 OFFCURVE",
"295 895 OFFCURVE",
"492 895 CURVE SMOOTH",
"689 895 OFFCURVE",
"748 730 OFFCURVE",
"748 495 CURVE SMOOTH",
"748 257 OFFCURVE",
"692 96 OFFCURVE",
"492 96 CURVE SMOOTH"
);
}
);
width = 984;
}
);
unicode = 006F;
userData = {
com.fontlab.hintData = {
hhints = (
{
position = -10;
width = 106;
},
{
position = 895;
width = 105;
}
);
vhints = (
{
position = 108;
width = 128;
},
{
position = 748;
width = 128;
}
);
};
};
},
{
glyphname = ohorn;
layers = (
{
anchors = (
{
name = _topright;
position = "{786, 664}";
},
{
name = bottom;
position = "{492, 0}";
},
{
name = center;
position = "{492, 493}";
},
{
name = ogonek;
position = "{625, 30}";
},
{
name = top;
position = "{492, 985}";
},
{
name = topright;
position = "{786, 664}";
}
);
layerId = "1D628CB9-BBF5-410A-9D74-9E6094BFE839";
paths = (
{
closed = 1;
nodes = (
"108 182 OFFCURVE",
"225 -10 OFFCURVE",
"492 -10 CURVE SMOOTH",
"759 -10 OFFCURVE",
"876 182 OFFCURVE",
"876 495 CURVE SMOOTH",
"876 616 OFFCURVE",
"861 716 OFFCURVE",
"828 794 CURVE",
"805 759 LINE",
"923 800 OFFCURVE",
"1024 859 OFFCURVE",
"1024 981 CURVE SMOOTH",
"1024 1021 OFFCURVE",
"1017 1053 OFFCURVE",
"1007 1079 CURVE",
"875 1079 LINE",
"888 1051 OFFCURVE",
"896 1020 OFFCURVE",
"896 989 CURVE SMOOTH",
"896 907 OFFCURVE",
"851 864 OFFCURVE",
"769 832 CURVE",
"816 820 LINE",
"757 939 OFFCURVE",
"651 1000 OFFCURVE",
"492 1000 CURVE SMOOTH",
"223 1000 OFFCURVE",
"108 826 OFFCURVE",
"108 495 CURVE SMOOTH"
);
},
{
closed = 1;
nodes = (
"236 730 OFFCURVE",
"295 895 OFFCURVE",
"492 895 CURVE SMOOTH",
"689 895 OFFCURVE",
"748 730 OFFCURVE",
"748 495 CURVE SMOOTH",
"748 257 OFFCURVE",
"692 96 OFFCURVE",
"492 96 CURVE SMOOTH",
"292 96 OFFCURVE",
"236 257 OFFCURVE",
"236 495 CURVE SMOOTH"
);
}
);
width = 984;
},
{
anchors = (
{
name = _topright;
position = "{786, 664}";
},
{
name = bottom;
position = "{492, 0}";
},
{
name = center;
position = "{492, 493}";
},
{
name = ogonek;
position = "{625, 30}";
},
{
name = top;
position = "{492, 985}";
},
{
name = topright;
position = "{786, 664}";
}
);
associatedMasterId = "1D628CB9-BBF5-410A-9D74-9E6094BFE839";
layerId = "507808C2-100D-496F-AF8E-12FACB515944";
name = "Regular Jul 25 16, 11:48";
paths = (
{
closed = 1;
nodes = (
"759 -10 OFFCURVE",
"876 182 OFFCURVE",
"876 495 CURVE SMOOTH",
"876 826 OFFCURVE",
"761 1000 OFFCURVE",
"492 1000 CURVE SMOOTH",
"223 1000 OFFCURVE",
"108 826 OFFCURVE",
"108 495 CURVE SMOOTH",
"108 182 OFFCURVE",
"225 -10 OFFCURVE",
"492 -10 CURVE SMOOTH"
);
},
{
closed = 1;
nodes = (
"292 96 OFFCURVE",
"236 257 OFFCURVE",
"236 495 CURVE SMOOTH",
"236 730 OFFCURVE",
"295 895 OFFCURVE",
"492 895 CURVE SMOOTH",
"689 895 OFFCURVE",
"748 730 OFFCURVE",
"748 495 CURVE SMOOTH",
"748 257 OFFCURVE",
"692 96 OFFCURVE",
"492 96 CURVE SMOOTH"
);
},
{
closed = 1;
nodes = (
"796 756 LINE SMOOTH",
"918 797 OFFCURVE",
"1024 856 OFFCURVE",
"1024 981 CURVE SMOOTH",
"1024 1021 OFFCURVE",
"1017 1053 OFFCURVE",
"1007 1079 CURVE",
"875 1079 LINE",
"888 1051 OFFCURVE",
"896 1020 OFFCURVE",
"896 989 CURVE SMOOTH",
"896 913 OFFCURVE",
"857 870 OFFCURVE",
"786 839 CURVE SMOOTH",
"751 824 LINE",
"751 741 LINE"
);
}
);
width = 984;
}
);
unicode = 01A1;
userData = {
com.schriftgestaltung.Glyphs.ColorIndex = 7;
};
},
{
glyphname = oslash;
layers = (
{
components = (
{
name = o;
}
);
layerId = "1D628CB9-BBF5-410A-9D74-9E6094BFE839";
paths = (
{
closed = 1;
nodes = (
"786 1076 LINE",
"715 1104 LINE",
"213 -91 LINE",
"285 -119 LINE"
);
}
);
width = 1016;
}
);
unicode = 00F8;
userData = {
com.fontlab.hintData = {
hhints = (
{
position = -10;
width = 106;
},
{
position = 895;
width = 105;
}
);
vhints = (
{
position = 108;
width = 128;
},
{
position = 748;
width = 128;
}
);
};
};
},
{
glyphname = oe;
layers = (
{
anchors = (
{
name = bottom;
position = "{802, 0}";
},
{
name = top;
position = "{802, 985}";
}
);
layerId = "1D628CB9-BBF5-410A-9D74-9E6094BFE839";
paths = (
{
closed = 1;
nodes = (
"650 -10 OFFCURVE",
"755 73 OFFCURVE",
"815 192 CURVE",
"887 62 OFFCURVE",
"1012 -10 OFFCURVE",
"1172 -10 CURVE SMOOTH",
"1267 -10 OFFCURVE",
"1388 16 OFFCURVE",
"1484 75 CURVE",
"1445 176 LINE",
"1352 117 OFFCURVE",
"1265 96 OFFCURVE",
"1165 96 CURVE SMOOTH",
"1019 96 OFFCURVE",
"880 162 OFFCURVE",
"876 469 CURVE",
"1494 469 LINE",
"1499 528 OFFCURVE",
"1502 574 OFFCURVE",
"1502 604 CURVE SMOOTH",
"1502 841 OFFCURVE",
"1369 1000 OFFCURVE",
"1147 1000 CURVE SMOOTH",
"1005 1000 OFFCURVE",
"888 931 OFFCURVE",
"818 806 CURVE",
"759 927 OFFCURVE",
"653 1000 OFFCURVE",
"492 1000 CURVE SMOOTH",
"223 1000 OFFCURVE",
"108 826 OFFCURVE",
"108 495 CURVE SMOOTH",
"108 182 OFFCURVE",
"225 -10 OFFCURVE",
"492 -10 CURVE SMOOTH"
);
},
{
closed = 1;
nodes = (
"292 96 OFFCURVE",
"236 257 OFFCURVE",
"236 495 CURVE SMOOTH",
"236 730 OFFCURVE",
"295 895 OFFCURVE",
"492 895 CURVE SMOOTH",
"689 895 OFFCURVE",
"748 730 OFFCURVE",
"748 495 CURVE SMOOTH",
"748 257 OFFCURVE",
"692 96 OFFCURVE",
"492 96 CURVE SMOOTH"
);
},
{
closed = 1;
nodes = (
"891 766 OFFCURVE",
"975 895 OFFCURVE",
"1148 895 CURVE SMOOTH",
"1293 895 OFFCURVE",
"1383 783 OFFCURVE",
"1383 609 CURVE SMOOTH",
"1383 559 LINE",
"876 559 LINE"
);
}
);
width = 1604;
}
);
unicode = 0153;
},
{
glyphname = p;
layers = (
{
anchors = (
{
name = bottom;
position = "{491, 0}";
},
{
name = top;
position = "{491, 985}";
}
);
layerId = "1D628CB9-BBF5-410A-9D74-9E6094BFE839";
paths = (
{
closed = 1;
nodes = (
"268 -389 LINE",
"268 43 LINE",
"347 4 OFFCURVE",
"439 -10 OFFCURVE",
"510 -10 CURVE SMOOTH",
"747 -10 OFFCURVE",
"876 126 OFFCURVE",
"876 493 CURVE SMOOTH",
"876 852 OFFCURVE",
"740 1000 OFFCURVE",
"540 1000 CURVE SMOOTH",
"457 1000 OFFCURVE",
"363 985 OFFCURVE",
"257 916 CURVE",
"245 985 LINE",
"140 985 LINE",
"140 -389 LINE"
);
},
{
closed = 1;
nodes = (
"408 96 OFFCURVE",
"350 99 OFFCURVE",
"268 137 CURVE",
"268 809 LINE",
"377 872 OFFCURVE",
"456 895 OFFCURVE",
"524 895 CURVE SMOOTH",
"681 895 OFFCURVE",
"748 767 OFFCURVE",
"748 491 CURVE SMOOTH",
"748 206 OFFCURVE",
"672 96 OFFCURVE",
"492 96 CURVE SMOOTH",
"463 96 LINE SMOOTH"
);
}
);
width = 982;
}
);
unicode = 0070;
},
{
glyphname = thorn;
layers = (
{
layerId = "1D628CB9-BBF5-410A-9D74-9E6094BFE839";
paths = (
{
closed = 1;
nodes = (
"268 -389 LINE",
"268 43 LINE",
"347 4 OFFCURVE",
"439 -10 OFFCURVE",
"510 -10 CURVE SMOOTH",
"747 -10 OFFCURVE",
"876 126 OFFCURVE",
"876 493 CURVE SMOOTH",
"876 852 OFFCURVE",
"740 1000 OFFCURVE",
"540 1000 CURVE SMOOTH",
"460 1000 OFFCURVE",
"370 985 OFFCURVE",
"268 916 CURVE",
"268 1301 LINE",
"140 1301 LINE",
"140 -389 LINE"
);
},
{
closed = 1;
nodes = (
"408 96 OFFCURVE",
"350 99 OFFCURVE",
"268 137 CURVE",
"268 809 LINE",
"377 872 OFFCURVE",
"456 895 OFFCURVE",
"524 895 CURVE SMOOTH",
"681 895 OFFCURVE",
"748 767 OFFCURVE",
"748 491 CURVE SMOOTH",
"748 206 OFFCURVE",
"672 96 OFFCURVE",
"492 96 CURVE SMOOTH",
"463 96 LINE SMOOTH"
);
}
);
width = 982;
}
);
unicode = 00FE;
},
{
glyphname = q;
layers = (
{
anchors = (
{
name = bottom;
position = "{492, 0}";
},
{
name = top;
position = "{492, 985}";
}
);
layerId = "1D628CB9-BBF5-410A-9D74-9E6094BFE839";
paths = (
{
closed = 1;
nodes = (
"844 -389 LINE",
"844 985 LINE",
"738 985 LINE",
"717 923 LINE",
"616 985 OFFCURVE",
"546 1000 OFFCURVE",
"462 1000 CURVE SMOOTH",
"257 1000 OFFCURVE",
"108 866 OFFCURVE",
"108 493 CURVE SMOOTH",
"108 126 OFFCURVE",
"244 -10 OFFCURVE",
"481 -10 CURVE SMOOTH",
"551 -10 OFFCURVE",
"642 0 OFFCURVE",
"716 42 CURVE",
"716 -389 LINE"
);
},
{
closed = 1;
nodes = (
"307 96 OFFCURVE",
"236 206 OFFCURVE",
"236 491 CURVE SMOOTH",
"236 767 OFFCURVE",
"317 895 OFFCURVE",
"474 895 CURVE SMOOTH",
"542 895 OFFCURVE",
"607 884 OFFCURVE",
"716 821 CURVE",
"716 137 LINE",
"628 97 OFFCURVE",
"550 96 OFFCURVE",
"487 96 CURVE SMOOTH"
);
}
);
width = 984;
}
);
unicode = 0071;
},
{
glyphname = r;
layers = (
{
anchors = (
{
name = bottom;
position = "{210, 0}";
},
{
name = top;
position = "{363, 985}";
}
);
layerId = "1D628CB9-BBF5-410A-9D74-9E6094BFE839";
paths = (
{
closed = 1;
nodes = (
"274 0 LINE",
"274 804 LINE",
"336 849 OFFCURVE",
"467 893 OFFCURVE",
"589 893 CURVE",
"589 1000 LINE",
"487 996 OFFCURVE",
"351 952 OFFCURVE",
"273 899 CURVE",
"268 985 LINE",
"146 985 LINE",
"146 0 LINE"
);
}
);
width = 651;
}
);
unicode = 0072;
},
{
glyphname = s;
layers = (
{
anchors = (
{
name = bottom;
position = "{419, 0}";
},
{
name = cedilla;
position = "{412, 0}";
},
{
name = top;
position = "{419, 985}";
}
);
layerId = "1D628CB9-BBF5-410A-9D74-9E6094BFE839";
paths = (
{
closed = 1;
nodes = (
"609 -10 OFFCURVE",
"762 63 OFFCURVE",
"762 271 CURVE SMOOTH",
"762 432 OFFCURVE",
"694 491 OFFCURVE",
"541 540 CURVE SMOOTH",
"394 587 LINE SMOOTH",
"298 618 OFFCURVE",
"245 637 OFFCURVE",
"245 730 CURVE SMOOTH",
"245 852 OFFCURVE",
"344 895 OFFCURVE",
"456 895 CURVE SMOOTH",
"532 895 OFFCURVE",
"614 875 OFFCURVE",
"675 846 CURVE",
"713 942 LINE",
"635 978 OFFCURVE",
"539 1000 OFFCURVE",
"447 1000 CURVE SMOOTH",
"277 1000 OFFCURVE",
"123 926 OFFCURVE",
"123 735 CURVE SMOOTH",
"123 568 OFFCURVE",
"211 518 OFFCURVE",
"356 472 CURVE SMOOTH",
"506 425 LINE SMOOTH",
"587 400 OFFCURVE",
"637 364 OFFCURVE",
"637 265 CURVE SMOOTH",
"637 137 OFFCURVE",
"542 96 OFFCURVE",
"432 96 CURVE SMOOTH",
"328 96 OFFCURVE",
"211 133 OFFCURVE",
"150 167 CURVE",
"109 69 LINE",
"206 22 OFFCURVE",
"327 -10 OFFCURVE",
"438 -10 CURVE SMOOTH"
);
}
);
width = 838;
}
);
unicode = 0073;
},
{
glyphname = germandbls;
layers = (
{
layerId = "1D628CB9-BBF5-410A-9D74-9E6094BFE839";
paths = (
{
closed = 1;
nodes = (
"788 -10 OFFCURVE",
"933 77 OFFCURVE",
"933 270 CURVE SMOOTH",
"933 558 OFFCURVE",
"537 557 OFFCURVE",
"537 674 CURVE SMOOTH",
"537 733 OFFCURVE",
"644 795 OFFCURVE",
"830 855 CURVE",
"830 1151 OFFCURVE",
"762 1301 OFFCURVE",
"481 1301 CURVE SMOOTH",
"245 1301 OFFCURVE",
"133 1172 OFFCURVE",
"133 912 CURVE SMOOTH",
"133 0 LINE",
"261 0 LINE",
"261 901 LINE SMOOTH",
"261 1100 OFFCURVE",
"322 1195 OFFCURVE",
"477 1195 CURVE SMOOTH",
"649 1195 OFFCURVE",
"693 1122 OFFCURVE",
"693 922 CURVE",
"544 850 OFFCURVE",
"411 784 OFFCURVE",
"411 664 CURVE SMOOTH",
"411 464 OFFCURVE",
"802 514 OFFCURVE",
"802 279 CURVE SMOOTH",
"802 150 OFFCURVE",
"716 95 OFFCURVE",
"611 95 CURVE SMOOTH",
"549 95 OFFCURVE",
"480 117 OFFCURVE",
"418 156 CURVE",
"380 66 LINE",
"455 16 OFFCURVE",
"541 -10 OFFCURVE",
"622 -10 CURVE SMOOTH"
);
}
);
width = 997;
}
);
unicode = 00DF;
},
{
glyphname = t;
layers = (
{
anchors = (
{
name = bottom;
position = "{450, 0}";
},
{
name = cedilla;
position = "{467, 0}";
},
{
name = top;
position = "{486, 1267}";
},
{
name = topright;
position = "{473, 1428}";
}
);
layerId = "1D628CB9-BBF5-410A-9D74-9E6094BFE839";
paths = (
{
closed = 1;
nodes = (
"533 -10 OFFCURVE",
"597 -8 OFFCURVE",
"661 0 CURVE",
"656 103 LINE",
"629 99 OFFCURVE",
"568 96 OFFCURVE",
"506 96 CURVE SMOOTH",
"400 96 OFFCURVE",
"337 123 OFFCURVE",
"337 386 CURVE SMOOTH",
"337 895 LINE",
"645 895 LINE",
"645 985 LINE",
"337 985 LINE",
"337 1267 LINE",
"238 1267 LINE",
"213 985 LINE",
"56 985 LINE",
"56 895 LINE",
"209 895 LINE",
"209 388 LINE SMOOTH",
"209 119 OFFCURVE",
"258 -4 OFFCURVE",
"472 -10 CURVE"
);
}
);
width = 742;
}
);
unicode = 0074;
},
{
glyphname = tbar;
layers = (
{
layerId = "1D628CB9-BBF5-410A-9D74-9E6094BFE839";
paths = (
{
closed = 1;
nodes = (
"533 -10 OFFCURVE",
"597 -8 OFFCURVE",
"661 0 CURVE",
"656 103 LINE",
"629 99 OFFCURVE",
"568 96 OFFCURVE",
"506 96 CURVE SMOOTH",
"400 96 OFFCURVE",
"337 123 OFFCURVE",
"337 386 CURVE SMOOTH",
"337 551 LINE",
"560 551 LINE",
"560 644 LINE",
"337 644 LINE",
"337 895 LINE",
"645 895 LINE",
"645 985 LINE",
"337 985 LINE",
"337 1267 LINE",
"238 1267 LINE",
"213 985 LINE",
"56 985 LINE",
"56 895 LINE",
"209 895 LINE",
"209 644 LINE",
"72 644 LINE",
"72 551 LINE",
"209 551 LINE",
"209 388 LINE SMOOTH",
"209 119 OFFCURVE",
"258 -4 OFFCURVE",
"472 -10 CURVE"
);
}
);
width = 742;
}
);
unicode = 0167;
},
{
glyphname = u;
layers = (
{
anchors = (
{
name = bottom;
position = "{493, 0}";
},
{
name = ogonek;
position = "{795, 0}";
},
{
name = top;
position = "{493, 985}";
},
{
name = topright;
position = "{850, 664}";
}
);
layerId = "1D628CB9-BBF5-410A-9D74-9E6094BFE839";
paths = (
{
closed = 1;
nodes = (
"519 -10 OFFCURVE",
"596 0 OFFCURVE",
"731 64 CURVE",
"740 0 LINE",
"845 0 LINE",
"845 985 LINE",
"717 985 LINE",
"717 163 LINE",
"597 97 OFFCURVE",
"509 96 OFFCURVE",
"435 96 CURVE SMOOTH",
"299 96 OFFCURVE",
"256 159 OFFCURVE",
"256 316 CURVE SMOOTH",
"256 985 LINE",
"128 985 LINE",
"128 321 LINE SMOOTH",
"128 93 OFFCURVE",
"219 -10 OFFCURVE",
"422 -10 CURVE SMOOTH"
);
}
);
width = 986;
}
);
unicode = 0075;
},
{
glyphname = uhorn;
layers = (
{
anchors = (
{
name = _topright;
position = "{850, 664}";
},
{
name = bottom;
position = "{493, 0}";
},
{
name = ogonek;
position = "{795, 0}";
},
{
name = top;
position = "{493, 985}";
},
{
name = topright;
position = "{850, 664}";
}
);
layerId = "1D628CB9-BBF5-410A-9D74-9E6094BFE839";
paths = (
{
closed = 1;
nodes = (
"128 93 OFFCURVE",
"219 -10 OFFCURVE",
"422 -10 CURVE SMOOTH",
"519 -10 OFFCURVE",
"596 0 OFFCURVE",
"731 64 CURVE",
"740 0 LINE",
"845 0 LINE",
"845 776 LINE",
"802 737 LINE",
"860 756 LINE SMOOTH",
"982 797 OFFCURVE",
"1088 856 OFFCURVE",
"1088 981 CURVE SMOOTH",
"1088 1021 OFFCURVE",
"1081 1053 OFFCURVE",
"1071 1079 CURVE",
"939 1079 LINE",
"952 1051 OFFCURVE",
"960 1020 OFFCURVE",
"960 989 CURVE SMOOTH",
"960 913 OFFCURVE",
"921 870 OFFCURVE",
"850 839 CURVE SMOOTH",
"804 819 LINE",
"845 814 LINE",
"845 985 LINE",
"717 985 LINE",
"717 163 LINE",
"597 97 OFFCURVE",
"509 96 OFFCURVE",
"435 96 CURVE SMOOTH",
"299 96 OFFCURVE",
"256 159 OFFCURVE",
"256 316 CURVE SMOOTH",
"256 985 LINE",
"128 985 LINE",
"128 321 LINE SMOOTH"
);
}
);
width = 1038;
},
{
anchors = (
{
name = _topright;
position = "{850, 664}";
},
{
name = bottom;
position = "{493, 0}";
},
{
name = ogonek;
position = "{795, 0}";
},
{
name = top;
position = "{493, 985}";
},
{
name = topright;
position = "{850, 664}";
}
);
associatedMasterId = "1D628CB9-BBF5-410A-9D74-9E6094BFE839";
layerId = "20967BB6-E54A-4AF0-99B3-39F9609A1E13";
name = "Regular Jul 25 16, 11:48";
paths = (
{
closed = 1;
nodes = (
"519 -10 OFFCURVE",
"596 0 OFFCURVE",
"731 64 CURVE",
"740 0 LINE",
"845 0 LINE",
"845 985 LINE",
"717 985 LINE",
"717 163 LINE",
"597 97 OFFCURVE",
"509 96 OFFCURVE",
"435 96 CURVE SMOOTH",
"299 96 OFFCURVE",
"256 159 OFFCURVE",
"256 316 CURVE SMOOTH",
"256 985 LINE",
"128 985 LINE",
"128 321 LINE SMOOTH",
"128 93 OFFCURVE",
"219 -10 OFFCURVE",
"422 -10 CURVE SMOOTH"
);
},
{
closed = 1;
nodes = (
"860 756 LINE SMOOTH",
"982 797 OFFCURVE",
"1088 856 OFFCURVE",
"1088 981 CURVE SMOOTH",
"1088 1021 OFFCURVE",
"1081 1053 OFFCURVE",
"1071 1079 CURVE",
"939 1079 LINE",
"952 1051 OFFCURVE",
"960 1020 OFFCURVE",
"960 989 CURVE SMOOTH",
"960 913 OFFCURVE",
"921 870 OFFCURVE",
"850 839 CURVE SMOOTH",
"815 824 LINE",
"815 741 LINE"
);
}
);
width = 986;
}
);
unicode = 01B0;
userData = {
com.schriftgestaltung.Glyphs.ColorIndex = 7;
};
},
{
glyphname = v;
layers = (
{
anchors = (
{
name = bottom;
position = "{456, 0}";
},
{
name = top;
position = "{456, 985}";
}
);
layerId = "1D628CB9-BBF5-410A-9D74-9E6094BFE839";
paths = (
{
closed = 1;
nodes = (
"531 0 LINE",
"847 985 LINE",
"716 985 LINE",
"463 137 LINE",
"195 985 LINE",
"65 985 LINE",
"394 0 LINE"
);
}
);
width = 912;
}
);
unicode = 0076;
},
{
glyphname = w;
layers = (
{
anchors = (
{
name = bottom;
position = "{649, 0}";
},
{
name = top;
position = "{649, 985}";
}
);
layerId = "1D628CB9-BBF5-410A-9D74-9E6094BFE839";
paths = (
{
closed = 1;
nodes = (
"446 0 LINE",
"657 627 LINE",
"869 0 LINE",
"1009 0 LINE",
"1233 985 LINE",
"1108 985 LINE",
"930 113 LINE",
"716 763 LINE",
"598 763 LINE",
"381 113 LINE",
"190 985 LINE",
"65 985 LINE",
"304 0 LINE"
);
}
);
width = 1298;
}
);
unicode = 0077;
},
{
glyphname = x;
layers = (
{
anchors = (
{
name = bottom;
position = "{422, 0}";
},
{
name = top;
position = "{422, 985}";
}
);
layerId = "1D628CB9-BBF5-410A-9D74-9E6094BFE839";
paths = (
{
closed = 1;
nodes = (
"188 0 LINE",
"428 423 LINE",
"664 0 LINE",
"786 0 LINE",
"501 503 LINE",
"767 985 LINE",
"639 985 LINE",
"427 579 LINE",
"196 985 LINE",
"70 985 LINE",
"355 504 LINE",
"58 0 LINE"
);
}
);
width = 844;
}
);
unicode = 0078;
},
{
glyphname = y;
layers = (
{
anchors = (
{
name = bottom;
position = "{712, 0}";
},
{
name = top;
position = "{482, 985}";
}
);
layerId = "1D628CB9-BBF5-410A-9D74-9E6094BFE839";
paths = (
{
closed = 1;
nodes = (
"432 -390 OFFCURVE",
"486 -254 OFFCURVE",
"568 -16 CURVE SMOOTH",
"914 985 LINE",
"778 985 LINE",
"513 166 LINE",
"513 166 OFFCURVE",
"203 948 OFFCURVE",
"189 985 CURVE",
"52 985 LINE",
"457 26 LINE",
"430 -55 LINE SMOOTH",
"392 -169 OFFCURVE",
"367 -279 OFFCURVE",
"276 -279 CURVE SMOOTH",
"246 -279 OFFCURVE",
"201 -270 OFFCURVE",
"141 -252 CURVE",
"140 -253 LINE",
"120 -355 LINE",
"180 -378 OFFCURVE",
"234 -390 OFFCURVE",
"285 -390 CURVE SMOOTH"
);
}
);
width = 963;
}
);
unicode = 0079;
},
{
glyphname = z;
layers = (
{
anchors = (
{
name = bottom;
position = "{400, 0}";
},
{
name = top;
position = "{434, 985}";
}
);
layerId = "1D628CB9-BBF5-410A-9D74-9E6094BFE839";
paths = (
{
closed = 1;
nodes = (
"725 0 LINE",
"725 90 LINE",
"260 90 LINE",
"710 900 LINE",
"700 985 LINE",
"130 985 LINE",
"130 895 LINE",
"571 895 LINE",
"119 96 LINE",
"133 0 LINE"
);
}
);
width = 799;
}
);
unicode = 007A;
},
{
glyphname = f_f;
layers = (
{
layerId = "1D628CB9-BBF5-410A-9D74-9E6094BFE839";
paths = (
{
closed = 1;
nodes = (
"382 0 LINE",
"382 893 LINE",
"840 893 LINE",
"840 0 LINE",
"968 0 LINE",
"968 893 LINE",
"1192 893 LINE",
"1192 985 LINE",
"968 985 LINE",
"968 1250 OFFCURVE",
"1011 1289 OFFCURVE",
"1127 1289 CURVE SMOOTH",
"1165 1289 OFFCURVE",
"1246 1274 OFFCURVE",
"1268 1268 CURVE",
"1284 1368 LINE",
"1217 1391 OFFCURVE",
"1155 1394 OFFCURVE",
"1099 1394 CURVE",
"886 1387 OFFCURVE",
"840 1271 OFFCURVE",
"840 985 CURVE",
"382 985 LINE",
"382 1250 OFFCURVE",
"425 1289 OFFCURVE",
"541 1289 CURVE SMOOTH",
"579 1289 OFFCURVE",
"660 1274 OFFCURVE",
"682 1268 CURVE",
"698 1368 LINE",
"631 1391 OFFCURVE",
"569 1394 OFFCURVE",
"513 1394 CURVE",
"300 1387 OFFCURVE",
"254 1271 OFFCURVE",
"254 985 CURVE",
"62 985 LINE",
"62 893 LINE",
"254 893 LINE",
"254 0 LINE"
);
}
);
width = 1272;
}
);
},
{
glyphname = f_f_i;
layers = (
{
layerId = "1D628CB9-BBF5-410A-9D74-9E6094BFE839";
paths = (
{
closed = 1;
nodes = (
"382 0 LINE",
"382 893 LINE",
"897 895 LINE",
"897 0 LINE",
"1025 0 LINE",
"1025 895 LINE",
"1574 895 LINE",
"1574 90 LINE",
"1382 90 LINE",
"1382 0 LINE",
"1894 0 LINE",
"1894 90 LINE",
"1702 90 LINE",
"1702 985 LINE",
"1025 985 LINE",
"1025 1250 OFFCURVE",
"1068 1289 OFFCURVE",
"1184 1289 CURVE SMOOTH",
"1222 1289 OFFCURVE",
"1303 1274 OFFCURVE",
"1325 1268 CURVE",
"1341 1368 LINE",
"1274 1391 OFFCURVE",
"1212 1394 OFFCURVE",
"1156 1394 CURVE",
"943 1387 OFFCURVE",
"897 1271 OFFCURVE",
"897 985 CURVE",
"382 985 LINE",
"382 1250 OFFCURVE",
"424 1289 OFFCURVE",
"540 1289 CURVE SMOOTH",
"578 1289 OFFCURVE",
"660 1274 OFFCURVE",
"682 1268 CURVE",
"698 1368 LINE",
"631 1391 OFFCURVE",
"568 1394 OFFCURVE",
"512 1394 CURVE",
"299 1387 OFFCURVE",
"254 1271 OFFCURVE",
"254 985 CURVE",
"62 985 LINE",
"62 893 LINE",
"254 893 LINE",
"254 0 LINE"
);
},
{
closed = 1;
nodes = (
"1691 1176 OFFCURVE",
"1728 1206 OFFCURVE",
"1728 1266 CURVE SMOOTH",
"1728 1326 OFFCURVE",
"1691 1356 OFFCURVE",
"1638 1356 CURVE SMOOTH",
"1587 1356 OFFCURVE",
"1547 1321 OFFCURVE",
"1547 1264 CURVE SMOOTH",
"1547 1208 OFFCURVE",
"1587 1176 OFFCURVE",
"1638 1176 CURVE SMOOTH"
);
}
);
width = 1944;
}
);
},
{
glyphname = f_f_ij;
layers = (
{
layerId = "1D628CB9-BBF5-410A-9D74-9E6094BFE839";
paths = (
{
closed = 1;
nodes = (
"382 0 LINE",
"382 893 LINE",
"897 895 LINE",
"897 0 LINE",
"1025 0 LINE",
"1025 895 LINE",
"1574 895 LINE",
"1574 90 LINE",
"1382 90 LINE",
"1382 0 LINE",
"1894 0 LINE",
"1894 90 LINE",
"1702 90 LINE",
"1702 985 LINE",
"1025 985 LINE",
"1025 1250 OFFCURVE",
"1068 1289 OFFCURVE",
"1184 1289 CURVE SMOOTH",
"1222 1289 OFFCURVE",
"1303 1274 OFFCURVE",
"1325 1268 CURVE",
"1341 1368 LINE",
"1274 1391 OFFCURVE",
"1212 1394 OFFCURVE",
"1156 1394 CURVE",
"943 1387 OFFCURVE",
"897 1271 OFFCURVE",
"897 985 CURVE",
"382 985 LINE",
"382 1250 OFFCURVE",
"424 1289 OFFCURVE",
"540 1289 CURVE SMOOTH",
"578 1289 OFFCURVE",
"660 1274 OFFCURVE",
"682 1268 CURVE",
"698 1368 LINE",
"631 1391 OFFCURVE",
"568 1394 OFFCURVE",
"512 1394 CURVE",
"299 1387 OFFCURVE",
"254 1271 OFFCURVE",
"254 985 CURVE",
"62 985 LINE",
"62 893 LINE",
"254 893 LINE",
"254 0 LINE"
);
},
{
closed = 1;
nodes = (
"2320 -295 OFFCURVE",
"2409 -203 OFFCURVE",
"2409 18 CURVE SMOOTH",
"2409 985 LINE",
"2057 985 LINE",
"2057 895 LINE",
"2281 895 LINE",
"2281 28 LINE SMOOTH",
"2281 -123 OFFCURVE",
"2257 -182 OFFCURVE",
"2144 -182 CURVE SMOOTH",
"2081 -182 OFFCURVE",
"2041 -177 OFFCURVE",
"1996 -166 CURVE",
"1980 -275 LINE",
"2035 -291 OFFCURVE",
"2091 -295 OFFCURVE",
"2148 -295 CURVE SMOOTH"
);
},
{
closed = 1;
nodes = (
"1691 1176 OFFCURVE",
"1728 1206 OFFCURVE",
"1728 1266 CURVE SMOOTH",
"1728 1326 OFFCURVE",
"1691 1356 OFFCURVE",
"1638 1356 CURVE SMOOTH",
"1587 1356 OFFCURVE",
"1547 1321 OFFCURVE",
"1547 1264 CURVE SMOOTH",
"1547 1208 OFFCURVE",
"1587 1176 OFFCURVE",
"1638 1176 CURVE SMOOTH"
);
},
{
closed = 1;
nodes = (
"2396 1176 OFFCURVE",
"2433 1206 OFFCURVE",
"2433 1266 CURVE SMOOTH",
"2433 1326 OFFCURVE",
"2396 1356 OFFCURVE",
"2343 1356 CURVE SMOOTH",
"2292 1356 OFFCURVE",
"2252 1321 OFFCURVE",
"2252 1264 CURVE SMOOTH",
"2252 1208 OFFCURVE",
"2292 1176 OFFCURVE",
"2343 1176 CURVE SMOOTH"
);
}
);
width = 2568;
}
);
leftMetricsKey = f;
rightMetricsKey = "=j";
userData = {
com.schriftgestaltung.Glyphs.leftMetricsKey = f;
com.schriftgestaltung.Glyphs.rightMetricsKey = "=j";
};
},
{
glyphname = f_f_l;
layers = (
{
layerId = "1D628CB9-BBF5-410A-9D74-9E6094BFE839";
paths = (
{
closed = 1;
nodes = (
"382 0 LINE",
"382 893 LINE",
"842 893 LINE",
"842 0 LINE",
"970 0 LINE",
"970 893 LINE",
"1194 893 LINE",
"1194 985 LINE",
"970 985 LINE",
"970 1231 OFFCURVE",
"1037 1267 OFFCURVE",
"1219 1267 CURVE SMOOTH",
"1532 1267 LINE",
"1532 90 LINE",
"1309 90 LINE",
"1309 0 LINE",
"1871 0 LINE",
"1871 90 LINE",
"1660 90 LINE",
"1660 1358 LINE",
"1191 1358 LINE SMOOTH",
"904 1358 OFFCURVE",
"842 1246 OFFCURVE",
"842 985 CURVE",
"382 985 LINE",
"382 1250 OFFCURVE",
"425 1289 OFFCURVE",
"541 1289 CURVE SMOOTH",
"579 1289 OFFCURVE",
"660 1274 OFFCURVE",
"682 1268 CURVE",
"698 1368 LINE",
"631 1391 OFFCURVE",
"569 1394 OFFCURVE",
"513 1394 CURVE",
"300 1387 OFFCURVE",
"254 1271 OFFCURVE",
"254 985 CURVE",
"62 985 LINE",
"62 893 LINE",
"254 893 LINE",
"254 0 LINE"
);
}
);
width = 1921;
}
);
},
{
glyphname = f_ij;
layers = (
{
layerId = "1D628CB9-BBF5-410A-9D74-9E6094BFE839";
paths = (
{
closed = 1;
nodes = (
"382 0 LINE",
"382 895 LINE",
"947 895 LINE",
"947 90 LINE",
"755 90 LINE",
"755 0 LINE",
"1267 0 LINE",
"1267 90 LINE",
"1075 90 LINE",
"1075 985 LINE",
"382 985 LINE",
"382 1250 OFFCURVE",
"425 1289 OFFCURVE",
"541 1289 CURVE SMOOTH",
"579 1289 OFFCURVE",
"660 1274 OFFCURVE",
"682 1268 CURVE",
"698 1368 LINE",
"631 1391 OFFCURVE",
"569 1394 OFFCURVE",
"513 1394 CURVE",
"300 1387 OFFCURVE",
"254 1271 OFFCURVE",
"254 985 CURVE",
"62 985 LINE",
"62 895 LINE",
"254 895 LINE",
"254 0 LINE"
);
},
{
closed = 1;
nodes = (
"1693 -295 OFFCURVE",
"1782 -203 OFFCURVE",
"1782 18 CURVE SMOOTH",
"1782 985 LINE",
"1430 985 LINE",
"1430 895 LINE",
"1654 895 LINE",
"1654 28 LINE SMOOTH",
"1654 -123 OFFCURVE",
"1630 -182 OFFCURVE",
"1517 -182 CURVE SMOOTH",
"1454 -182 OFFCURVE",
"1414 -177 OFFCURVE",
"1369 -166 CURVE",
"1353 -275 LINE",
"1408 -291 OFFCURVE",
"1464 -295 OFFCURVE",
"1521 -295 CURVE SMOOTH"
);
},
{
closed = 1;
nodes = (
"1064 1176 OFFCURVE",
"1101 1206 OFFCURVE",
"1101 1266 CURVE SMOOTH",
"1101 1326 OFFCURVE",
"1064 1356 OFFCURVE",
"1011 1356 CURVE SMOOTH",
"960 1356 OFFCURVE",
"920 1321 OFFCURVE",
"920 1264 CURVE SMOOTH",
"920 1208 OFFCURVE",
"960 1176 OFFCURVE",
"1011 1176 CURVE SMOOTH"
);
},
{
closed = 1;
nodes = (
"1769 1176 OFFCURVE",
"1806 1206 OFFCURVE",
"1806 1266 CURVE SMOOTH",
"1806 1326 OFFCURVE",
"1769 1356 OFFCURVE",
"1716 1356 CURVE SMOOTH",
"1665 1356 OFFCURVE",
"1625 1321 OFFCURVE",
"1625 1264 CURVE SMOOTH",
"1625 1208 OFFCURVE",
"1665 1176 OFFCURVE",
"1716 1176 CURVE SMOOTH"
);
}
);
width = 1941;
}
);
leftMetricsKey = f;
rightMetricsKey = "=j";
userData = {
com.schriftgestaltung.Glyphs.leftMetricsKey = f;
com.schriftgestaltung.Glyphs.rightMetricsKey = "=j";
};
},
{
glyphname = fi;
layers = (
{
layerId = "1D628CB9-BBF5-410A-9D74-9E6094BFE839";
paths = (
{
closed = 1;
nodes = (
"382 0 LINE",
"382 895 LINE",
"947 895 LINE",
"947 90 LINE",
"755 90 LINE",
"755 0 LINE",
"1267 0 LINE",
"1267 90 LINE",
"1075 90 LINE",
"1075 985 LINE",
"382 985 LINE",
"382 1250 OFFCURVE",
"425 1289 OFFCURVE",
"541 1289 CURVE SMOOTH",
"579 1289 OFFCURVE",
"660 1274 OFFCURVE",
"682 1268 CURVE",
"698 1368 LINE",
"631 1391 OFFCURVE",
"569 1394 OFFCURVE",
"513 1394 CURVE",
"300 1387 OFFCURVE",
"254 1271 OFFCURVE",
"254 985 CURVE",
"62 985 LINE",
"62 895 LINE",
"254 895 LINE",
"254 0 LINE"
);
},
{
closed = 1;
nodes = (
"1064 1176 OFFCURVE",
"1101 1206 OFFCURVE",
"1101 1266 CURVE SMOOTH",
"1101 1326 OFFCURVE",
"1064 1356 OFFCURVE",
"1011 1356 CURVE SMOOTH",
"960 1356 OFFCURVE",
"920 1321 OFFCURVE",
"920 1264 CURVE SMOOTH",
"920 1208 OFFCURVE",
"960 1176 OFFCURVE",
"1011 1176 CURVE SMOOTH"
);
}
);
width = 1317;
}
);
unicode = FB01;
},
{
glyphname = fl;
layers = (
{
layerId = "1D628CB9-BBF5-410A-9D74-9E6094BFE839";
paths = (
{
closed = 1;
nodes = (
"382 0 LINE",
"382 893 LINE",
"606 893 LINE",
"606 985 LINE",
"382 985 LINE",
"382 1231 OFFCURVE",
"449 1267 OFFCURVE",
"631 1267 CURVE SMOOTH",
"979 1267 LINE",
"979 90 LINE",
"756 90 LINE",
"756 0 LINE",
"1318 0 LINE",
"1318 90 LINE",
"1107 90 LINE",
"1107 1358 LINE",
"603 1358 LINE SMOOTH",
"316 1358 OFFCURVE",
"254 1246 OFFCURVE",
"254 985 CURVE",
"62 985 LINE",
"62 893 LINE",
"254 893 LINE",
"254 0 LINE"
);
}
);
width = 1368;
}
);
unicode = FB02;
},
{
glyphname = ordfeminine;
layers = (
{
layerId = "1D628CB9-BBF5-410A-9D74-9E6094BFE839";
paths = (
{
closed = 1;
nodes = (
"382 680 OFFCURVE",
"444 707 OFFCURVE",
"503 762 CURVE",
"506 725 OFFCURVE",
"517 699 OFFCURVE",
"536 683 CURVE",
"546 683 OFFCURVE",
"569 686 OFFCURVE",
"605 693 CURVE",
"598 789 LINE",
"584 801 OFFCURVE",
"586 814 OFFCURVE",
"586 845 CURVE SMOOTH",
"586 1074 LINE SMOOTH",
"586 1286 OFFCURVE",
"538 1353 OFFCURVE",
"379 1353 CURVE SMOOTH",
"282 1353 OFFCURVE",
"205 1324 OFFCURVE",
"149 1265 CURVE",
"191 1197 LINE",
"224 1242 OFFCURVE",
"278 1258 OFFCURVE",
"359 1265 CURVE",
"360 1264 LINE",
"381 1264 LINE SMOOTH",
"484 1264 OFFCURVE",
"494 1199 OFFCURVE",
"496 1083 CURVE",
"468 1083 OFFCURVE",
"382 1085 OFFCURVE",
"349 1085 CURVE",
"205 1078 OFFCURVE",
"128 1024 OFFCURVE",
"128 881 CURVE SMOOTH",
"128 753 OFFCURVE",
"196 680 OFFCURVE",
"316 680 CURVE SMOOTH"
);
},
{
closed = 1;
nodes = (
"254 769 OFFCURVE",
"220 798 OFFCURVE",
"220 886 CURVE SMOOTH",
"220 1001 OFFCURVE",
"307 1004 OFFCURVE",
"409 1004 CURVE SMOOTH",
"424 1004 LINE SMOOTH",
"496 1007 LINE",
"496 863 LINE",
"460 800 OFFCURVE",
"408 769 OFFCURVE",
"338 769 CURVE SMOOTH"
);
}
);
width = 740;
}
);
unicode = 00AA;
},
{
glyphname = ordmasculine;
layers = (
{
layerId = "1D628CB9-BBF5-410A-9D74-9E6094BFE839";
paths = (
{
closed = 1;
nodes = (
"556 679 OFFCURVE",
"626 806 OFFCURVE",
"626 1017 CURVE SMOOTH",
"626 1237 OFFCURVE",
"553 1349 OFFCURVE",
"373 1349 CURVE",
"373 1350 LINE",
"193 1350 OFFCURVE",
"123 1224 OFFCURVE",
"123 1015 CURVE SMOOTH",
"123 778 OFFCURVE",
"216 679 OFFCURVE",
"373 679 CURVE SMOOTH"
);
},
{
closed = 1;
nodes = (
"244 768 OFFCURVE",
"215 857 OFFCURVE",
"215 1016 CURVE SMOOTH",
"215 1190 OFFCURVE",
"246 1264 OFFCURVE",
"373 1264 CURVE SMOOTH",
"501 1264 OFFCURVE",
"534 1185 OFFCURVE",
"534 1016 CURVE SMOOTH",
"534 843 OFFCURVE",
"504 768 OFFCURVE",
"373 768 CURVE SMOOTH"
);
}
);
width = 754;
}
);
unicode = 00BA;
},
{
glyphname = Delta;
layers = (
{
layerId = "1D628CB9-BBF5-410A-9D74-9E6094BFE839";
paths = (
{
closed = 1;
nodes = (
"970 0 LINE",
"640 1339 LINE",
"464 1339 LINE",
"113 0 LINE"
);
},
{
closed = 1;
nodes = (
"539 1245 LINE",
"563 1245 LINE",
"838 102 LINE",
"246 102 LINE"
);
}
);
width = 1082;
}
);
unicode = 0394;
},
{
glyphname = Omega;
layers = (
{
layerId = "1D628CB9-BBF5-410A-9D74-9E6094BFE839";
paths = (
{
closed = 1;
nodes = (
"899 0 LINE",
"899 102 LINE",
"716 102 LINE",
"863 214 OFFCURVE",
"913 396 OFFCURVE",
"913 710 CURVE SMOOTH",
"913 1085 OFFCURVE",
"846 1363 OFFCURVE",
"526 1363 CURVE SMOOTH",
"194 1363 OFFCURVE",
"139 1071 OFFCURVE",
"139 675 CURVE SMOOTH",
"139 391 OFFCURVE",
"193 211 OFFCURVE",
"336 103 CURVE",
"336 93 LINE",
"165 93 LINE",
"165 1 LINE",
"473 1 LINE",
"473 103 LINE",
"344 153 OFFCURVE",
"275 318 OFFCURVE",
"251 570 CURVE",
"246 763 LINE",
"246 1029 OFFCURVE",
"296 1249 OFFCURVE",
"526 1256 CURVE",
"772 1245 OFFCURVE",
"804 1025 OFFCURVE",
"804 660 CURVE",
"805 659 LINE",
"805 413 OFFCURVE",
"740 158 OFFCURVE",
"580 102 CURVE",
"580 0 LINE"
);
}
);
width = 1055;
}
);
unicode = 03A9;
},
{
glyphname = mu;
layers = (
{
layerId = "1D628CB9-BBF5-410A-9D74-9E6094BFE839";
paths = (
{
closed = 1;
nodes = (
"256 -269 OFFCURVE",
"268 -183 OFFCURVE",
"268 -68 CURVE",
"262 55 LINE",
"298 8 OFFCURVE",
"366 -23 OFFCURVE",
"441 -23 CURVE SMOOTH",
"520 -23 OFFCURVE",
"585 4 OFFCURVE",
"648 43 CURVE",
"733 100 LINE",
"733 0 LINE",
"839 0 LINE",
"839 985 LINE",
"730 985 LINE",
"730 414 LINE SMOOTH",
"730 352 OFFCURVE",
"724 274 OFFCURVE",
"711 180 CURVE",
"615 120 OFFCURVE",
"555 92 OFFCURVE",
"454 92 CURVE SMOOTH",
"321 92 OFFCURVE",
"271 177 OFFCURVE",
"271 344 CURVE SMOOTH",
"271 985 LINE",
"160 985 LINE",
"160 -66 LINE SMOOTH",
"160 -162 OFFCURVE",
"151 -243 OFFCURVE",
"132 -309 CURVE",
"133 -309 LINE",
"231 -328 LINE"
);
}
);
width = 985;
}
);
unicode = 03BC;
},
{
glyphname = pi;
layers = (
{
layerId = "1D628CB9-BBF5-410A-9D74-9E6094BFE839";
paths = (
{
closed = 1;
nodes = (
"382 0 LINE",
"413 297 OFFCURVE",
"430 600 OFFCURVE",
"435 909 CURVE",
"793 909 LINE",
"793 270 LINE SMOOTH",
"793 178 OFFCURVE",
"797 88 OFFCURVE",
"804 0 CURVE",
"917 0 LINE",
"910 83 OFFCURVE",
"906 177 OFFCURVE",
"906 280 CURVE SMOOTH",
"906 910 LINE",
"1084 910 LINE",
"1084 1019 LINE",
"382 1019 LINE SMOOTH",
"274 1019 OFFCURVE",
"185 1013 OFFCURVE",
"114 1000 CURVE",
"113 999 LINE",
"122 897 LINE",
"179 905 OFFCURVE",
"246 909 OFFCURVE",
"323 909 CURVE",
"316 573 OFFCURVE",
"298 270 OFFCURVE",
"269 0 CURVE"
);
}
);
width = 1205;
}
);
unicode = 03C0;
},
{
glyphname = zero;
layers = (
{
layerId = "1D628CB9-BBF5-410A-9D74-9E6094BFE839";
paths = (
{
closed = 1;
nodes = (
"828 -10 OFFCURVE",
"879 289 OFFCURVE",
"879 646 CURVE SMOOTH",
"879 1003 OFFCURVE",
"830 1301 OFFCURVE",
"507 1301 CURVE SMOOTH",
"190 1301 OFFCURVE",
"133 1030 OFFCURVE",
"133 646 CURVE SMOOTH",
"133 293 OFFCURVE",
"181 -10 OFFCURVE",
"507 -10 CURVE SMOOTH"
);
},
{
closed = 1;
nodes = (
"277 96 OFFCURVE",
"249 310 OFFCURVE",
"249 646 CURVE SMOOTH",
"249 938 OFFCURVE",
"265 1195 OFFCURVE",
"507 1195 CURVE SMOOTH",
"735 1195 OFFCURVE",
"763 983 OFFCURVE",
"763 646 CURVE SMOOTH",
"763 402 OFFCURVE",
"763 96 OFFCURVE",
"507 96 CURVE SMOOTH"
);
}
);
width = 1012;
}
);
unicode = 0030;
},
{
glyphname = one;
layers = (
{
layerId = "1D628CB9-BBF5-410A-9D74-9E6094BFE839";
paths = (
{
closed = 1;
nodes = (
"704 0 LINE",
"704 100 LINE",
"512 100 LINE",
"512 1284 LINE",
"399 1284 LINE",
"118 1155 LINE",
"119 1154 LINE",
"157 1061 LINE",
"384 1167 LINE",
"384 100 LINE",
"160 100 LINE",
"160 0 LINE"
);
}
);
width = 799;
}
);
unicode = 0031;
},
{
glyphname = two;
layers = (
{
layerId = "1D628CB9-BBF5-410A-9D74-9E6094BFE839";
paths = (
{
closed = 1;
nodes = (
"813 0 LINE",
"798 100 LINE",
"265 100 LINE",
"287 240 OFFCURVE",
"409 353 OFFCURVE",
"514 458 CURVE SMOOTH",
"677 622 OFFCURVE",
"824 748 OFFCURVE",
"824 956 CURVE SMOOTH",
"824 1144 OFFCURVE",
"708 1301 OFFCURVE",
"453 1301 CURVE SMOOTH",
"304 1301 OFFCURVE",
"220 1271 OFFCURVE",
"122 1226 CURVE",
"162 1125 LINE",
"185 1137 OFFCURVE",
"309 1195 OFFCURVE",
"444 1195 CURVE SMOOTH",
"634 1195 OFFCURVE",
"707 1100 OFFCURVE",
"707 952 CURVE SMOOTH",
"707 807 OFFCURVE",
"602 698 OFFCURVE",
"482 584 CURVE SMOOTH",
"319 429 OFFCURVE",
"133 269 OFFCURVE",
"131 0 CURVE"
);
}
);
width = 961;
}
);
unicode = 0032;
},
{
glyphname = three;
layers = (
{
layerId = "1D628CB9-BBF5-410A-9D74-9E6094BFE839";
paths = (
{
closed = 1;
nodes = (
"664 -10 OFFCURVE",
"871 79 OFFCURVE",
"871 349 CURVE SMOOTH",
"871 529 OFFCURVE",
"728 677 OFFCURVE",
"569 691 CURVE",
"728 739 OFFCURVE",
"819 820 OFFCURVE",
"819 994 CURVE SMOOTH",
"819 1197 OFFCURVE",
"672 1301 OFFCURVE",
"448 1301 CURVE SMOOTH",
"351 1301 OFFCURVE",
"245 1282 OFFCURVE",
"132 1245 CURVE",
"159 1144 LINE",
"258 1178 OFFCURVE",
"356 1195 OFFCURVE",
"453 1195 CURVE SMOOTH",
"610 1195 OFFCURVE",
"704 1120 OFFCURVE",
"704 980 CURVE SMOOTH",
"704 795 OFFCURVE",
"531 744 OFFCURVE",
"276 711 CURVE",
"285 608 LINE",
"334 619 OFFCURVE",
"407 627 OFFCURVE",
"460 627 CURVE SMOOTH",
"608 627 OFFCURVE",
"755 543 OFFCURVE",
"755 360 CURVE SMOOTH",
"755 150 OFFCURVE",
"612 96 OFFCURVE",
"446 96 CURVE SMOOTH",
"362 96 OFFCURVE",
"249 111 OFFCURVE",
"159 145 CURVE",
"132 40 LINE",
"231 3 OFFCURVE",
"334 -10 OFFCURVE",
"441 -10 CURVE SMOOTH"
);
}
);
width = 1002;
}
);
unicode = 0033;
},
{
glyphname = four;
layers = (
{
layerId = "1D628CB9-BBF5-410A-9D74-9E6094BFE839";
paths = (
{
closed = 1;
nodes = (
"736 0 LINE",
"736 260 LINE",
"896 260 LINE",
"896 360 LINE",
"736 360 LINE",
"736 797 LINE",
"608 797 LINE",
"608 360 LINE",
"201 360 LINE",
"536 1284 LINE",
"411 1284 LINE",
"64 356 LINE",
"64 260 LINE",
"608 260 LINE",
"608 0 LINE"
);
}
);
width = 1002;
}
);
unicode = 0034;
},
{
glyphname = five;
layers = (
{
layerId = "1D628CB9-BBF5-410A-9D74-9E6094BFE839";
paths = (
{
closed = 1;
nodes = (
"692 -10 OFFCURVE",
"864 119 OFFCURVE",
"864 369 CURVE SMOOTH",
"864 626 OFFCURVE",
"718 787 OFFCURVE",
"498 787 CURVE SMOOTH",
"419 787 OFFCURVE",
"343 771 OFFCURVE",
"277 726 CURVE",
"292 1184 LINE",
"796 1184 LINE",
"796 1284 LINE",
"179 1284 LINE",
"179 637 LINE",
"250 608 LINE",
"329 667 OFFCURVE",
"412 683 OFFCURVE",
"497 683 CURVE SMOOTH",
"640 683 OFFCURVE",
"736 580 OFFCURVE",
"736 371 CURVE SMOOTH",
"736 196 OFFCURVE",
"634 96 OFFCURVE",
"450 96 CURVE SMOOTH",
"360 96 OFFCURVE",
"227 126 OFFCURVE",
"157 159 CURVE",
"131 50 LINE",
"198 17 OFFCURVE",
"347 -10 OFFCURVE",
"443 -10 CURVE SMOOTH"
);
}
);
width = 999;
}
);
unicode = 0035;
},
{
glyphname = six;
layers = (
{
layerId = "1D628CB9-BBF5-410A-9D74-9E6094BFE839";
paths = (
{
closed = 1;
nodes = (
"711 -10 OFFCURVE",
"848 148 OFFCURVE",
"848 421 CURVE SMOOTH",
"848 698 OFFCURVE",
"702 825 OFFCURVE",
"514 825 CURVE SMOOTH",
"416 825 OFFCURVE",
"335 800 OFFCURVE",
"231 727 CURVE",
"242 996 OFFCURVE",
"376 1181 OFFCURVE",
"720 1189 CURVE",
"699 1301 LINE",
"311 1262 OFFCURVE",
"96 1106 OFFCURVE",
"96 551 CURVE SMOOTH",
"96 190 OFFCURVE",
"207 -10 OFFCURVE",
"479 -10 CURVE SMOOTH"
);
},
{
closed = 1;
nodes = (
"294 96 OFFCURVE",
"224 241 OFFCURVE",
"224 529 CURVE SMOOTH",
"224 613 LINE",
"343 690 OFFCURVE",
"412 715 OFFCURVE",
"499 715 CURVE SMOOTH",
"642 715 OFFCURVE",
"720 628 OFFCURVE",
"720 422 CURVE SMOOTH",
"720 197 OFFCURVE",
"642 96 OFFCURVE",
"474 96 CURVE SMOOTH"
);
}
);
width = 998;
}
);
unicode = 0036;
},
{
glyphname = seven;
layers = (
{
layerId = "1D628CB9-BBF5-410A-9D74-9E6094BFE839";
paths = (
{
closed = 1;
nodes = (
"379 0 LINE",
"379 417 OFFCURVE",
"704 1081 OFFCURVE",
"779 1198 CURVE",
"769 1301 LINE",
"106 1301 LINE",
"106 1195 LINE",
"638 1195 LINE",
"421 763 OFFCURVE",
"253 373 OFFCURVE",
"243 0 CURVE"
);
}
);
width = 875;
}
);
unicode = 0037;
},
{
glyphname = eight;
layers = (
{
layerId = "1D628CB9-BBF5-410A-9D74-9E6094BFE839";
paths = (
{
closed = 1;
nodes = (
"707 -10 OFFCURVE",
"896 89 OFFCURVE",
"896 306 CURVE SMOOTH",
"896 496 OFFCURVE",
"783 597 OFFCURVE",
"654 665 CURVE",
"800 727 OFFCURVE",
"896 863 OFFCURVE",
"896 998 CURVE SMOOTH",
"896 1197 OFFCURVE",
"723 1301 OFFCURVE",
"528 1301 CURVE SMOOTH",
"334 1301 OFFCURVE",
"160 1211 OFFCURVE",
"160 994 CURVE SMOOTH",
"160 825 OFFCURVE",
"266 736 OFFCURVE",
"383 675 CURVE",
"213 597 OFFCURVE",
"128 445 OFFCURVE",
"128 304 CURVE SMOOTH",
"128 93 OFFCURVE",
"303 -10 OFFCURVE",
"512 -10 CURVE SMOOTH"
);
},
{
closed = 1;
nodes = (
"369 96 OFFCURVE",
"256 157 OFFCURVE",
"256 317 CURVE SMOOTH",
"256 440 OFFCURVE",
"333 546 OFFCURVE",
"492 626 CURVE",
"625 568 OFFCURVE",
"768 487 OFFCURVE",
"768 321 CURVE SMOOTH",
"768 152 OFFCURVE",
"646 96 OFFCURVE",
"512 96 CURVE SMOOTH"
);
},
{
closed = 1;
nodes = (
"408 776 OFFCURVE",
"288 840 OFFCURVE",
"288 989 CURVE SMOOTH",
"288 1149 OFFCURVE",
"404 1195 OFFCURVE",
"530 1195 CURVE SMOOTH",
"696 1195 OFFCURVE",
"768 1107 OFFCURVE",
"768 987 CURVE SMOOTH",
"768 875 OFFCURVE",
"676 761 OFFCURVE",
"545 716 CURVE"
);
}
);
width = 1034;
}
);
unicode = 0038;
},
{
glyphname = nine;
layers = (
{
layerId = "1D628CB9-BBF5-410A-9D74-9E6094BFE839";
paths = (
{
closed = 1;
nodes = (
"624 13 OFFCURVE",
"848 186 OFFCURVE",
"848 741 CURVE SMOOTH",
"848 1105 OFFCURVE",
"737 1301 OFFCURVE",
"465 1301 CURVE SMOOTH",
"233 1301 OFFCURVE",
"96 1144 OFFCURVE",
"96 871 CURVE SMOOTH",
"96 594 OFFCURVE",
"242 467 OFFCURVE",
"430 467 CURVE SMOOTH",
"528 467 OFFCURVE",
"609 492 OFFCURVE",
"713 565 CURVE",
"713 310 OFFCURVE",
"568 104 OFFCURVE",
"224 96 CURVE",
"245 -10 LINE"
);
},
{
closed = 1;
nodes = (
"302 577 OFFCURVE",
"224 664 OFFCURVE",
"224 870 CURVE SMOOTH",
"224 1095 OFFCURVE",
"302 1195 OFFCURVE",
"470 1195 CURVE SMOOTH",
"650 1195 OFFCURVE",
"720 1051 OFFCURVE",
"720 763 CURVE SMOOTH",
"720 679 LINE",
"601 602 OFFCURVE",
"532 577 OFFCURVE",
"445 577 CURVE SMOOTH"
);
}
);
width = 1002;
}
);
unicode = 0039;
},
{
glyphname = zero.zero;
layers = (
{
layerId = "1D628CB9-BBF5-410A-9D74-9E6094BFE839";
paths = (
{
closed = 1;
nodes = (
"828 -10 OFFCURVE",
"879 289 OFFCURVE",
"879 646 CURVE SMOOTH",
"879 1003 OFFCURVE",
"830 1301 OFFCURVE",
"507 1301 CURVE SMOOTH",
"190 1301 OFFCURVE",
"133 1030 OFFCURVE",
"133 646 CURVE SMOOTH",
"133 293 OFFCURVE",
"181 -10 OFFCURVE",
"507 -10 CURVE SMOOTH"
);
},
{
closed = 1;
nodes = (
"369 106 LINE",
"752 1164 LINE",
"650 1164 LINE",
"270 106 LINE"
);
},
{
closed = 1;
nodes = (
"277 96 OFFCURVE",
"249 310 OFFCURVE",
"249 646 CURVE SMOOTH",
"249 938 OFFCURVE",
"265 1195 OFFCURVE",
"507 1195 CURVE SMOOTH",
"735 1195 OFFCURVE",
"763 983 OFFCURVE",
"763 646 CURVE SMOOTH",
"763 402 OFFCURVE",
"763 96 OFFCURVE",
"507 96 CURVE SMOOTH"
);
}
);
width = 1012;
}
);
},
{
glyphname = onesuperior;
layers = (
{
layerId = "1D628CB9-BBF5-410A-9D74-9E6094BFE839";
paths = (
{
closed = 1;
nodes = (
"556 488 LINE",
"556 593 LINE",
"410 593 LINE",
"410 1404 LINE",
"316 1404 LINE",
"89 1307 LINE",
"133 1222 LINE",
"298 1293 LINE",
"298 593 LINE",
"129 593 LINE",
"129 488 LINE"
);
}
);
width = 653;
}
);
unicode = 00B9;
},
{
glyphname = twosuperior;
layers = (
{
layerId = "1D628CB9-BBF5-410A-9D74-9E6094BFE839";
paths = (
{
closed = 1;
nodes = (
"637 488 LINE",
"637 593 LINE",
"253 593 LINE",
"308 807 OFFCURVE",
"658 922 OFFCURVE",
"658 1170 CURVE SMOOTH",
"658 1306 OFFCURVE",
"567 1421 OFFCURVE",
"372 1421 CURVE SMOOTH",
"250 1421 OFFCURVE",
"182 1389 OFFCURVE",
"102 1346 CURVE",
"143 1246 LINE",
"169 1265 OFFCURVE",
"254 1324 OFFCURVE",
"366 1324 CURVE SMOOTH",
"492 1324 OFFCURVE",
"535 1264 OFFCURVE",
"535 1163 CURVE SMOOTH",
"535 1068 OFFCURVE",
"461 996 OFFCURVE",
"373 915 CURVE SMOOTH",
"252 804 OFFCURVE",
"124 692 OFFCURVE",
"122 488 CURVE"
);
}
);
width = 775;
}
);
unicode = 00B2;
},
{
glyphname = threesuperior;
layers = (
{
layerId = "1D628CB9-BBF5-410A-9D74-9E6094BFE839";
paths = (
{
closed = 1;
nodes = (
"492 486 OFFCURVE",
"655 550 OFFCURVE",
"655 747 CURVE SMOOTH",
"655 862 OFFCURVE",
"573 958 OFFCURVE",
"466 988 CURVE",
"558 1024 OFFCURVE",
"616 1083 OFFCURVE",
"616 1195 CURVE SMOOTH",
"616 1344 OFFCURVE",
"500 1421 OFFCURVE",
"330 1421 CURVE SMOOTH",
"254 1421 OFFCURVE",
"167 1404 OFFCURVE",
"82 1378 CURVE",
"108 1284 LINE",
"181 1308 OFFCURVE",
"260 1324 OFFCURVE",
"334 1324 CURVE SMOOTH",
"446 1324 OFFCURVE",
"507 1276 OFFCURVE",
"507 1186 CURVE SMOOTH",
"507 1065 OFFCURVE",
"382 1032 OFFCURVE",
"189 1009 CURVE",
"199 913 LINE",
"237 921 OFFCURVE",
"295 929 OFFCURVE",
"339 929 CURVE SMOOTH",
"444 929 OFFCURVE",
"545 874 OFFCURVE",
"545 755 CURVE SMOOTH",
"545 618 OFFCURVE",
"449 583 OFFCURVE",
"328 583 CURVE SMOOTH",
"262 583 OFFCURVE",
"174 597 OFFCURVE",
"108 621 CURVE",
"82 525 LINE",
"159 498 OFFCURVE",
"240 486 OFFCURVE",
"325 486 CURVE SMOOTH"
);
}
);
width = 736;
}
);
unicode = 00B3;
},
{
glyphname = foursuperior;
layers = (
{
layerId = "1D628CB9-BBF5-410A-9D74-9E6094BFE839";
paths = (
{
closed = 1;
nodes = (
"544 488 LINE",
"544 670 LINE",
"659 670 LINE",
"659 765 LINE",
"544 765 LINE",
"544 1057 LINE",
"434 1057 LINE",
"434 765 LINE",
"163 765 LINE",
"402 1404 LINE",
"303 1404 LINE",
"55 762 LINE",
"55 670 LINE",
"434 670 LINE",
"434 488 LINE"
);
}
);
width = 709;
}
);
unicode = 2074;
},
{
glyphname = fraction;
layers = (
{
layerId = "1D628CB9-BBF5-410A-9D74-9E6094BFE839";
paths = (
{
closed = 1;
nodes = (
"210 0 LINE",
"675 1284 LINE",
"573 1284 LINE",
"109 0 LINE"
);
}
);
width = 814;
}
);
unicode = 2044;
},
{
glyphname = asterisk;
layers = (
{
layerId = "1D628CB9-BBF5-410A-9D74-9E6094BFE839";
paths = (
{
closed = 1;
nodes = (
"460 989 LINE",
"635 753 LINE",
"708 807 LINE",
"534 1043 LINE",
"812 1138 LINE",
"786 1223 LINE",
"506 1130 LINE",
"506 1425 LINE",
"415 1425 LINE",
"415 1130 LINE",
"134 1223 LINE",
"108 1137 LINE",
"386 1043 LINE",
"213 807 LINE",
"286 753 LINE"
);
}
);
width = 923;
}
);
unicode = 002A;
},
{
glyphname = backslash;
layers = (
{
layerId = "1D628CB9-BBF5-410A-9D74-9E6094BFE839";
paths = (
{
closed = 1;
nodes = (
"784 -55 LINE",
"159 1473 LINE",
"83 1432 LINE",
"709 -96 LINE"
);
}
);
width = 884;
}
);
unicode = 005C;
},
{
glyphname = periodcentered;
layers = (
{
layerId = "1D628CB9-BBF5-410A-9D74-9E6094BFE839";
paths = (
{
closed = 1;
nodes = (
"375 554 LINE",
"375 746 LINE",
"215 746 LINE",
"215 554 LINE"
);
}
);
width = 452;
}
);
unicode = 00B7;
},
{
glyphname = bullet;
layers = (
{
layerId = "1D628CB9-BBF5-410A-9D74-9E6094BFE839";
paths = (
{
closed = 1;
nodes = (
"468 374 OFFCURVE",
"561 467 OFFCURVE",
"561 582 CURVE SMOOTH",
"561 697 OFFCURVE",
"468 790 OFFCURVE",
"353 790 CURVE SMOOTH",
"238 790 OFFCURVE",
"145 697 OFFCURVE",
"145 582 CURVE SMOOTH",
"145 467 OFFCURVE",
"238 374 OFFCURVE",
"353 374 CURVE SMOOTH"
);
}
);
width = 707;
}
);
unicode = 2022;
},
{
glyphname = colon;
layers = (
{
layerId = "1D628CB9-BBF5-410A-9D74-9E6094BFE839";
paths = (
{
closed = 1;
nodes = (
"308 639 LINE",
"308 841 LINE",
"145 841 LINE",
"145 639 LINE"
);
},
{
closed = 1;
nodes = (
"308 47 LINE",
"308 243 LINE",
"145 243 LINE",
"145 47 LINE"
);
}
);
width = 481;
}
);
unicode = 003A;
},
{
glyphname = comma;
layers = (
{
layerId = "1D628CB9-BBF5-410A-9D74-9E6094BFE839";
paths = (
{
closed = 1;
nodes = (
"288 -178 OFFCURVE",
"341 -89 OFFCURVE",
"341 39 CURVE SMOOTH",
"341 210 LINE",
"149 210 LINE",
"149 0 LINE",
"244 0 LINE",
"241 -61 OFFCURVE",
"212 -138 OFFCURVE",
"158 -221 CURVE",
"205 -274 LINE"
);
}
);
width = 491;
}
);
unicode = 002C;
},
{
glyphname = exclam;
layers = (
{
layerId = "1D628CB9-BBF5-410A-9D74-9E6094BFE839";
paths = (
{
closed = 1;
nodes = (
"250 341 LINE",
"288 1284 LINE",
"151 1284 LINE",
"191 341 LINE"
);
},
{
closed = 1;
nodes = (
"295 0 LINE",
"295 154 LINE",
"157 154 LINE",
"157 0 LINE"
);
}
);
width = 446;
}
);
unicode = 0021;
},
{
glyphname = numbersign;
layers = (
{
layerId = "1D628CB9-BBF5-410A-9D74-9E6094BFE839";
paths = (
{
closed = 1;
nodes = (
"359 92 LINE",
"399 449 LINE",
"615 449 LINE",
"573 92 LINE",
"679 92 LINE",
"720 449 LINE",
"918 449 LINE",
"918 553 LINE",
"733 553 LINE",
"774 928 LINE",
"953 928 LINE",
"953 1030 LINE",
"786 1030 LINE",
"823 1364 LINE",
"720 1364 LINE",
"681 1030 LINE",
"466 1030 LINE",
"504 1364 LINE",
"399 1364 LINE",
"360 1030 LINE",
"162 1030 LINE",
"162 928 LINE",
"350 928 LINE",
"307 553 LINE",
"126 553 LINE",
"126 449 LINE",
"294 449 LINE",
"252 92 LINE"
);
},
{
closed = 1;
nodes = (
"450 928 LINE",
"674 928 LINE",
"630 553 LINE",
"408 553 LINE"
);
}
);
width = 1082;
}
);
unicode = 0023;
},
{
glyphname = period;
layers = (
{
layerId = "1D628CB9-BBF5-410A-9D74-9E6094BFE839";
paths = (
{
closed = 1;
nodes = (
"305 0 LINE",
"305 202 LINE",
"145 202 LINE",
"145 0 LINE"
);
}
);
width = 452;
}
);
unicode = 002E;
},
{
glyphname = question;
layers = (
{
layerId = "1D628CB9-BBF5-410A-9D74-9E6094BFE839";
paths = (
{
closed = 1;
nodes = (
"444 293 LINE",
"441 335 OFFCURVE",
"437 389 OFFCURVE",
"437 412 CURVE SMOOTH",
"437 659 OFFCURVE",
"766 721 OFFCURVE",
"766 1005 CURVE SMOOTH",
"766 1184 OFFCURVE",
"635 1301 OFFCURVE",
"449 1301 CURVE SMOOTH",
"303 1301 OFFCURVE",
"170 1229 OFFCURVE",
"102 1151 CURVE",
"158 1071 LINE",
"245 1153 OFFCURVE",
"330 1195 OFFCURVE",
"458 1195 CURVE SMOOTH",
"584 1195 OFFCURVE",
"647 1107 OFFCURVE",
"647 998 CURVE SMOOTH",
"647 803 OFFCURVE",
"340 673 OFFCURVE",
"340 455 CURVE",
"340 455 OFFCURVE",
"353 321 OFFCURVE",
"361 293 CURVE"
);
},
{
closed = 1;
nodes = (
"470 -6 LINE",
"470 135 LINE",
"345 135 LINE",
"345 -6 LINE"
);
}
);
width = 881;
}
);
unicode = 003F;
},
{
glyphname = quotedbl;
layers = (
{
layerId = "1D628CB9-BBF5-410A-9D74-9E6094BFE839";
paths = (
{
closed = 1;
nodes = (
"503 950 LINE",
"503 1217 LINE",
"510 1411 LINE",
"388 1411 LINE",
"388 950 LINE"
);
},
{
closed = 1;
nodes = (
"237 950 LINE",
"246 1229 LINE",
"246 1411 LINE",
"125 1411 LINE",
"125 950 LINE"
);
}
);
width = 634;
}
);
unicode = 0022;
},
{
glyphname = quotesingle;
layers = (
{
layerId = "1D628CB9-BBF5-410A-9D74-9E6094BFE839";
paths = (
{
closed = 1;
nodes = (
"239 950 LINE",
"239 1212 LINE",
"248 1411 LINE",
"125 1411 LINE",
"125 950 LINE"
);
}
);
width = 371;
}
);
unicode = 0027;
},
{
glyphname = semicolon;
layers = (
{
layerId = "1D628CB9-BBF5-410A-9D74-9E6094BFE839";
paths = (
{
closed = 1;
nodes = (
"269 -90 OFFCURVE",
"323 -2 OFFCURVE",
"323 129 CURVE SMOOTH",
"323 302 LINE",
"150 302 LINE",
"150 86 LINE",
"224 86 LINE",
"219 22 OFFCURVE",
"190 -51 OFFCURVE",
"138 -133 CURVE",
"184 -186 LINE"
);
},
{
closed = 1;
nodes = (
"307 636 LINE",
"307 846 LINE",
"145 846 LINE",
"145 636 LINE"
);
}
);
width = 462;
}
);
unicode = 003B;
},
{
glyphname = slash;
layers = (
{
layerId = "1D628CB9-BBF5-410A-9D74-9E6094BFE839";
paths = (
{
closed = 1;
nodes = (
"812 1458 LINE",
"731 1497 LINE",
"99 -84 LINE",
"178 -121 LINE"
);
}
);
width = 888;
}
);
unicode = 002F;
},
{
glyphname = underscore;
layers = (
{
layerId = "1D628CB9-BBF5-410A-9D74-9E6094BFE839";
paths = (
{
closed = 1;
nodes = (
"968 -219 LINE",
"968 -125 LINE",
"100 -125 LINE",
"100 -219 LINE"
);
}
);
width = 1066;
}
);
unicode = 005F;
},
{
glyphname = periodcentered.loclCAT;
layers = (
{
anchors = (
{
name = _center;
position = "{230, 652}";
}
);
layerId = "1D628CB9-BBF5-410A-9D74-9E6094BFE839";
paths = (
{
closed = 1;
nodes = (
"315 544 LINE",
"315 756 LINE",
"145 756 LINE",
"145 544 LINE"
);
}
);
width = 460;
}
);
},
{
glyphname = braceleft;
layers = (
{
layerId = "1D628CB9-BBF5-410A-9D74-9E6094BFE839";
paths = (
{
closed = 1;
nodes = (
"552 -64 LINE",
"527 -64 LINE SMOOTH",
"348 -64 OFFCURVE",
"320 -59 OFFCURVE",
"320 193 CURVE SMOOTH",
"320 579 LINE",
"175 664 LINE",
"320 749 LINE",
"320 1135 LINE SMOOTH",
"320 1387 OFFCURVE",
"348 1392 OFFCURVE",
"527 1392 CURVE SMOOTH",
"552 1392 LINE",
"544 1484 LINE",
"262 1484 OFFCURVE",
"215 1452 OFFCURVE",
"215 1146 CURVE",
"216 1017 LINE SMOOTH",
"216 985 LINE SMOOTH",
"216 905 OFFCURVE",
"214 853 OFFCURVE",
"210 801 CURVE",
"64 712 LINE",
"64 616 LINE",
"210 527 LINE",
"214 475 OFFCURVE",
"216 423 OFFCURVE",
"216 343 CURVE SMOOTH",
"216 311 LINE SMOOTH",
"215 182 LINE",
"215 -124 OFFCURVE",
"262 -156 OFFCURVE",
"544 -156 CURVE"
);
}
);
width = 620;
}
);
unicode = 007B;
},
{
glyphname = braceright;
layers = (
{
layerId = "1D628CB9-BBF5-410A-9D74-9E6094BFE839";
paths = (
{
closed = 1;
nodes = (
"360 -156 OFFCURVE",
"407 -124 OFFCURVE",
"407 182 CURVE",
"406 311 LINE SMOOTH",
"406 343 LINE SMOOTH",
"406 423 OFFCURVE",
"408 475 OFFCURVE",
"412 527 CURVE",
"558 616 LINE",
"558 712 LINE",
"412 801 LINE",
"408 853 OFFCURVE",
"406 905 OFFCURVE",
"406 985 CURVE SMOOTH",
"406 1017 LINE SMOOTH",
"407 1146 LINE",
"407 1452 OFFCURVE",
"360 1484 OFFCURVE",
"78 1484 CURVE",
"70 1392 LINE",
"95 1392 LINE SMOOTH",
"274 1392 OFFCURVE",
"302 1387 OFFCURVE",
"302 1135 CURVE SMOOTH",
"302 749 LINE",
"447 664 LINE",
"302 579 LINE",
"302 193 LINE SMOOTH",
"302 -59 OFFCURVE",
"274 -64 OFFCURVE",
"95 -64 CURVE SMOOTH",
"70 -64 LINE",
"78 -156 LINE"
);
}
);
width = 620;
}
);
unicode = 007D;
},
{
glyphname = bracketleft;
layers = (
{
layerId = "1D628CB9-BBF5-410A-9D74-9E6094BFE839";
paths = (
{
closed = 1;
nodes = (
"544 -103 LINE",
"544 0 LINE",
"288 0 LINE",
"288 1254 LINE",
"544 1254 LINE",
"544 1358 LINE",
"160 1358 LINE",
"160 -103 LINE"
);
}
);
width = 604;
}
);
unicode = 005B;
},
{
glyphname = bracketright;
layers = (
{
layerId = "1D628CB9-BBF5-410A-9D74-9E6094BFE839";
paths = (
{
closed = 1;
nodes = (
"544 -103 LINE",
"544 1358 LINE",
"160 1358 LINE",
"160 1255 LINE",
"416 1255 LINE",
"416 1 LINE",
"160 1 LINE",
"160 -103 LINE"
);
}
);
width = 604;
}
);
unicode = 005D;
},
{
glyphname = parenleft;
layers = (
{
layerId = "1D628CB9-BBF5-410A-9D74-9E6094BFE839";
paths = (
{
closed = 1;
nodes = (
"461 -231 LINE",
"290 25 OFFCURVE",
"205 335 OFFCURVE",
"205 645 CURVE SMOOTH",
"205 957 OFFCURVE",
"291 1270 OFFCURVE",
"461 1528 CURVE",
"382 1604 LINE",
"177 1331 OFFCURVE",
"74 991 OFFCURVE",
"74 650 CURVE SMOOTH",
"74 309 OFFCURVE",
"177 -32 OFFCURVE",
"382 -305 CURVE",
"382 -307 LINE"
);
}
);
width = 520;
}
);
unicode = 0028;
},
{
glyphname = parenright;
layers = (
{
layerId = "1D628CB9-BBF5-410A-9D74-9E6094BFE839";
paths = (
{
closed = 1;
nodes = (
"141 -305 LINE",
"346 -32 OFFCURVE",
"449 309 OFFCURVE",
"449 650 CURVE SMOOTH",
"449 991 OFFCURVE",
"346 1331 OFFCURVE",
"141 1604 CURVE",
"62 1528 LINE",
"232 1270 OFFCURVE",
"318 957 OFFCURVE",
"318 645 CURVE SMOOTH",
"318 335 OFFCURVE",
"233 25 OFFCURVE",
"62 -231 CURVE",
"141 -307 LINE"
);
}
);
width = 520;
}
);
unicode = 0029;
},
{
glyphname = emdash;
layers = (
{
layerId = "1D628CB9-BBF5-410A-9D74-9E6094BFE839";
paths = (
{
closed = 1;
nodes = (
"1006 547 LINE",
"1006 643 LINE",
"116 643 LINE",
"116 547 LINE"
);
}
);
width = 1124;
}
);
unicode = 2014;
},
{
glyphname = endash;
layers = (
{
layerId = "1D628CB9-BBF5-410A-9D74-9E6094BFE839";
paths = (
{
closed = 1;
nodes = (
"776 547 LINE",
"776 643 LINE",
"116 643 LINE",
"116 547 LINE"
);
}
);
width = 894;
}
);
unicode = 2013;
},
{
glyphname = hyphen;
layers = (
{
layerId = "1D628CB9-BBF5-410A-9D74-9E6094BFE839";
paths = (
{
closed = 1;
nodes = (
"633 449 LINE",
"633 565 LINE",
"114 565 LINE",
"114 449 LINE"
);
}
);
width = 750;
}
);
unicode = 002D;
},
{
glyphname = softhyphen;
layers = (
{
layerId = "1D628CB9-BBF5-410A-9D74-9E6094BFE839";
paths = (
{
closed = 1;
nodes = (
"886 725 LINE",
"886 831 LINE",
"153 831 LINE",
"153 725 LINE"
);
}
);
width = 1040;
}
);
unicode = 00AD;
},
{
glyphname = guillemetleft;
layers = (
{
layerId = "1D628CB9-BBF5-410A-9D74-9E6094BFE839";
paths = (
{
closed = 1;
nodes = (
"834 279 LINE",
"561 545 LINE",
"834 817 LINE",
"806 936 LINE",
"469 600 LINE",
"447 520 LINE",
"806 160 LINE"
);
},
{
closed = 1;
nodes = (
"493 279 LINE",
"219 545 LINE",
"493 817 LINE",
"463 936 LINE",
"128 600 LINE",
"106 520 LINE",
"463 160 LINE"
);
}
);
width = 967;
}
);
unicode = 00AB;
},
{
glyphname = guillemetright;
layers = (
{
layerId = "1D628CB9-BBF5-410A-9D74-9E6094BFE839";
paths = (
{
closed = 1;
nodes = (
"859 520 LINE",
"831 608 LINE",
"502 936 LINE",
"472 817 LINE",
"747 545 LINE",
"472 279 LINE",
"502 160 LINE"
);
},
{
closed = 1;
nodes = (
"518 520 LINE",
"497 600 LINE",
"159 936 LINE",
"131 817 LINE",
"404 545 LINE",
"131 279 LINE",
"159 160 LINE"
);
}
);
width = 968;
}
);
unicode = 00BB;
},
{
glyphname = guilsinglleft;
layers = (
{
layerId = "1D628CB9-BBF5-410A-9D74-9E6094BFE839";
paths = (
{
closed = 1;
nodes = (
"489 236 LINE",
"222 526 LINE",
"489 823 LINE",
"449 934 LINE",
"109 573 LINE",
"109 483 LINE",
"449 123 LINE"
);
}
);
width = 621;
}
);
unicode = 2039;
},
{
glyphname = guilsinglright;
layers = (
{
layerId = "1D628CB9-BBF5-410A-9D74-9E6094BFE839";
paths = (
{
closed = 1;
nodes = (
"508 483 LINE",
"508 573 LINE",
"170 934 LINE",
"130 823 LINE",
"397 526 LINE",
"130 236 LINE",
"170 123 LINE"
);
}
);
width = 620;
}
);
unicode = 203A;
},
{
glyphname = quotedblbase;
layers = (
{
layerId = "1D628CB9-BBF5-410A-9D74-9E6094BFE839";
paths = (
{
closed = 1;
nodes = (
"266 -154 OFFCURVE",
"279 -65 OFFCURVE",
"317 96 CURVE",
"187 121 LINE",
"167 -18 OFFCURVE",
"119 -292 OFFCURVE",
"118 -292 CURVE SMOOTH",
"119 -292 LINE",
"186 -313 LINE"
);
},
{
closed = 1;
nodes = (
"526 -154 OFFCURVE",
"538 -65 OFFCURVE",
"576 96 CURVE",
"446 121 LINE",
"426 -18 OFFCURVE",
"379 -292 OFFCURVE",
"378 -292 CURVE SMOOTH",
"378 -292 LINE",
"446 -313 LINE"
);
}
);
width = 691;
}
);
unicode = 201E;
},
{
glyphname = quotedblleft;
layers = (
{
layerId = "1D628CB9-BBF5-410A-9D74-9E6094BFE839";
paths = (
{
closed = 1;
nodes = (
"257 1100 OFFCURVE",
"278 1238 OFFCURVE",
"311 1364 CURVE",
"244 1397 LINE",
"194 1289 OFFCURVE",
"149 1149 OFFCURVE",
"112 987 CURVE",
"241 958 LINE"
);
},
{
closed = 1;
nodes = (
"524 1100 OFFCURVE",
"545 1238 OFFCURVE",
"578 1364 CURVE",
"512 1397 LINE",
"462 1289 OFFCURVE",
"417 1149 OFFCURVE",
"380 987 CURVE",
"508 958 LINE"
);
}
);
width = 690;
}
);
unicode = 201C;
},
{
glyphname = quotedblright;
layers = (
{
layerId = "1D628CB9-BBF5-410A-9D74-9E6094BFE839";
paths = (
{
closed = 1;
nodes = (
"502 1043 OFFCURVE",
"552 1231 OFFCURVE",
"586 1382 CURVE",
"456 1407 LINE",
"436 1268 OFFCURVE",
"387 994 OFFCURVE",
"386 994 CURVE SMOOTH",
"388 994 LINE",
"454 973 LINE"
);
},
{
closed = 1;
nodes = (
"266 1132 OFFCURVE",
"279 1221 OFFCURVE",
"317 1382 CURVE",
"187 1407 LINE",
"167 1268 OFFCURVE",
"119 994 OFFCURVE",
"118 994 CURVE SMOOTH",
"119 994 LINE",
"186 973 LINE"
);
}
);
width = 700;
}
);
unicode = 201D;
},
{
glyphname = quoteleft;
layers = (
{
layerId = "1D628CB9-BBF5-410A-9D74-9E6094BFE839";
paths = (
{
closed = 1;
nodes = (
"257 1100 OFFCURVE",
"278 1238 OFFCURVE",
"311 1364 CURVE",
"244 1397 LINE",
"194 1289 OFFCURVE",
"149 1149 OFFCURVE",
"112 987 CURVE",
"241 958 LINE"
);
}
);
width = 423;
}
);
unicode = 2018;
},
{
glyphname = quoteright;
layers = (
{
layerId = "1D628CB9-BBF5-410A-9D74-9E6094BFE839";
paths = (
{
closed = 1;
nodes = (
"266 1132 OFFCURVE",
"279 1221 OFFCURVE",
"317 1382 CURVE",
"187 1407 LINE",
"167 1268 OFFCURVE",
"119 994 OFFCURVE",
"118 994 CURVE SMOOTH",
"119 994 LINE",
"186 973 LINE"
);
}
);
width = 431;
}
);
unicode = 2019;
},
{
glyphname = quotesinglbase;
layers = (
{
layerId = "1D628CB9-BBF5-410A-9D74-9E6094BFE839";
paths = (
{
closed = 1;
nodes = (
"266 -154 OFFCURVE",
"279 -65 OFFCURVE",
"317 96 CURVE",
"187 121 LINE",
"167 -18 OFFCURVE",
"119 -292 OFFCURVE",
"118 -292 CURVE SMOOTH",
"119 -292 LINE",
"186 -313 LINE"
);
}
);
width = 431;
}
);
unicode = 201A;
},
{
glyphname = cedi;
layers = (
{
components = (
{
name = C;
}
);
layerId = "1D628CB9-BBF5-410A-9D74-9E6094BFE839";
paths = (
{
closed = 1;
nodes = (
"611 -188 LINE",
"611 1465 LINE",
"527 1465 LINE",
"527 -188 LINE"
);
}
);
width = 1014;
}
);
unicode = 20B5;
},
{
glyphname = cent;
layers = (
{
layerId = "1D628CB9-BBF5-410A-9D74-9E6094BFE839";
paths = (
{
closed = 1;
nodes = (
"543 -147 LINE",
"543 -16 LINE",
"611 -8 OFFCURVE",
"680 11 OFFCURVE",
"751 41 CURVE",
"723 143 LINE",
"627 105 OFFCURVE",
"550 86 OFFCURVE",
"492 86 CURVE SMOOTH",
"316 86 OFFCURVE",
"229 237 OFFCURVE",
"229 487 CURVE SMOOTH",
"229 705 OFFCURVE",
"295 881 OFFCURVE",
"492 881 CURVE SMOOTH",
"559 881 OFFCURVE",
"627 869 OFFCURVE",
"696 844 CURVE",
"719 946 LINE",
"668 964 OFFCURVE",
"608 977 OFFCURVE",
"539 984 CURVE",
"539 1125 LINE",
"441 1125 LINE",
"441 982 LINE",
"230 957 OFFCURVE",
"124 792 OFFCURVE",
"124 486 CURVE SMOOTH",
"124 198 OFFCURVE",
"226 11 OFFCURVE",
"445 -15 CURVE",
"445 -147 LINE"
);
}
);
width = 878;
}
);
unicode = 00A2;
},
{
glyphname = colonsign;
layers = (
{
layerId = "1D628CB9-BBF5-410A-9D74-9E6094BFE839";
paths = (
{
closed = 1;
nodes = (
"702 -10 OFFCURVE",
"806 8 OFFCURVE",
"923 64 CURVE",
"883 161 LINE",
"780 112 OFFCURVE",
"693 96 OFFCURVE",
"606 96 CURVE SMOOTH",
"401 96 OFFCURVE",
"246 252 OFFCURVE",
"246 638 CURVE SMOOTH",
"246 1092 OFFCURVE",
"371 1195 OFFCURVE",
"597 1195 CURVE SMOOTH",
"698 1195 OFFCURVE",
"787 1168 OFFCURVE",
"869 1120 CURVE",
"916 1217 LINE",
"806 1277 OFFCURVE",
"709 1301 OFFCURVE",
"586 1301 CURVE SMOOTH",
"270 1301 OFFCURVE",
"118 1114 OFFCURVE",
"118 641 CURVE SMOOTH",
"118 189 OFFCURVE",
"329 -10 OFFCURVE",
"598 -10 CURVE SMOOTH"
);
},
{
closed = 1;
nodes = (
"351 -168 LINE",
"691 1465 LINE",
"587 1465 LINE",
"247 -168 LINE"
);
},
{
closed = 1;
nodes = (
"541 -168 LINE",
"881 1465 LINE",
"777 1465 LINE",
"437 -168 LINE"
);
}
);
width = 1014;
},
{
associatedMasterId = "1D628CB9-BBF5-410A-9D74-9E6094BFE839";
layerId = "13D1F5CD-0BC5-44CA-AD17-5A19246D723A";
name = "Regular Jul 6 16, 11:45";
paths = (
{
closed = 1;
nodes = (
"607 1465 LINE",
"691 1465 LINE",
"291 -188 LINE",
"207 -188 LINE"
);
},
{
closed = 1;
nodes = (
"797 1465 LINE",
"881 1465 LINE",
"481 -188 LINE",
"397 -188 LINE"
);
},
{
closed = 1;
nodes = (
"246 638 CURVE SMOOTH",
"246 252 OFFCURVE",
"401 96 OFFCURVE",
"606 96 CURVE SMOOTH",
"693 96 OFFCURVE",
"780 112 OFFCURVE",
"883 161 CURVE",
"923 64 LINE",
"806 8 OFFCURVE",
"702 -10 OFFCURVE",
"598 -10 CURVE SMOOTH",
"329 -10 OFFCURVE",
"118 189 OFFCURVE",
"118 641 CURVE SMOOTH",
"118 1114 OFFCURVE",
"270 1301 OFFCURVE",
"586 1301 CURVE SMOOTH",
"685 1301 OFFCURVE",
"786 1280 OFFCURVE",
"896 1226 CURVE",
"896 984 LINE",
"787 984 LINE",
"787 1157 LINE",
"735 1180 OFFCURVE",
"668 1195 OFFCURVE",
"597 1195 CURVE SMOOTH",
"371 1195 OFFCURVE",
"246 1092 OFFCURVE"
);
}
);
width = 1014;
}
);
unicode = 20A1;
userData = {
com.typemytype.robofont.layerData = {
"Regular Jul 6 16, 11:45" = {
anchors = (
);
components = (
);
contours = (
{
points = (
{
segmentType = line;
smooth = 0;
x = 607;
y = 1465;
},
{
segmentType = line;
smooth = 0;
x = 691;
y = 1465;
},
{
segmentType = line;
smooth = 0;
x = 291;
y = -188;
},
{
segmentType = line;
smooth = 0;
x = 207;
y = -188;
}
);
},
{
points = (
{
segmentType = line;
smooth = 0;
x = 797;
y = 1465;
},
{
segmentType = line;
smooth = 0;
x = 881;
y = 1465;
},
{
segmentType = line;
smooth = 0;
x = 481;
y = -188;
},
{
segmentType = line;
smooth = 0;
x = 397;
y = -188;
}
);
},
{
points = (
{
segmentType = curve;
smooth = 1;
x = 246;
y = 638;
},
{
smooth = 0;
x = 246;
y = 252;
},
{
smooth = 0;
x = 401;
y = 96;
},
{
segmentType = curve;
smooth = 1;
x = 606;
y = 96;
},
{
smooth = 0;
x = 693;
y = 96;
},
{
smooth = 0;
x = 780;
y = 112;
},
{
segmentType = curve;
smooth = 0;
x = 883;
y = 161;
},
{
segmentType = line;
smooth = 0;
x = 923;
y = 64;
},
{
smooth = 0;
x = 806;
y = 8;
},
{
smooth = 0;
x = 702;
y = -10;
},
{
segmentType = curve;
smooth = 1;
x = 598;
y = -10;
},
{
smooth = 0;
x = 329;
y = -10;
},
{
smooth = 0;
x = 118;
y = 189;
},
{
segmentType = curve;
smooth = 1;
x = 118;
y = 641;
},
{
smooth = 0;
x = 118;
y = 1114;
},
{
smooth = 0;
x = 270;
y = 1301;
},
{
segmentType = curve;
smooth = 1;
x = 586;
y = 1301;
},
{
smooth = 0;
x = 685;
y = 1301;
},
{
smooth = 0;
x = 786;
y = 1280;
},
{
segmentType = curve;
smooth = 0;
x = 896;
y = 1226;
},
{
segmentType = line;
smooth = 0;
x = 896;
y = 984;
},
{
segmentType = line;
smooth = 0;
x = 787;
y = 984;
},
{
segmentType = line;
smooth = 0;
x = 787;
y = 1157;
},
{
smooth = 0;
x = 735;
y = 1180;
},
{
smooth = 0;
x = 668;
y = 1195;
},
{
segmentType = curve;
smooth = 1;
x = 597;
y = 1195;
},
{
smooth = 0;
x = 371;
y = 1195;
},
{
smooth = 0;
x = 246;
y = 1092;
}
);
}
);
lib = {
};
name = colonsign;
unicodes = (
);
width = 1014;
};
};
};
},
{
glyphname = currency;
layers = (
{
layerId = "1D628CB9-BBF5-410A-9D74-9E6094BFE839";
paths = (
{
closed = 1;
nodes = (
"329 454 LINE",
"384 410 OFFCURVE",
"454 388 OFFCURVE",
"524 388 CURVE SMOOTH",
"593 388 OFFCURVE",
"664 410 OFFCURVE",
"719 454 CURVE",
"838 333 LINE",
"916 412 LINE",
"801 526 LINE",
"843 579 OFFCURVE",
"864 649 OFFCURVE",
"864 720 CURVE SMOOTH",
"864 791 OFFCURVE",
"843 861 OFFCURVE",
"801 914 CURVE",
"916 1030 LINE",
"838 1109 LINE",
"719 986 LINE",
"663 1029 OFFCURVE",
"593 1051 OFFCURVE",
"524 1051 CURVE SMOOTH",
"455 1051 OFFCURVE",
"384 1029 OFFCURVE",
"329 986 CURVE",
"209 1109 LINE",
"132 1030 LINE",
"245 914 LINE",
"204 862 OFFCURVE",
"183 791 OFFCURVE",
"183 720 CURVE SMOOTH",
"183 649 OFFCURVE",
"204 578 OFFCURVE",
"245 526 CURVE",
"132 412 LINE",
"209 333 LINE"
);
},
{
closed = 1;
nodes = (
"402 473 OFFCURVE",
"280 556 OFFCURVE",
"280 719 CURVE SMOOTH",
"280 883 OFFCURVE",
"402 966 OFFCURVE",
"524 966 CURVE SMOOTH",
"646 966 OFFCURVE",
"767 884 OFFCURVE",
"767 720 CURVE SMOOTH",
"767 554 OFFCURVE",
"646 473 OFFCURVE",
"524 473 CURVE SMOOTH"
);
}
);
width = 1048;
}
);
unicode = 00A4;
userData = {
com.fontlab.hintData = {
hhints = (
{
position = -2332;
width = 316;
},
{
position = -622;
width = 316;
}
);
vhints = (
{
position = -590;
width = 394;
},
{
position = 1041;
width = 394;
}
);
};
};
},
{
glyphname = dollar;
layers = (
{
layerId = "1D628CB9-BBF5-410A-9D74-9E6094BFE839";
paths = (
{
closed = 1;
nodes = (
"538 -188 LINE",
"538 -7 LINE",
"742 12 OFFCURVE",
"873 137 OFFCURVE",
"873 353 CURVE SMOOTH",
"873 613 OFFCURVE",
"699 659 OFFCURVE",
"538 717 CURVE",
"538 1195 LINE",
"653 1192 OFFCURVE",
"739 1167 OFFCURVE",
"819 1137 CURVE",
"842 1239 LINE",
"746 1279 OFFCURVE",
"642 1296 OFFCURVE",
"538 1300 CURVE",
"538 1465 LINE",
"458 1465 LINE",
"458 1300 LINE",
"261 1290 OFFCURVE",
"105 1198 OFFCURVE",
"105 969 CURVE SMOOTH",
"105 786 OFFCURVE",
"209 700 OFFCURVE",
"376 644 CURVE SMOOTH",
"459 616 LINE",
"459 96 LINE",
"305 98 OFFCURVE",
"207 141 OFFCURVE",
"133 173 CURVE",
"105 68 LINE",
"205 14 OFFCURVE",
"336 -8 OFFCURVE",
"459 -10 CURVE",
"459 -188 LINE"
);
},
{
closed = 1;
nodes = (
"538 590 LINE",
"674 542 OFFCURVE",
"745 499 OFFCURVE",
"745 355 CURVE SMOOTH",
"745 201 OFFCURVE",
"664 121 OFFCURVE",
"538 101 CURVE"
);
},
{
closed = 1;
nodes = (
"417 761 LINE SMOOTH",
"265 816 OFFCURVE",
"233 867 OFFCURVE",
"233 972 CURVE SMOOTH",
"233 1122 OFFCURVE",
"330 1181 OFFCURVE",
"458 1193 CURVE",
"458 746 LINE"
);
}
);
width = 947;
}
);
unicode = 0024;
},
{
glyphname = dong;
layers = (
{
components = (
{
name = dcroat;
}
);
layerId = "1D628CB9-BBF5-410A-9D74-9E6094BFE839";
paths = (
{
closed = 1;
nodes = (
"870 -197 LINE",
"870 -91 LINE",
"127 -91 LINE",
"127 -197 LINE"
);
}
);
width = 1010;
}
);
unicode = 20AB;
},
{
glyphname = euro;
layers = (
{
layerId = "1D628CB9-BBF5-410A-9D74-9E6094BFE839";
paths = (
{
closed = 1;
nodes = (
"773 -10 OFFCURVE",
"877 8 OFFCURVE",
"994 64 CURVE",
"954 161 LINE",
"851 112 OFFCURVE",
"764 96 OFFCURVE",
"677 96 CURVE SMOOTH",
"487 96 OFFCURVE",
"341 229 OFFCURVE",
"320 555 CURVE",
"717 555 LINE",
"717 646 LINE",
"317 646 LINE",
"317 683 OFFCURVE",
"318 717 OFFCURVE",
"320 749 CURVE",
"717 749 LINE",
"717 840 LINE",
"328 840 LINE",
"363 1124 OFFCURVE",
"480 1195 OFFCURVE",
"668 1195 CURVE SMOOTH",
"739 1195 OFFCURVE",
"806 1180 OFFCURVE",
"858 1157 CURVE",
"858 984 LINE",
"967 984 LINE",
"967 1226 LINE",
"857 1280 OFFCURVE",
"756 1301 OFFCURVE",
"657 1301 CURVE SMOOTH",
"390 1301 OFFCURVE",
"240 1167 OFFCURVE",
"200 840 CURVE",
"71 840 LINE",
"71 749 LINE",
"192 749 LINE",
"190 716 OFFCURVE",
"189 682 OFFCURVE",
"189 646 CURVE",
"71 646 LINE",
"71 555 LINE",
"192 555 LINE",
"217 164 OFFCURVE",
"418 -10 OFFCURVE",
"669 -10 CURVE SMOOTH"
);
}
);
width = 1059;
}
);
unicode = 20AC;
},
{
glyphname = florin;
layers = (
{
layerId = "1D628CB9-BBF5-410A-9D74-9E6094BFE839";
paths = (
{
closed = 1;
nodes = (
"315 -416 OFFCURVE",
"365 -239 OFFCURVE",
"393 -31 CURVE",
"395 -31 LINE",
"511 840 LINE",
"801 840 LINE",
"819 952 LINE",
"525 952 LINE",
"537 1057 OFFCURVE",
"560 1137 OFFCURVE",
"594 1194 CURVE",
"623 1261 OFFCURVE",
"652 1290 OFFCURVE",
"727 1290 CURVE SMOOTH",
"766 1290 OFFCURVE",
"813 1282 OFFCURVE",
"867 1266 CURVE",
"895 1380 LINE",
"851 1391 OFFCURVE",
"811 1399 OFFCURVE",
"776 1403 CURVE",
"703 1403 LINE",
"489 1389 OFFCURVE",
"441 1186 OFFCURVE",
"412 952 CURVE",
"240 952 LINE",
"224 840 LINE",
"397 840 LINE",
"339 373 OFFCURVE",
"300 81 OFFCURVE",
"282 -37 CURVE SMOOTH",
"261 -170 OFFCURVE",
"238 -244 OFFCURVE",
"165 -276 CURVE",
"139 -296 OFFCURVE",
"108 -306 OFFCURVE",
"72 -306 CURVE SMOOTH",
"67 -306 OFFCURVE",
"62 -305 OFFCURVE",
"57 -305 CURVE",
"48 -416 LINE",
"65 -417 OFFCURVE",
"79 -418 OFFCURVE",
"88 -418 CURVE SMOOTH"
);
}
);
width = 997;
}
);
unicode = 0192;
},
{
glyphname = franc;
layers = (
{
components = (
{
name = F;
}
);
layerId = "1D628CB9-BBF5-410A-9D74-9E6094BFE839";
paths = (
{
closed = 1;
nodes = (
"566 308 LINE",
"566 402 LINE",
"46 402 LINE",
"46 308 LINE"
);
}
);
width = 852;
}
);
unicode = 20A3;
},
{
glyphname = guarani;
layers = (
{
components = (
{
name = G;
}
);
layerId = "1D628CB9-BBF5-410A-9D74-9E6094BFE839";
paths = (
{
closed = 1;
nodes = (
"621 -188 LINE",
"621 1465 LINE",
"537 1465 LINE",
"537 -188 LINE"
);
}
);
width = 1094;
}
);
unicode = 20B2;
},
{
glyphname = kip;
layers = (
{
layerId = "1D628CB9-BBF5-410A-9D74-9E6094BFE839";
paths = (
{
closed = 1;
nodes = (
"277 0 LINE",
"277 610 LINE",
"851 0 LINE",
"1001 0 LINE",
"394 642 LINE",
"975 1284 LINE",
"825 1284 LINE",
"277 669 LINE",
"277 1284 LINE",
"149 1284 LINE",
"149 0 LINE"
);
},
{
closed = 1;
nodes = (
"260 588 LINE",
"277 628 LINE",
"314 588 LINE",
"761 588 LINE",
"761 692 LINE",
"314 692 LINE",
"277 651 LINE",
"260 692 LINE",
"37 692 LINE",
"37 588 LINE"
);
}
);
width = 1032;
},
{
associatedMasterId = "1D628CB9-BBF5-410A-9D74-9E6094BFE839";
layerId = "CBA633F2-B1B0-4977-9F24-82FE378AEA33";
name = "Regular Jul 6 16, 11:36";
paths = (
{
closed = 1;
nodes = (
"277 0 LINE",
"149 0 LINE",
"149 1284 LINE",
"277 1284 LINE",
"277 609 LINE",
"432 778 LINE",
"825 1284 LINE",
"975 1284 LINE",
"550 721 LINE",
"1001 0 LINE",
"860 0 LINE",
"453 652 LINE",
"277 480 LINE"
);
}
);
width = 1032;
}
);
unicode = 20AD;
userData = {
com.typemytype.robofont.layerData = {
"Regular Jul 6 16, 11:36" = {
anchors = (
);
components = (
);
contours = (
{
points = (
{
segmentType = line;
smooth = 0;
x = 277;
y = 0;
},
{
segmentType = line;
smooth = 0;
x = 149;
y = 0;
},
{
segmentType = line;
smooth = 0;
x = 149;
y = 1284;
},
{
segmentType = line;
smooth = 0;
x = 277;
y = 1284;
},
{
segmentType = line;
smooth = 0;
x = 277;
y = 609;
},
{
segmentType = line;
smooth = 0;
x = 432;
y = 778;
},
{
segmentType = line;
smooth = 0;
x = 825;
y = 1284;
},
{
segmentType = line;
smooth = 0;
x = 975;
y = 1284;
},
{
segmentType = line;
smooth = 0;
x = 550;
y = 721;
},
{
segmentType = line;
smooth = 0;
x = 1001;
y = 0;
},
{
segmentType = line;
smooth = 0;
x = 860;
y = 0;
},
{
segmentType = line;
smooth = 0;
x = 453;
y = 652;
},
{
segmentType = line;
smooth = 0;
x = 277;
y = 480;
}
);
}
);
lib = {
};
name = kip;
unicodes = (
);
width = 1032;
};
};
};
},
{
glyphname = lira;
layers = (
{
layerId = "1D628CB9-BBF5-410A-9D74-9E6094BFE839";
paths = (
{
closed = 1;
nodes = (
"823 0 LINE",
"822 96 LINE",
"250 96 LINE",
"346 195 OFFCURVE",
"374 305 OFFCURVE",
"374 413 CURVE SMOOTH",
"374 602 OFFCURVE",
"291 778 OFFCURVE",
"291 938 CURVE SMOOTH",
"291 1104 OFFCURVE",
"374 1195 OFFCURVE",
"551 1195 CURVE SMOOTH",
"621 1195 OFFCURVE",
"694 1171 OFFCURVE",
"755 1128 CURVE",
"797 1221 LINE",
"721 1276 OFFCURVE",
"634 1303 OFFCURVE",
"549 1303 CURVE SMOOTH",
"315 1303 OFFCURVE",
"178 1183 OFFCURVE",
"178 954 CURVE SMOOTH",
"178 772 OFFCURVE",
"261 624 OFFCURVE",
"261 455 CURVE SMOOTH",
"261 307 OFFCURVE",
"200 204 OFFCURVE",
"117 117 CURVE",
"156 -1 LINE"
);
},
{
closed = 1;
nodes = (
"306 454 LINE",
"284 550 LINE",
"85 550 LINE",
"85 454 LINE"
);
},
{
closed = 1;
nodes = (
"256 686 LINE",
"234 782 LINE",
"85 782 LINE",
"85 686 LINE"
);
},
{
closed = 1;
nodes = (
"665 454 LINE",
"665 550 LINE",
"322 550 LINE",
"344 454 LINE"
);
},
{
closed = 1;
nodes = (
"665 686 LINE",
"665 782 LINE",
"272 782 LINE",
"294 686 LINE"
);
}
);
width = 913;
},
{
associatedMasterId = "1D628CB9-BBF5-410A-9D74-9E6094BFE839";
layerId = "31D1B745-C8A4-4804-975D-D3CC9DF6C178";
name = "Regular Jul 6 16, 11:19";
paths = (
{
closed = 1;
nodes = (
"156 -1 LINE",
"117 117 LINE",
"200 204 OFFCURVE",
"261 307 OFFCURVE",
"261 455 CURVE SMOOTH",
"261 504 OFFCURVE",
"255 557 OFFCURVE",
"240 616 CURVE",
"85 616 LINE",
"85 712 LINE",
"218 712 LINE",
"191 803 OFFCURVE",
"178 884 OFFCURVE",
"178 954 CURVE SMOOTH",
"178 1183 OFFCURVE",
"315 1303 OFFCURVE",
"549 1303 CURVE SMOOTH",
"634 1303 OFFCURVE",
"721 1276 OFFCURVE",
"797 1221 CURVE",
"755 1128 LINE",
"694 1171 OFFCURVE",
"621 1195 OFFCURVE",
"551 1195 CURVE SMOOTH",
"374 1195 OFFCURVE",
"291 1104 OFFCURVE",
"291 938 CURVE SMOOTH",
"291 874 OFFCURVE",
"304 798 OFFCURVE",
"328 712 CURVE",
"665 712 LINE",
"665 616 LINE",
"350 616 LINE",
"362 552 OFFCURVE",
"374 483 OFFCURVE",
"374 413 CURVE SMOOTH",
"374 305 OFFCURVE",
"346 195 OFFCURVE",
"250 96 CURVE",
"822 96 LINE",
"823 0 LINE"
);
}
);
width = 913;
}
);
leftMetricsKey = "=sterling";
rightMetricsKey = "=sterling";
unicode = 20A4;
userData = {
com.schriftgestaltung.Glyphs.leftMetricsKey = "=sterling";
com.schriftgestaltung.Glyphs.rightMetricsKey = "=sterling";
com.typemytype.robofont.layerData = {
"Regular Jul 6 16, 11:19" = {
anchors = (
);
components = (
);
contours = (
{
points = (
{
segmentType = line;
smooth = 0;
x = 156;
y = -1;
},
{
segmentType = line;
smooth = 0;
x = 117;
y = 117;
},
{
smooth = 0;
x = 200;
y = 204;
},
{
smooth = 0;
x = 261;
y = 307;
},
{
segmentType = curve;
smooth = 1;
x = 261;
y = 455;
},
{
smooth = 0;
x = 261;
y = 504;
},
{
smooth = 0;
x = 255;
y = 557;
},
{
segmentType = curve;
smooth = 0;
x = 240;
y = 616;
},
{
segmentType = line;
smooth = 0;
x = 85;
y = 616;
},
{
segmentType = line;
smooth = 0;
x = 85;
y = 712;
},
{
segmentType = line;
smooth = 0;
x = 218;
y = 712;
},
{
smooth = 0;
x = 191;
y = 803;
},
{
smooth = 0;
x = 178;
y = 884;
},
{
segmentType = curve;
smooth = 1;
x = 178;
y = 954;
},
{
smooth = 0;
x = 178;
y = 1183;
},
{
smooth = 0;
x = 315;
y = 1303;
},
{
segmentType = curve;
smooth = 1;
x = 549;
y = 1303;
},
{
smooth = 0;
x = 634;
y = 1303;
},
{
smooth = 0;
x = 721;
y = 1276;
},
{
segmentType = curve;
smooth = 0;
x = 797;
y = 1221;
},
{
segmentType = line;
smooth = 0;
x = 755;
y = 1128;
},
{
smooth = 0;
x = 694;
y = 1171;
},
{
smooth = 0;
x = 621;
y = 1195;
},
{
segmentType = curve;
smooth = 1;
x = 551;
y = 1195;
},
{
smooth = 0;
x = 374;
y = 1195;
},
{
smooth = 0;
x = 291;
y = 1104;
},
{
segmentType = curve;
smooth = 1;
x = 291;
y = 938;
},
{
smooth = 0;
x = 291;
y = 874;
},
{
smooth = 0;
x = 304;
y = 798;
},
{
segmentType = curve;
smooth = 0;
x = 328;
y = 712;
},
{
segmentType = line;
smooth = 0;
x = 665;
y = 712;
},
{
segmentType = line;
smooth = 0;
x = 665;
y = 616;
},
{
segmentType = line;
smooth = 0;
x = 350;
y = 616;
},
{
smooth = 0;
x = 362;
y = 552;
},
{
smooth = 0;
x = 374;
y = 483;
},
{
segmentType = curve;
smooth = 1;
x = 374;
y = 413;
},
{
smooth = 0;
x = 374;
y = 305;
},
{
smooth = 0;
x = 346;
y = 195;
},
{
segmentType = curve;
smooth = 0;
x = 250;
y = 96;
},
{
segmentType = line;
smooth = 0;
x = 822;
y = 96;
},
{
segmentType = line;
smooth = 0;
x = 823;
y = 0;
}
);
}
);
lib = {
};
name = lira;
unicodes = (
);
width = 913;
};
};
};
},
{
glyphname = liraTurkish;
layers = (
{
layerId = "1D628CB9-BBF5-410A-9D74-9E6094BFE839";
paths = (
{
closed = 1;
nodes = (
"456 0 LINE SMOOTH",
"810 0 OFFCURVE",
"924 142 OFFCURVE",
"924 586 CURVE",
"796 586 LINE",
"796 197 OFFCURVE",
"728 100 OFFCURVE",
"456 100 CURVE SMOOTH",
"300 100 LINE",
"300 1284 LINE",
"172 1284 LINE",
"172 0 LINE"
);
},
{
closed = 1;
nodes = (
"822 724 LINE",
"822 824 LINE",
"60 604 LINE",
"60 504 LINE"
);
},
{
closed = 1;
nodes = (
"822 924 LINE",
"822 1024 LINE",
"60 804 LINE",
"60 704 LINE"
);
}
);
width = 1004;
}
);
unicode = 20BA;
},
{
glyphname = manat;
layers = (
{
layerId = "1D628CB9-BBF5-410A-9D74-9E6094BFE839";
paths = (
{
closed = 1;
nodes = (
"244 0 LINE",
"244 504 LINE SMOOTH",
"244 777 OFFCURVE",
"317 894 OFFCURVE",
"564 894 CURVE SMOOTH",
"811 894 OFFCURVE",
"884 777 OFFCURVE",
"884 504 CURVE SMOOTH",
"884 0 LINE",
"1012 0 LINE",
"1012 504 LINE SMOOTH",
"1012 821 OFFCURVE",
"913 1000 OFFCURVE",
"564 1000 CURVE SMOOTH",
"215 1000 OFFCURVE",
"116 821 OFFCURVE",
"116 504 CURVE SMOOTH",
"116 0 LINE"
);
},
{
closed = 1;
nodes = (
"628 0 LINE",
"628 1284 LINE",
"500 1284 LINE",
"500 0 LINE"
);
}
);
width = 1128;
}
);
unicode = 20BC;
},
{
glyphname = naira;
layers = (
{
components = (
{
name = N;
transform = "{0.9, 0, 0, 1, 0, 0}";
}
);
layerId = "1D628CB9-BBF5-410A-9D74-9E6094BFE839";
paths = (
{
closed = 1;
nodes = (
"1053 739 LINE",
"1053 835 LINE",
"22 835 LINE",
"22 739 LINE"
);
},
{
closed = 1;
nodes = (
"1053 459 LINE",
"1053 555 LINE",
"22 555 LINE",
"22 459 LINE"
);
}
);
width = 1075;
}
);
unicode = 20A6;
},
{
glyphname = peseta;
layers = (
{
layerId = "1D628CB9-BBF5-410A-9D74-9E6094BFE839";
paths = (
{
closed = 1;
nodes = (
"277 0 LINE",
"277 536 LINE",
"434 536 LINE SMOOTH",
"705 536 OFFCURVE",
"837 661 OFFCURVE",
"837 915 CURVE SMOOTH",
"837 1163 OFFCURVE",
"699 1284 OFFCURVE",
"418 1284 CURVE SMOOTH",
"149 1284 LINE",
"149 0 LINE"
);
},
{
closed = 1;
nodes = (
"277 1184 LINE",
"426 1184 LINE SMOOTH",
"614 1184 OFFCURVE",
"709 1129 OFFCURVE",
"709 912 CURVE SMOOTH",
"709 676 OFFCURVE",
"616 640 OFFCURVE",
"421 640 CURVE SMOOTH",
"277 640 LINE"
);
},
{
closed = 1;
nodes = (
"1348 -10 OFFCURVE",
"1400 -6 OFFCURVE",
"1452 4 CURVE",
"1447 107 LINE",
"1425 101 OFFCURVE",
"1380 96 OFFCURVE",
"1332 96 CURVE SMOOTH",
"1235 96 OFFCURVE",
"1178 123 OFFCURVE",
"1178 386 CURVE SMOOTH",
"1178 895 LINE",
"1426 895 LINE",
"1426 985 LINE",
"1178 985 LINE",
"1178 1267 LINE",
"1079 1267 LINE",
"1054 985 LINE",
"897 985 LINE",
"897 895 LINE",
"1050 895 LINE",
"1050 388 LINE SMOOTH",
"1050 119 OFFCURVE",
"1096 -4 OFFCURVE",
"1298 -10 CURVE SMOOTH"
);
},
{
closed = 1;
nodes = (
"1977 -10 OFFCURVE",
"2125 63 OFFCURVE",
"2125 271 CURVE SMOOTH",
"2125 425 OFFCURVE",
"2062 505 OFFCURVE",
"1904 552 CURVE SMOOTH",
"1787 587 LINE SMOOTH",
"1701 613 OFFCURVE",
"1648 647 OFFCURVE",
"1648 740 CURVE SMOOTH",
"1648 855 OFFCURVE",
"1745 895 OFFCURVE",
"1855 895 CURVE SMOOTH",
"1929 895 OFFCURVE",
"1998 877 OFFCURVE",
"2053 852 CURVE",
"2091 948 LINE",
"2018 982 OFFCURVE",
"1942 1000 OFFCURVE",
"1846 1000 CURVE SMOOTH",
"1678 1000 OFFCURVE",
"1526 929 OFFCURVE",
"1526 745 CURVE SMOOTH",
"1526 572 OFFCURVE",
"1615 511 OFFCURVE",
"1749 472 CURVE SMOOTH",
"1869 437 LINE SMOOTH",
"1957 411 OFFCURVE",
"2000 355 OFFCURVE",
"2000 265 CURVE SMOOTH",
"2000 137 OFFCURVE",
"1910 96 OFFCURVE",
"1806 96 CURVE SMOOTH",
"1717 96 OFFCURVE",
"1606 135 OFFCURVE",
"1543 167 CURVE",
"1502 69 LINE",
"1592 23 OFFCURVE",
"1707 -10 OFFCURVE",
"1812 -10 CURVE SMOOTH"
);
}
);
width = 2201;
}
);
leftMetricsKey = P;
rightMetricsKey = s;
unicode = 20A7;
userData = {
com.schriftgestaltung.Glyphs.leftMetricsKey = P;
com.schriftgestaltung.Glyphs.rightMetricsKey = s;
};
},
{
glyphname = peso;
layers = (
{
layerId = "1D628CB9-BBF5-410A-9D74-9E6094BFE839";
paths = (
{
closed = 1;
nodes = (
"290 0 LINE",
"290 436 LINE",
"397 436 LINE SMOOTH",
"742 436 OFFCURVE",
"930 505 OFFCURVE",
"930 855 CURVE SMOOTH",
"930 1189 OFFCURVE",
"770 1284 OFFCURVE",
"511 1284 CURVE SMOOTH",
"162 1284 LINE",
"162 0 LINE"
);
},
{
closed = 1;
nodes = (
"1042 690 LINE",
"1042 786 LINE",
"60 786 LINE",
"60 690 LINE"
);
},
{
closed = 1;
nodes = (
"290 1184 LINE",
"519 1184 LINE SMOOTH",
"707 1184 OFFCURVE",
"802 1117 OFFCURVE",
"802 853 CURVE SMOOTH",
"802 548 OFFCURVE",
"664 540 OFFCURVE",
"374 540 CURVE SMOOTH",
"290 540 LINE"
);
},
{
closed = 1;
nodes = (
"1042 938 LINE",
"1042 1034 LINE",
"60 1034 LINE",
"60 938 LINE"
);
}
);
width = 1102;
}
);
unicode = 20B1;
},
{
glyphname = ruble;
layers = (
{
layerId = "1D628CB9-BBF5-410A-9D74-9E6094BFE839";
paths = (
{
closed = 1;
nodes = (
"290 0 LINE",
"290 516 LINE",
"397 516 LINE SMOOTH",
"742 516 OFFCURVE",
"930 578 OFFCURVE",
"930 895 CURVE SMOOTH",
"930 1198 OFFCURVE",
"770 1284 OFFCURVE",
"511 1284 CURVE SMOOTH",
"162 1284 LINE",
"162 0 LINE"
);
},
{
closed = 1;
nodes = (
"702 230 LINE",
"702 326 LINE",
"60 326 LINE",
"60 230 LINE"
);
},
{
closed = 1;
nodes = (
"290 1184 LINE",
"519 1184 LINE SMOOTH",
"707 1184 OFFCURVE",
"802 1125 OFFCURVE",
"802 893 CURVE SMOOTH",
"802 627 OFFCURVE",
"664 620 OFFCURVE",
"374 620 CURVE SMOOTH",
"290 620 LINE"
);
}
);
width = 1020;
}
);
unicode = 20BD;
},
{
glyphname = rupeeIndian;
layers = (
{
layerId = "1D628CB9-BBF5-410A-9D74-9E6094BFE839";
paths = (
{
closed = 1;
nodes = (
"774 0 LINE",
"204 598 LINE",
"200 562 LINE",
"547 562 OFFCURVE",
"730 624 OFFCURVE",
"730 922 CURVE SMOOTH",
"730 1072 OFFCURVE",
"686 1161 OFFCURVE",
"599 1212 CURVE",
"598 1184 LINE",
"842 1184 LINE",
"842 1284 LINE",
"90 1284 LINE",
"90 1184 LINE",
"209 1184 LINE SMOOTH",
"473 1184 OFFCURVE",
"608 1166 OFFCURVE",
"608 920 CURVE SMOOTH",
"608 697 OFFCURVE",
"508 662 OFFCURVE",
"181 662 CURVE SMOOTH",
"90 662 LINE",
"90 562 LINE",
"619 0 LINE"
);
},
{
closed = 1;
nodes = (
"842 874 LINE",
"842 974 LINE",
"90 974 LINE",
"90 874 LINE"
);
}
);
width = 932;
}
);
unicode = 20B9;
},
{
glyphname = sterling;
layers = (
{
layerId = "1D628CB9-BBF5-410A-9D74-9E6094BFE839";
paths = (
{
closed = 1;
nodes = (
"823 0 LINE",
"822 96 LINE",
"250 96 LINE",
"346 195 OFFCURVE",
"374 305 OFFCURVE",
"374 413 CURVE SMOOTH",
"374 483 OFFCURVE",
"362 552 OFFCURVE",
"350 616 CURVE",
"665 616 LINE",
"665 712 LINE",
"328 712 LINE",
"304 798 OFFCURVE",
"291 874 OFFCURVE",
"291 938 CURVE SMOOTH",
"291 1104 OFFCURVE",
"374 1195 OFFCURVE",
"551 1195 CURVE SMOOTH",
"621 1195 OFFCURVE",
"694 1171 OFFCURVE",
"755 1128 CURVE",
"797 1221 LINE",
"721 1276 OFFCURVE",
"634 1303 OFFCURVE",
"549 1303 CURVE SMOOTH",
"315 1303 OFFCURVE",
"178 1183 OFFCURVE",
"178 954 CURVE SMOOTH",
"178 884 OFFCURVE",
"191 803 OFFCURVE",
"218 712 CURVE",
"85 712 LINE",
"85 616 LINE",
"240 616 LINE",
"255 557 OFFCURVE",
"261 504 OFFCURVE",
"261 455 CURVE SMOOTH",
"261 307 OFFCURVE",
"200 204 OFFCURVE",
"117 117 CURVE",
"156 -1 LINE"
);
}
);
width = 913;
}
);
unicode = 00A3;
},
{
glyphname = won;
layers = (
{
layerId = "1D628CB9-BBF5-410A-9D74-9E6094BFE839";
paths = (
{
closed = 1;
nodes = (
"437 0 LINE",
"691 992 LINE",
"953 0 LINE",
"1095 0 LINE",
"1215 1284 LINE",
"1097 1284 LINE",
"1001 183 LINE",
"748 1156 LINE",
"633 1156 LINE",
"390 185 LINE",
"285 1284 LINE",
"167 1284 LINE",
"296 0 LINE"
);
},
{
closed = 1;
nodes = (
"1281 509 LINE",
"1281 605 LINE",
"100 605 LINE",
"100 509 LINE"
);
},
{
closed = 1;
nodes = (
"1281 749 LINE",
"1281 845 LINE",
"100 845 LINE",
"100 749 LINE"
);
}
);
width = 1381;
}
);
unicode = 20A9;
},
{
glyphname = yen;
layers = (
{
layerId = "1D628CB9-BBF5-410A-9D74-9E6094BFE839";
paths = (
{
closed = 1;
nodes = (
"629 0 LINE",
"629 355 LINE",
"886 355 LINE",
"886 452 LINE",
"629 452 LINE",
"629 559 LINE",
"886 559 LINE",
"887 655 LINE",
"656 655 LINE",
"1013 1284 LINE",
"867 1284 LINE",
"565 704 LINE",
"259 1284 LINE",
"117 1284 LINE",
"473 655 LINE",
"239 655 LINE",
"239 559 LINE",
"501 559 LINE",
"501 452 LINE",
"239 452 LINE",
"239 355 LINE",
"501 355 LINE",
"501 0 LINE"
);
}
);
width = 1132;
}
);
unicode = 00A5;
},
{
glyphname = plus;
layers = (
{
layerId = "1D628CB9-BBF5-410A-9D74-9E6094BFE839";
paths = (
{
closed = 1;
nodes = (
"550 176 LINE",
"550 541 LINE",
"884 541 LINE",
"884 645 LINE",
"550 645 LINE",
"550 1010 LINE",
"445 1010 LINE",
"445 645 LINE",
"110 645 LINE",
"110 541 LINE",
"445 541 LINE",
"445 176 LINE"
);
}
);
width = 996;
}
);
unicode = 002B;
},
{
glyphname = multiply;
layers = (
{
layerId = "1D628CB9-BBF5-410A-9D74-9E6094BFE839";
paths = (
{
closed = 1;
nodes = (
"497 519 LINE",
"755 261 LINE",
"829 335 LINE",
"572 593 LINE",
"829 851 LINE",
"755 925 LINE",
"498 667 LINE",
"240 925 LINE",
"166 851 LINE",
"423 593 LINE",
"166 335 LINE",
"240 261 LINE"
);
}
);
width = 996;
}
);
unicode = 00D7;
},
{
glyphname = divide;
layers = (
{
layerId = "1D628CB9-BBF5-410A-9D74-9E6094BFE839";
paths = (
{
closed = 1;
nodes = (
"866 548 LINE",
"866 646 LINE",
"110 646 LINE",
"110 548 LINE"
);
},
{
closed = 1;
nodes = (
"548 242 OFFCURVE",
"565 287 OFFCURVE",
"565 352 CURVE",
"544 393 OFFCURVE",
"506 414 OFFCURVE",
"453 414 CURVE",
"418 391 OFFCURVE",
"401 347 OFFCURVE",
"401 282 CURVE SMOOTH",
"401 281 LINE",
"421 240 OFFCURVE",
"459 219 OFFCURVE",
"514 219 CURVE"
);
},
{
closed = 1;
nodes = (
"514 771 LINE",
"548 779 OFFCURVE",
"565 808 OFFCURVE",
"565 857 CURVE SMOOTH",
"565 914 OFFCURVE",
"548 951 OFFCURVE",
"514 968 CURVE",
"453 968 LINE",
"418 959 OFFCURVE",
"401 930 OFFCURVE",
"401 881 CURVE SMOOTH",
"401 824 OFFCURVE",
"418 788 OFFCURVE",
"453 771 CURVE"
);
}
);
width = 978;
}
);
unicode = 00F7;
},
{
glyphname = equal;
layers = (
{
layerId = "1D628CB9-BBF5-410A-9D74-9E6094BFE839";
paths = (
{
closed = 1;
nodes = (
"897 684 LINE",
"897 780 LINE",
"123 780 LINE",
"123 684 LINE"
);
},
{
closed = 1;
nodes = (
"897 371 LINE",
"897 467 LINE",
"123 467 LINE",
"123 371 LINE"
);
}
);
width = 1025;
}
);
unicode = 003D;
},
{
glyphname = notequal;
layers = (
{
layerId = "1D628CB9-BBF5-410A-9D74-9E6094BFE839";
paths = (
{
closed = 1;
nodes = (
"471 334 LINE",
"1021 334 LINE",
"1021 428 LINE",
"531 428 LINE",
"712 715 LINE",
"1021 715 LINE",
"1021 807 LINE",
"771 807 LINE",
"914 1030 LINE",
"842 1085 LINE",
"666 807 LINE",
"128 807 LINE",
"128 715 LINE",
"603 715 LINE",
"428 428 LINE",
"128 428 LINE",
"128 334 LINE",
"369 334 LINE",
"223 111 LINE",
"293 53 LINE"
);
}
);
width = 1152;
}
);
unicode = 2260;
},
{
glyphname = greater;
layers = (
{
layerId = "1D628CB9-BBF5-410A-9D74-9E6094BFE839";
paths = (
{
closed = 1;
nodes = (
"899 563 LINE",
"899 629 LINE",
"186 1116 LINE",
"130 1030 LINE",
"774 596 LINE",
"130 150 LINE",
"186 61 LINE"
);
}
);
width = 1009;
}
);
unicode = 003E;
},
{
glyphname = less;
layers = (
{
layerId = "1D628CB9-BBF5-410A-9D74-9E6094BFE839";
paths = (
{
closed = 1;
nodes = (
"874 150 LINE",
"233 596 LINE",
"876 1030 LINE",
"819 1116 LINE",
"108 629 LINE",
"108 563 LINE",
"819 61 LINE"
);
}
);
width = 1005;
}
);
unicode = 003C;
},
{
glyphname = greaterequal;
layers = (
{
layerId = "1D628CB9-BBF5-410A-9D74-9E6094BFE839";
paths = (
{
closed = 1;
nodes = (
"999 678 LINE",
"999 768 LINE",
"158 1161 LINE",
"136 1065 LINE",
"883 725 LINE",
"883 723 LINE",
"136 369 LINE",
"158 274 LINE"
);
},
{
closed = 1;
nodes = (
"956 123 LINE",
"183 123 LINE",
"174 49 LINE",
"306 49 LINE",
"946 43 LINE"
);
}
);
width = 1129;
}
);
unicode = 2265;
},
{
glyphname = lessequal;
layers = (
{
layerId = "1D628CB9-BBF5-410A-9D74-9E6094BFE839";
paths = (
{
closed = 1;
nodes = (
"989 369 LINE",
"243 725 LINE",
"989 1065 LINE",
"968 1161 LINE",
"129 768 LINE",
"129 680 LINE",
"968 274 LINE"
);
},
{
closed = 1;
nodes = (
"949 43 LINE",
"940 129 LINE",
"168 129 LINE",
"177 43 LINE"
);
}
);
width = 1127;
}
);
unicode = 2264;
},
{
glyphname = plusminus;
layers = (
{
layerId = "1D628CB9-BBF5-410A-9D74-9E6094BFE839";
paths = (
{
closed = 1;
nodes = (
"641 299 LINE",
"641 610 LINE",
"1024 610 LINE",
"1024 719 LINE",
"641 719 LINE",
"641 1042 LINE",
"534 1042 LINE",
"534 719 LINE",
"151 719 LINE",
"151 610 LINE",
"534 610 LINE",
"534 299 LINE"
);
},
{
closed = 1;
nodes = (
"1024 82 LINE",
"1024 188 LINE",
"151 188 LINE",
"151 82 LINE"
);
}
);
width = 1176;
}
);
unicode = 00B1;
},
{
glyphname = approxequal;
layers = (
{
background = {
paths = (
{
closed = 1;
nodes = (
"943 660 LINE SMOOTH",
"897 606 OFFCURVE",
"838 579 OFFCURVE",
"773 578 CURVE SMOOTH",
"725 578 OFFCURVE",
"655 606 OFFCURVE",
"630 620 CURVE",
"564 662 LINE",
"503 696 LINE",
"442 733 OFFCURVE",
"410 746 OFFCURVE",
"377 746 CURVE SMOOTH",
"314 746 OFFCURVE",
"259 691 OFFCURVE",
"192 603 CURVE",
"125 667 LINE",
"211 786 OFFCURVE",
"294 848 OFFCURVE",
"380 848 CURVE SMOOTH",
"433 848 OFFCURVE",
"470 829 OFFCURVE",
"609 752 CURVE SMOOTH",
"697 703 OFFCURVE",
"741 683 OFFCURVE",
"777 683 CURVE SMOOTH",
"832 683 OFFCURVE",
"893 733 OFFCURVE",
"956 821 CURVE",
"1020 758 LINE",
"1020 755 LINE",
"980 703 LINE"
);
},
{
closed = 1;
nodes = (
"940 284 LINE SMOOTH",
"894 230 OFFCURVE",
"833 203 OFFCURVE",
"771 202 CURVE SMOOTH",
"735 202 OFFCURVE",
"699 208 OFFCURVE",
"663 226 CURVE SMOOTH",
"621 247 LINE SMOOTH",
"611 252 OFFCURVE",
"596 261 OFFCURVE",
"575 275 CURVE SMOOTH",
"537 300 LINE",
"467 340 OFFCURVE",
"420 368 OFFCURVE",
"375 368 CURVE SMOOTH",
"308 368 OFFCURVE",
"248 302 OFFCURVE",
"189 225 CURVE",
"123 289 LINE",
"205 408 OFFCURVE",
"295 467 OFFCURVE",
"377 467 CURVE SMOOTH",
"438 467 OFFCURVE",
"519 426 OFFCURVE",
"599 376 CURVE SMOOTH",
"656 340 LINE SMOOTH",
"681 324 OFFCURVE",
"739 302 OFFCURVE",
"778 302 CURVE SMOOTH",
"832 302 OFFCURVE",
"893 355 OFFCURVE",
"956 441 CURVE",
"1020 380 LINE",
"1017 379 LINE",
"977 327 LINE"
);
}
);
};
layerId = "1D628CB9-BBF5-410A-9D74-9E6094BFE839";
paths = (
{
closed = 1;
nodes = (
"883 578 OFFCURVE",
"932 627 OFFCURVE",
"1034 744 CURVE",
"966 810 LINE",
"899 729 OFFCURVE",
"847 683 OFFCURVE",
"777 683 CURVE SMOOTH",
"649 683 OFFCURVE",
"534 848 OFFCURVE",
"380 848 CURVE SMOOTH",
"286 848 OFFCURVE",
"211 786 OFFCURVE",
"125 667 CURVE",
"197 609 LINE",
"266 693 OFFCURVE",
"316 746 OFFCURVE",
"386 746 CURVE SMOOTH",
"508 746 OFFCURVE",
"623 578 OFFCURVE",
"776 578 CURVE SMOOTH"
);
},
{
closed = 1;
nodes = (
"883 196 OFFCURVE",
"932 245 OFFCURVE",
"1034 362 CURVE",
"966 428 LINE",
"899 347 OFFCURVE",
"847 301 OFFCURVE",
"777 301 CURVE SMOOTH",
"649 301 OFFCURVE",
"534 466 OFFCURVE",
"380 466 CURVE SMOOTH",
"286 466 OFFCURVE",
"211 404 OFFCURVE",
"125 285 CURVE",
"197 227 LINE",
"266 311 OFFCURVE",
"316 364 OFFCURVE",
"386 364 CURVE SMOOTH",
"508 364 OFFCURVE",
"623 196 OFFCURVE",
"776 196 CURVE SMOOTH"
);
}
);
width = 1146;
},
{
associatedMasterId = "1D628CB9-BBF5-410A-9D74-9E6094BFE839";
layerId = "7B22127E-7F9B-4BEB-B9E6-997896AA4CBD";
name = "Regular Jul 6 16, 10:54";
paths = (
{
closed = 1;
nodes = (
"943 660 LINE SMOOTH",
"897 606 OFFCURVE",
"838 579 OFFCURVE",
"773 578 CURVE SMOOTH",
"725 578 OFFCURVE",
"655 606 OFFCURVE",
"630 620 CURVE",
"564 662 LINE",
"503 696 LINE",
"442 733 OFFCURVE",
"410 746 OFFCURVE",
"377 746 CURVE SMOOTH",
"314 746 OFFCURVE",
"259 691 OFFCURVE",
"192 603 CURVE",
"125 667 LINE",
"211 786 OFFCURVE",
"294 848 OFFCURVE",
"380 848 CURVE SMOOTH",
"433 848 OFFCURVE",
"470 829 OFFCURVE",
"609 752 CURVE SMOOTH",
"697 703 OFFCURVE",
"741 683 OFFCURVE",
"777 683 CURVE SMOOTH",
"832 683 OFFCURVE",
"893 733 OFFCURVE",
"956 821 CURVE",
"1020 758 LINE",
"1020 755 LINE",
"980 703 LINE"
);
},
{
closed = 1;
nodes = (
"940 284 LINE SMOOTH",
"894 230 OFFCURVE",
"833 203 OFFCURVE",
"771 202 CURVE SMOOTH",
"735 202 OFFCURVE",
"699 208 OFFCURVE",
"663 226 CURVE SMOOTH",
"621 247 LINE SMOOTH",
"611 252 OFFCURVE",
"596 261 OFFCURVE",
"575 275 CURVE SMOOTH",
"537 300 LINE",
"467 340 OFFCURVE",
"420 368 OFFCURVE",
"375 368 CURVE SMOOTH",
"308 368 OFFCURVE",
"248 302 OFFCURVE",
"189 225 CURVE",
"123 289 LINE",
"205 408 OFFCURVE",
"295 467 OFFCURVE",
"377 467 CURVE SMOOTH",
"438 467 OFFCURVE",
"519 426 OFFCURVE",
"599 376 CURVE SMOOTH",
"656 340 LINE SMOOTH",
"681 324 OFFCURVE",
"739 302 OFFCURVE",
"778 302 CURVE SMOOTH",
"832 302 OFFCURVE",
"893 355 OFFCURVE",
"956 441 CURVE",
"1020 380 LINE",
"1017 379 LINE",
"977 327 LINE"
);
}
);
width = 1146;
}
);
unicode = 2248;
userData = {
com.typemytype.robofont.layerData = {
"Regular Jul 6 16, 10:54" = {
anchors = (
);
components = (
);
contours = (
{
points = (
{
segmentType = line;
smooth = 1;
x = 943;
y = 660;
},
{
smooth = 0;
x = 897;
y = 606;
},
{
smooth = 0;
x = 838;
y = 579;
},
{
segmentType = curve;
smooth = 1;
x = 773;
y = 578;
},
{
smooth = 0;
x = 725;
y = 578;
},
{
smooth = 0;
x = 655;
y = 606;
},
{
segmentType = curve;
smooth = 0;
x = 630;
y = 620;
},
{
segmentType = line;
smooth = 0;
x = 564;
y = 662;
},
{
segmentType = line;
smooth = 0;
x = 503;
y = 696;
},
{
smooth = 0;
x = 442;
y = 733;
},
{
smooth = 0;
x = 410;
y = 746;
},
{
segmentType = curve;
smooth = 1;
x = 377;
y = 746;
},
{
smooth = 0;
x = 314;
y = 746;
},
{
smooth = 0;
x = 259;
y = 691;
},
{
segmentType = curve;
smooth = 0;
x = 192;
y = 603;
},
{
segmentType = line;
smooth = 0;
x = 125;
y = 667;
},
{
smooth = 0;
x = 211;
y = 786;
},
{
smooth = 0;
x = 294;
y = 848;
},
{
segmentType = curve;
smooth = 1;
x = 380;
y = 848;
},
{
smooth = 0;
x = 433;
y = 848;
},
{
smooth = 0;
x = 470;
y = 829;
},
{
segmentType = curve;
smooth = 1;
x = 609;
y = 752;
},
{
smooth = 0;
x = 697;
y = 703;
},
{
smooth = 0;
x = 741;
y = 683;
},
{
segmentType = curve;
smooth = 1;
x = 777;
y = 683;
},
{
smooth = 0;
x = 832;
y = 683;
},
{
smooth = 0;
x = 893;
y = 733;
},
{
segmentType = curve;
smooth = 0;
x = 956;
y = 821;
},
{
segmentType = line;
smooth = 0;
x = 1020;
y = 758;
},
{
segmentType = line;
smooth = 0;
x = 1020;
y = 755;
},
{
segmentType = line;
smooth = 0;
x = 980;
y = 703;
}
);
},
{
points = (
{
segmentType = line;
smooth = 1;
x = 940;
y = 284;
},
{
smooth = 0;
x = 894;
y = 230;
},
{
smooth = 0;
x = 833;
y = 203;
},
{
segmentType = curve;
smooth = 1;
x = 771;
y = 202;
},
{
smooth = 0;
x = 735;
y = 202;
},
{
smooth = 0;
x = 699;
y = 208;
},
{
segmentType = curve;
smooth = 1;
x = 663;
y = 226;
},
{
segmentType = line;
smooth = 1;
x = 621;
y = 247;
},
{
smooth = 0;
x = 611;
y = 252;
},
{
smooth = 0;
x = 596;
y = 261;
},
{
segmentType = curve;
smooth = 1;
x = 575;
y = 275;
},
{
segmentType = line;
smooth = 0;
x = 537;
y = 300;
},
{
smooth = 0;
x = 467;
y = 340;
},
{
smooth = 0;
x = 420;
y = 368;
},
{
segmentType = curve;
smooth = 1;
x = 375;
y = 368;
},
{
smooth = 0;
x = 308;
y = 368;
},
{
smooth = 0;
x = 248;
y = 302;
},
{
segmentType = curve;
smooth = 0;
x = 189;
y = 225;
},
{
segmentType = line;
smooth = 0;
x = 123;
y = 289;
},
{
smooth = 0;
x = 205;
y = 408;
},
{
smooth = 0;
x = 295;
y = 467;
},
{
segmentType = curve;
smooth = 1;
x = 377;
y = 467;
},
{
smooth = 0;
x = 438;
y = 467;
},
{
smooth = 0;
x = 519;
y = 426;
},
{
segmentType = curve;
smooth = 1;
x = 599;
y = 376;
},
{
segmentType = line;
smooth = 1;
x = 656;
y = 340;
},
{
smooth = 0;
x = 681;
y = 324;
},
{
smooth = 0;
x = 739;
y = 302;
},
{
segmentType = curve;
smooth = 1;
x = 778;
y = 302;
},
{
smooth = 0;
x = 832;
y = 302;
},
{
smooth = 0;
x = 893;
y = 355;
},
{
segmentType = curve;
smooth = 0;
x = 956;
y = 441;
},
{
segmentType = line;
smooth = 0;
x = 1020;
y = 380;
},
{
segmentType = line;
smooth = 0;
x = 1017;
y = 379;
},
{
segmentType = line;
smooth = 0;
x = 977;
y = 327;
}
);
}
);
lib = {
};
name = approxequal;
unicodes = (
);
width = 1146;
};
background = {
anchors = (
);
components = (
);
contours = (
{
points = (
{
segmentType = line;
smooth = 1;
x = 943;
y = 660;
},
{
smooth = 0;
x = 897;
y = 606;
},
{
smooth = 0;
x = 838;
y = 579;
},
{
segmentType = curve;
smooth = 1;
x = 773;
y = 578;
},
{
smooth = 0;
x = 725;
y = 578;
},
{
smooth = 0;
x = 655;
y = 606;
},
{
segmentType = curve;
smooth = 0;
x = 630;
y = 620;
},
{
segmentType = line;
smooth = 0;
x = 564;
y = 662;
},
{
segmentType = line;
smooth = 0;
x = 503;
y = 696;
},
{
smooth = 0;
x = 442;
y = 733;
},
{
smooth = 0;
x = 410;
y = 746;
},
{
segmentType = curve;
smooth = 1;
x = 377;
y = 746;
},
{
smooth = 0;
x = 314;
y = 746;
},
{
smooth = 0;
x = 259;
y = 691;
},
{
segmentType = curve;
smooth = 0;
x = 192;
y = 603;
},
{
segmentType = line;
smooth = 0;
x = 125;
y = 667;
},
{
smooth = 0;
x = 211;
y = 786;
},
{
smooth = 0;
x = 294;
y = 848;
},
{
segmentType = curve;
smooth = 1;
x = 380;
y = 848;
},
{
smooth = 0;
x = 433;
y = 848;
},
{
smooth = 0;
x = 470;
y = 829;
},
{
segmentType = curve;
smooth = 1;
x = 609;
y = 752;
},
{
smooth = 0;
x = 697;
y = 703;
},
{
smooth = 0;
x = 741;
y = 683;
},
{
segmentType = curve;
smooth = 1;
x = 777;
y = 683;
},
{
smooth = 0;
x = 832;
y = 683;
},
{
smooth = 0;
x = 893;
y = 733;
},
{
segmentType = curve;
smooth = 0;
x = 956;
y = 821;
},
{
segmentType = line;
smooth = 0;
x = 1020;
y = 758;
},
{
segmentType = line;
smooth = 0;
x = 1020;
y = 755;
},
{
segmentType = line;
smooth = 0;
x = 980;
y = 703;
}
);
},
{
points = (
{
segmentType = line;
smooth = 1;
x = 940;
y = 284;
},
{
smooth = 0;
x = 894;
y = 230;
},
{
smooth = 0;
x = 833;
y = 203;
},
{
segmentType = curve;
smooth = 1;
x = 771;
y = 202;
},
{
smooth = 0;
x = 735;
y = 202;
},
{
smooth = 0;
x = 699;
y = 208;
},
{
segmentType = curve;
smooth = 1;
x = 663;
y = 226;
},
{
segmentType = line;
smooth = 1;
x = 621;
y = 247;
},
{
smooth = 0;
x = 611;
y = 252;
},
{
smooth = 0;
x = 596;
y = 261;
},
{
segmentType = curve;
smooth = 1;
x = 575;
y = 275;
},
{
segmentType = line;
smooth = 0;
x = 537;
y = 300;
},
{
smooth = 0;
x = 467;
y = 340;
},
{
smooth = 0;
x = 420;
y = 368;
},
{
segmentType = curve;
smooth = 1;
x = 375;
y = 368;
},
{
smooth = 0;
x = 308;
y = 368;
},
{
smooth = 0;
x = 248;
y = 302;
},
{
segmentType = curve;
smooth = 0;
x = 189;
y = 225;
},
{
segmentType = line;
smooth = 0;
x = 123;
y = 289;
},
{
smooth = 0;
x = 205;
y = 408;
},
{
smooth = 0;
x = 295;
y = 467;
},
{
segmentType = curve;
smooth = 1;
x = 377;
y = 467;
},
{
smooth = 0;
x = 438;
y = 467;
},
{
smooth = 0;
x = 519;
y = 426;
},
{
segmentType = curve;
smooth = 1;
x = 599;
y = 376;
},
{
segmentType = line;
smooth = 1;
x = 656;
y = 340;
},
{
smooth = 0;
x = 681;
y = 324;
},
{
smooth = 0;
x = 739;
y = 302;
},
{
segmentType = curve;
smooth = 1;
x = 778;
y = 302;
},
{
smooth = 0;
x = 832;
y = 302;
},
{
smooth = 0;
x = 893;
y = 355;
},
{
segmentType = curve;
smooth = 0;
x = 956;
y = 441;
},
{
segmentType = line;
smooth = 0;
x = 1020;
y = 380;
},
{
segmentType = line;
smooth = 0;
x = 1017;
y = 379;
},
{
segmentType = line;
smooth = 0;
x = 977;
y = 327;
}
);
}
);
lib = {
};
name = approxequal;
unicodes = (
);
width = 1146;
};
};
};
},
{
glyphname = asciitilde;
layers = (
{
layerId = "1D628CB9-BBF5-410A-9D74-9E6094BFE839";
paths = (
{
closed = 1;
nodes = (
"817 437 OFFCURVE",
"880 538 OFFCURVE",
"930 620 CURVE",
"854 679 LINE",
"799 602 OFFCURVE",
"756 553 OFFCURVE",
"707 553 CURVE SMOOTH",
"678 553 OFFCURVE",
"636 575 OFFCURVE",
"555 622 CURVE SMOOTH",
"423 698 OFFCURVE",
"386 717 OFFCURVE",
"334 717 CURVE SMOOTH",
"245 717 OFFCURVE",
"177 637 OFFCURVE",
"108 530 CURVE",
"105 530 LINE",
"183 469 LINE",
"244 558 OFFCURVE",
"286 599 OFFCURVE",
"338 599 CURVE SMOOTH",
"367 599 OFFCURVE",
"409 578 OFFCURVE",
"483 531 CURVE",
"605 457 OFFCURVE",
"646 437 OFFCURVE",
"703 437 CURVE SMOOTH"
);
}
);
width = 1038;
}
);
unicode = 007E;
},
{
glyphname = logicalnot;
layers = (
{
layerId = "1D628CB9-BBF5-410A-9D74-9E6094BFE839";
paths = (
{
closed = 1;
nodes = (
"999 322 LINE",
"999 831 LINE",
"148 831 LINE",
"148 725 LINE",
"881 725 LINE",
"881 322 LINE"
);
}
);
width = 1151;
}
);
unicode = 00AC;
},
{
glyphname = emptyset;
layers = (
{
layerId = "1D628CB9-BBF5-410A-9D74-9E6094BFE839";
paths = (
{
closed = 1;
nodes = (
"1227 1035 LINE",
"1166 1098 LINE",
"100 106 LINE",
"161 43 LINE"
);
},
{
closed = 1;
nodes = (
"928 96 OFFCURVE",
"1144 314 OFFCURVE",
"1144 576 CURVE SMOOTH",
"1144 840 OFFCURVE",
"928 1054 OFFCURVE",
"666 1054 CURVE SMOOTH",
"402 1054 OFFCURVE",
"188 840 OFFCURVE",
"188 576 CURVE SMOOTH",
"188 314 OFFCURVE",
"402 96 OFFCURVE",
"666 96 CURVE SMOOTH"
);
},
{
closed = 1;
nodes = (
"454 194 OFFCURVE",
"284 364 OFFCURVE",
"284 576 CURVE SMOOTH",
"284 786 OFFCURVE",
"454 956 OFFCURVE",
"666 956 CURVE SMOOTH",
"876 956 OFFCURVE",
"1048 786 OFFCURVE",
"1048 576 CURVE SMOOTH",
"1048 364 OFFCURVE",
"876 194 OFFCURVE",
"666 194 CURVE SMOOTH"
);
}
);
width = 1327;
}
);
unicode = 2205;
},
{
glyphname = infinity;
layers = (
{
layerId = "1D628CB9-BBF5-410A-9D74-9E6094BFE839";
paths = (
{
closed = 1;
nodes = (
"1111 249 OFFCURVE",
"1196 391 OFFCURVE",
"1196 599 CURVE SMOOTH",
"1196 797 OFFCURVE",
"1137 953 OFFCURVE",
"964 953 CURVE",
"963 954 LINE",
"789 954 OFFCURVE",
"721 827 OFFCURVE",
"670 707 CURVE",
"610 838 OFFCURVE",
"551 956 OFFCURVE",
"373 956 CURVE SMOOTH",
"202 956 OFFCURVE",
"119 814 OFFCURVE",
"119 602 CURVE SMOOTH",
"119 409 OFFCURVE",
"188 250 OFFCURVE",
"363 250 CURVE SMOOTH",
"541 250 OFFCURVE",
"609 398 OFFCURVE",
"659 498 CURVE",
"735 346 OFFCURVE",
"805 249 OFFCURVE",
"952 249 CURVE SMOOTH"
);
},
{
closed = 1;
nodes = (
"266 349 OFFCURVE",
"217 448 OFFCURVE",
"217 599 CURVE",
"216 599 LINE",
"216 732 OFFCURVE",
"255 857 OFFCURVE",
"372 857 CURVE SMOOTH",
"374 857 LINE SMOOTH",
"469 857 OFFCURVE",
"526 794 OFFCURVE",
"580 677 CURVE SMOOTH",
"616 598 LINE",
"545 445 OFFCURVE",
"497 349 OFFCURVE",
"377 349 CURVE SMOOTH"
);
},
{
closed = 1;
nodes = (
"857 349 OFFCURVE",
"809 397 OFFCURVE",
"722 597 CURVE SMOOTH",
"719 602 OFFCURVE",
"718 607 OFFCURVE",
"715 612 CURVE",
"788 767 OFFCURVE",
"829 858 OFFCURVE",
"948 858 CURVE SMOOTH",
"1049 858 OFFCURVE",
"1099 771 OFFCURVE",
"1099 598 CURVE",
"1100 597 LINE",
"1100 456 OFFCURVE",
"1054 349 OFFCURVE",
"948 349 CURVE SMOOTH"
);
}
);
width = 1319;
}
);
unicode = 221E;
},
{
glyphname = integral;
layers = (
{
layerId = "1D628CB9-BBF5-410A-9D74-9E6094BFE839";
paths = (
{
closed = 1;
nodes = (
"413 -387 OFFCURVE",
"446 -144 OFFCURVE",
"446 133 CURVE SMOOTH",
"446 310 OFFCURVE",
"437 969 OFFCURVE",
"437 1147 CURVE SMOOTH",
"437 1435 OFFCURVE",
"463 1565 OFFCURVE",
"618 1565 CURVE SMOOTH",
"650 1565 OFFCURVE",
"680 1559 OFFCURVE",
"709 1548 CURVE",
"735 1651 LINE",
"697 1664 OFFCURVE",
"656 1671 OFFCURVE",
"613 1671 CURVE SMOOTH",
"360 1671 OFFCURVE",
"330 1421 OFFCURVE",
"330 1153 CURVE",
"329 1153 LINE",
"329 975 OFFCURVE",
"339 313 OFFCURVE",
"339 135 CURVE SMOOTH",
"339 -142 OFFCURVE",
"311 -279 OFFCURVE",
"159 -279 CURVE SMOOTH",
"127 -279 OFFCURVE",
"95 -273 OFFCURVE",
"62 -260 CURVE",
"37 -367 LINE",
"76 -380 OFFCURVE",
"119 -387 OFFCURVE",
"168 -387 CURVE SMOOTH"
);
}
);
width = 777;
}
);
unicode = 222B;
},
{
glyphname = product;
layers = (
{
layerId = "1D628CB9-BBF5-410A-9D74-9E6094BFE839";
paths = (
{
closed = 1;
nodes = (
"392 -96 LINE",
"392 1260 LINE",
"801 1260 LINE",
"801 -96 LINE",
"915 -96 LINE",
"915 1260 LINE",
"1094 1260 LINE",
"1094 1372 LINE",
"102 1372 LINE",
"102 1260 LINE",
"278 1260 LINE",
"278 -96 LINE"
);
}
);
width = 1194;
}
);
unicode = 220F;
},
{
glyphname = summation;
layers = (
{
layerId = "1D628CB9-BBF5-410A-9D74-9E6094BFE839";
paths = (
{
closed = 1;
nodes = (
"905 -168 LINE",
"905 -55 LINE",
"264 -55 LINE",
"264 -51 LINE",
"675 637 LINE",
"277 1260 LINE",
"277 1264 LINE",
"896 1264 LINE",
"896 1374 LINE",
"133 1374 LINE",
"133 1264 LINE",
"537 635 LINE",
"122 -57 LINE",
"122 -168 LINE"
);
}
);
width = 1020;
}
);
unicode = 2211;
},
{
glyphname = radical;
layers = (
{
layerId = "1D628CB9-BBF5-410A-9D74-9E6094BFE839";
paths = (
{
closed = 1;
nodes = (
"674 -8 LINE",
"983 1372 LINE",
"880 1372 LINE",
"792 971 LINE SMOOTH",
"717 630 OFFCURVE",
"655 353 OFFCURVE",
"604 98 CURVE",
"556 170 LINE",
"374 885 LINE",
"112 846 LINE",
"121 756 LINE",
"293 778 LINE",
"504 -8 LINE"
);
}
);
width = 1086;
}
);
unicode = 221A;
},
{
glyphname = partialdiff;
layers = (
{
layerId = "1D628CB9-BBF5-410A-9D74-9E6094BFE839";
paths = (
{
closed = 1;
nodes = (
"665 -14 OFFCURVE",
"774 128 OFFCURVE",
"774 412 CURVE SMOOTH",
"774 901 OFFCURVE",
"650 1141 OFFCURVE",
"315 1286 CURVE",
"274 1190 LINE",
"362 1145 OFFCURVE",
"423 1109 OFFCURVE",
"456 1084 CURVE SMOOTH",
"565 1001 OFFCURVE",
"614 886 OFFCURVE",
"666 683 CURVE",
"613 770 OFFCURVE",
"539 814 OFFCURVE",
"445 814 CURVE SMOOTH",
"232 814 OFFCURVE",
"125 678 OFFCURVE",
"125 407 CURVE SMOOTH",
"125 150 OFFCURVE",
"228 -13 OFFCURVE",
"447 -13 CURVE",
"447 -14 LINE"
);
},
{
closed = 1;
nodes = (
"304 87 OFFCURVE",
"232 194 OFFCURVE",
"232 407 CURVE SMOOTH",
"232 608 OFFCURVE",
"288 714 OFFCURVE",
"440 714 CURVE SMOOTH",
"594 714 OFFCURVE",
"666 589 OFFCURVE",
"666 396 CURVE SMOOTH",
"666 196 OFFCURVE",
"606 87 OFFCURVE",
"447 87 CURVE SMOOTH"
);
}
);
width = 905;
}
);
unicode = 2202;
},
{
glyphname = percent;
layers = (
{
layerId = "1D628CB9-BBF5-410A-9D74-9E6094BFE839";
paths = (
{
closed = 1;
nodes = (
"1088 1337 LINE",
"994 1368 LINE",
"432 -10 LINE",
"522 -44 LINE"
);
},
{
closed = 1;
nodes = (
"460 752 OFFCURVE",
"590 843 OFFCURVE",
"590 1027 CURVE SMOOTH",
"590 1211 OFFCURVE",
"461 1301 OFFCURVE",
"331 1301 CURVE SMOOTH",
"201 1301 OFFCURVE",
"69 1211 OFFCURVE",
"69 1027 CURVE SMOOTH",
"69 846 OFFCURVE",
"200 752 OFFCURVE",
"331 752 CURVE SMOOTH"
);
},
{
closed = 1;
nodes = (
"249 840 OFFCURVE",
"167 902 OFFCURVE",
"167 1027 CURVE SMOOTH",
"167 1148 OFFCURVE",
"250 1211 OFFCURVE",
"331 1211 CURVE SMOOTH",
"413 1211 OFFCURVE",
"493 1152 OFFCURVE",
"493 1027 CURVE SMOOTH",
"493 903 OFFCURVE",
"412 840 OFFCURVE",
"331 840 CURVE SMOOTH"
);
},
{
closed = 1;
nodes = (
"1273 -10 OFFCURVE",
"1404 81 OFFCURVE",
"1404 265 CURVE SMOOTH",
"1404 449 OFFCURVE",
"1274 539 OFFCURVE",
"1144 539 CURVE SMOOTH",
"1014 539 OFFCURVE",
"882 449 OFFCURVE",
"882 265 CURVE SMOOTH",
"882 84 OFFCURVE",
"1013 -10 OFFCURVE",
"1144 -10 CURVE SMOOTH"
);
},
{
closed = 1;
nodes = (
"1062 78 OFFCURVE",
"980 140 OFFCURVE",
"980 265 CURVE SMOOTH",
"980 386 OFFCURVE",
"1063 449 OFFCURVE",
"1144 449 CURVE SMOOTH",
"1226 449 OFFCURVE",
"1306 390 OFFCURVE",
"1306 265 CURVE SMOOTH",
"1306 141 OFFCURVE",
"1225 78 OFFCURVE",
"1144 78 CURVE SMOOTH"
);
}
);
width = 1471;
}
);
unicode = 0025;
},
{
glyphname = perthousand;
layers = (
{
layerId = "1D628CB9-BBF5-410A-9D74-9E6094BFE839";
paths = (
{
closed = 1;
nodes = (
"1086 1337 LINE",
"992 1368 LINE",
"430 -10 LINE",
"522 -44 LINE"
);
},
{
closed = 1;
nodes = (
"459 752 OFFCURVE",
"589 843 OFFCURVE",
"589 1027 CURVE SMOOTH",
"589 1211 OFFCURVE",
"460 1301 OFFCURVE",
"330 1301 CURVE SMOOTH",
"200 1301 OFFCURVE",
"68 1211 OFFCURVE",
"68 1027 CURVE SMOOTH",
"68 846 OFFCURVE",
"199 752 OFFCURVE",
"330 752 CURVE SMOOTH"
);
},
{
closed = 1;
nodes = (
"248 840 OFFCURVE",
"166 902 OFFCURVE",
"166 1027 CURVE SMOOTH",
"166 1148 OFFCURVE",
"249 1211 OFFCURVE",
"330 1211 CURVE SMOOTH",
"412 1211 OFFCURVE",
"492 1152 OFFCURVE",
"492 1027 CURVE SMOOTH",
"492 903 OFFCURVE",
"411 840 OFFCURVE",
"330 840 CURVE SMOOTH"
);
},
{
closed = 1;
nodes = (
"1273 -10 OFFCURVE",
"1402 81 OFFCURVE",
"1402 265 CURVE SMOOTH",
"1402 449 OFFCURVE",
"1274 539 OFFCURVE",
"1144 539 CURVE SMOOTH",
"1014 539 OFFCURVE",
"882 449 OFFCURVE",
"882 265 CURVE SMOOTH",
"882 84 OFFCURVE",
"1013 -10 OFFCURVE",
"1144 -10 CURVE SMOOTH"
);
},
{
closed = 1;
nodes = (
"1062 78 OFFCURVE",
"980 140 OFFCURVE",
"980 265 CURVE SMOOTH",
"980 386 OFFCURVE",
"1063 449 OFFCURVE",
"1144 449 CURVE SMOOTH",
"1226 449 OFFCURVE",
"1306 390 OFFCURVE",
"1306 265 CURVE SMOOTH",
"1306 141 OFFCURVE",
"1225 78 OFFCURVE",
"1144 78 CURVE SMOOTH"
);
},
{
closed = 1;
nodes = (
"1915 -10 OFFCURVE",
"2045 81 OFFCURVE",
"2045 265 CURVE SMOOTH",
"2045 449 OFFCURVE",
"1916 539 OFFCURVE",
"1786 539 CURVE SMOOTH",
"1656 539 OFFCURVE",
"1524 449 OFFCURVE",
"1524 265 CURVE SMOOTH",
"1524 84 OFFCURVE",
"1655 -10 OFFCURVE",
"1786 -10 CURVE SMOOTH"
);
},
{
closed = 1;
nodes = (
"1704 78 OFFCURVE",
"1622 140 OFFCURVE",
"1622 265 CURVE SMOOTH",
"1622 386 OFFCURVE",
"1705 449 OFFCURVE",
"1786 449 CURVE SMOOTH",
"1868 449 OFFCURVE",
"1948 390 OFFCURVE",
"1948 265 CURVE SMOOTH",
"1948 141 OFFCURVE",
"1867 78 OFFCURVE",
"1786 78 CURVE SMOOTH"
);
}
);
width = 2115;
}
);
unicode = 2030;
},
{
glyphname = lozenge;
layers = (
{
layerId = "1D628CB9-BBF5-410A-9D74-9E6094BFE839";
paths = (
{
closed = 1;
nodes = (
"610 47 LINE",
"983 721 LINE",
"610 1399 LINE",
"528 1477 LINE",
"110 721 LINE",
"249 469 OFFCURVE",
"388 218 OFFCURVE",
"528 -33 CURVE"
);
},
{
closed = 1;
nodes = (
"509 214 OFFCURVE",
"450 317 OFFCURVE",
"377 452 CURVE SMOOTH",
"230 723 LINE",
"374 986 LINE SMOOTH",
"449 1123 OFFCURVE",
"507 1229 OFFCURVE",
"547 1305 CURVE",
"588 1228 OFFCURVE",
"647 1117 OFFCURVE",
"726 973 CURVE SMOOTH",
"863 723 LINE",
"717 454 LINE SMOOTH",
"643 319 OFFCURVE",
"585 214 OFFCURVE",
"547 139 CURVE"
);
}
);
width = 1098;
}
);
unicode = 25CA;
},
{
glyphname = at;
layers = (
{
layerId = "1D628CB9-BBF5-410A-9D74-9E6094BFE839";
paths = (
{
closed = 1;
nodes = (
"878 -63 OFFCURVE",
"978 -39 OFFCURVE",
"1084 4 CURVE",
"1058 95 LINE",
"952 56 OFFCURVE",
"867 36 OFFCURVE",
"779 36 CURVE SMOOTH",
"483 36 OFFCURVE",
"261 274 OFFCURVE",
"261 607 CURVE SMOOTH",
"261 951 OFFCURVE",
"496 1195 OFFCURVE",
"763 1195 CURVE SMOOTH",
"1124 1195 OFFCURVE",
"1264 921 OFFCURVE",
"1264 687 CURVE SMOOTH",
"1264 547 OFFCURVE",
"1204 362 OFFCURVE",
"1102 362 CURVE SMOOTH",
"1030 362 OFFCURVE",
"1024 393 OFFCURVE",
"1024 406 CURVE SMOOTH",
"1024 903 LINE",
"944 976 OFFCURVE",
"786 987 OFFCURVE",
"753 987 CURVE SMOOTH",
"561 987 OFFCURVE",
"454 815 OFFCURVE",
"454 598 CURVE SMOOTH",
"454 343 OFFCURVE",
"593 242 OFFCURVE",
"713 242 CURVE SMOOTH",
"819 242 OFFCURVE",
"889 307 OFFCURVE",
"928 375 CURVE",
"961 309 OFFCURVE",
"1014 256 OFFCURVE",
"1100 256 CURVE SMOOTH",
"1273 256 OFFCURVE",
"1372 468 OFFCURVE",
"1372 692 CURVE SMOOTH",
"1372 979 OFFCURVE",
"1197 1300 OFFCURVE",
"754 1301 CURVE SMOOTH",
"415 1301 OFFCURVE",
"140 1025 OFFCURVE",
"140 600 CURVE SMOOTH",
"140 198 OFFCURVE",
"444 -63 OFFCURVE",
"773 -63 CURVE SMOOTH"
);
},
{
closed = 1;
nodes = (
"621 326 OFFCURVE",
"562 463 OFFCURVE",
"562 602 CURVE SMOOTH",
"562 748 OFFCURVE",
"627 897 OFFCURVE",
"761 897 CURVE SMOOTH",
"825 897 OFFCURVE",
"879 886 OFFCURVE",
"923 864 CURVE",
"923 648 LINE SMOOTH",
"923 522 OFFCURVE",
"918 434 OFFCURVE",
"891 405 CURVE SMOOTH",
"843 353 OFFCURVE",
"777 326 OFFCURVE",
"736 326 CURVE SMOOTH"
);
}
);
width = 1512;
}
);
unicode = 0040;
},
{
glyphname = ampersand;
layers = (
{
layerId = "1D628CB9-BBF5-410A-9D74-9E6094BFE839";
paths = (
{
closed = 1;
nodes = (
"1002 54 LINE",
"898 191 LINE",
"959 277 OFFCURVE",
"1000 382 OFFCURVE",
"1024 489 CURVE",
"915 522 LINE",
"891 432 OFFCURVE",
"861 353 OFFCURVE",
"824 288 CURVE",
"537 667 LINE",
"657 769 OFFCURVE",
"768 886 OFFCURVE",
"768 1038 CURVE SMOOTH",
"768 1220 OFFCURVE",
"645 1301 OFFCURVE",
"489 1301 CURVE SMOOTH",
"349 1301 OFFCURVE",
"209 1222 OFFCURVE",
"209 1041 CURVE SMOOTH",
"209 954 OFFCURVE",
"255 859 OFFCURVE",
"312 778 CURVE",
"378 689 LINE",
"250 586 OFFCURVE",
"124 472 OFFCURVE",
"124 291 CURVE SMOOTH",
"124 96 OFFCURVE",
"261 -10 OFFCURVE",
"505 -10 CURVE SMOOTH",
"636 -10 OFFCURVE",
"739 28 OFFCURVE",
"819 100 CURVE",
"908 -19 LINE"
);
},
{
closed = 1;
nodes = (
"332 96 OFFCURVE",
"252 169 OFFCURVE",
"252 297 CURVE SMOOTH",
"252 426 OFFCURVE",
"342 519 OFFCURVE",
"449 606 CURVE",
"751 191 LINE",
"690 130 OFFCURVE",
"615 96 OFFCURVE",
"519 96 CURVE SMOOTH"
);
},
{
closed = 1;
nodes = (
"436 792 LINE",
"380 871 OFFCURVE",
"337 945 OFFCURVE",
"337 1044 CURVE SMOOTH",
"337 1145 OFFCURVE",
"397 1196 OFFCURVE",
"492 1196 CURVE SMOOTH",
"589 1196 OFFCURVE",
"640 1145 OFFCURVE",
"640 1033 CURVE SMOOTH",
"640 922 OFFCURVE",
"561 833 OFFCURVE",
"465 753 CURVE"
);
}
);
width = 1100;
}
);
unicode = 0026;
},
{
glyphname = paragraph;
layers = (
{
layerId = "1D628CB9-BBF5-410A-9D74-9E6094BFE839";
paths = (
{
closed = 1;
nodes = (
"629 0 LINE",
"629 1241 LINE",
"824 1241 LINE",
"824 0 LINE",
"889 0 LINE",
"889 1301 LINE",
"564 1301 LINE SMOOTH",
"284 1301 OFFCURVE",
"121 1218 OFFCURVE",
"121 906 CURVE SMOOTH",
"121 584 OFFCURVE",
"293 505 OFFCURVE",
"564 482 CURVE",
"564 0 LINE"
);
},
{
closed = 1;
nodes = (
"319 567 OFFCURVE",
"186 638 OFFCURVE",
"186 904 CURVE SMOOTH",
"186 1211 OFFCURVE",
"360 1242 OFFCURVE",
"564 1242 CURVE",
"564 547 LINE"
);
}
);
width = 1039;
}
);
unicode = 00B6;
},
{
glyphname = section;
layers = (
{
layerId = "1D628CB9-BBF5-410A-9D74-9E6094BFE839";
paths = (
{
closed = 1;
nodes = (
"654 -79 OFFCURVE",
"769 8 OFFCURVE",
"769 200 CURVE",
"768 199 LINE",
"768 288 OFFCURVE",
"741 353 OFFCURVE",
"687 395 CURVE",
"764 458 OFFCURVE",
"803 532 OFFCURVE",
"803 616 CURVE SMOOTH",
"803 835 OFFCURVE",
"675 846 OFFCURVE",
"418 959 CURVE SMOOTH",
"335 995 OFFCURVE",
"276 1031 OFFCURVE",
"276 1133 CURVE SMOOTH",
"276 1256 OFFCURVE",
"346 1303 OFFCURVE",
"479 1303 CURVE SMOOTH",
"564 1303 OFFCURVE",
"645 1277 OFFCURVE",
"722 1225 CURVE",
"768 1313 LINE",
"699 1376 OFFCURVE",
"602 1407 OFFCURVE",
"477 1407 CURVE SMOOTH",
"284 1407 OFFCURVE",
"165 1319 OFFCURVE",
"165 1124 CURVE SMOOTH",
"165 1025 OFFCURVE",
"203 952 OFFCURVE",
"280 903 CURVE",
"187 851 OFFCURVE",
"141 777 OFFCURVE",
"141 682 CURVE SMOOTH",
"141 519 OFFCURVE",
"209 487 OFFCURVE",
"410 400 CURVE SMOOTH",
"550 339 LINE SMOOTH",
"626 305 OFFCURVE",
"657 275 OFFCURVE",
"657 187 CURVE SMOOTH",
"657 80 OFFCURVE",
"591 26 OFFCURVE",
"460 26 CURVE SMOOTH",
"361 26 OFFCURVE",
"270 56 OFFCURVE",
"185 116 CURVE",
"142 26 LINE",
"222 -50 OFFCURVE",
"314 -79 OFFCURVE",
"458 -79 CURVE SMOOTH"
);
},
{
closed = 1;
nodes = (
"606 446 LINE",
"573 463 OFFCURVE",
"530 479 OFFCURVE",
"479 500 CURVE SMOOTH",
"370 545 LINE",
"291 574 OFFCURVE",
"252 609 OFFCURVE",
"252 698 CURVE SMOOTH",
"252 765 OFFCURVE",
"286 818 OFFCURVE",
"353 859 CURVE",
"389 842 OFFCURVE",
"532 785 OFFCURVE",
"563 771 CURVE SMOOTH",
"627 742 OFFCURVE",
"695 699 OFFCURVE",
"695 617 CURVE",
"694 546 OFFCURVE",
"667 516 OFFCURVE",
"633 476 CURVE SMOOTH",
"606 444 LINE"
);
}
);
width = 935;
}
);
unicode = 00A7;
},
{
glyphname = copyright;
layers = (
{
layerId = "1D628CB9-BBF5-410A-9D74-9E6094BFE839";
paths = (
{
closed = 1;
nodes = (
"1149 -5 OFFCURVE",
"1442 287 OFFCURVE",
"1442 646 CURVE SMOOTH",
"1442 1005 OFFCURVE",
"1149 1297 OFFCURVE",
"790 1297 CURVE SMOOTH",
"431 1297 OFFCURVE",
"140 1005 OFFCURVE",
"140 646 CURVE SMOOTH",
"140 287 OFFCURVE",
"431 -5 OFFCURVE",
"790 -5 CURVE SMOOTH"
);
},
{
closed = 1;
nodes = (
"886 211 OFFCURVE",
"965 226 OFFCURVE",
"1054 273 CURVE",
"1021 346 LINE",
"944 305 OFFCURVE",
"879 292 OFFCURVE",
"814 292 CURVE SMOOTH",
"611 292 OFFCURVE",
"504 436 OFFCURVE",
"504 638 CURVE SMOOTH",
"504 823 OFFCURVE",
"598 1004 OFFCURVE",
"795 1004 CURVE SMOOTH",
"850 1004 OFFCURVE",
"902 994 OFFCURVE",
"943 978 CURVE",
"943 825 LINE",
"1032 825 LINE",
"1032 1023 LINE",
"949 1067 OFFCURVE",
"873 1085 OFFCURVE",
"798 1085 CURVE SMOOTH",
"524 1085 OFFCURVE",
"399 866 OFFCURVE",
"399 640 CURVE SMOOTH",
"399 400 OFFCURVE",
"544 211 OFFCURVE",
"807 211 CURVE SMOOTH"
);
},
{
closed = 1;
nodes = (
"484 84 OFFCURVE",
"237 336 OFFCURVE",
"237 646 CURVE SMOOTH",
"237 956 OFFCURVE",
"484 1208 OFFCURVE",
"790 1208 CURVE SMOOTH",
"1096 1208 OFFCURVE",
"1345 956 OFFCURVE",
"1345 646 CURVE SMOOTH",
"1345 336 OFFCURVE",
"1096 84 OFFCURVE",
"790 84 CURVE SMOOTH"
);
}
);
width = 1583;
}
);
unicode = 00A9;
},
{
glyphname = registered;
layers = (
{
layerId = "1D628CB9-BBF5-410A-9D74-9E6094BFE839";
paths = (
{
closed = 1;
nodes = (
"1149 -5 OFFCURVE",
"1442 287 OFFCURVE",
"1442 646 CURVE SMOOTH",
"1442 1005 OFFCURVE",
"1149 1297 OFFCURVE",
"790 1297 CURVE SMOOTH",
"431 1297 OFFCURVE",
"140 1005 OFFCURVE",
"140 646 CURVE SMOOTH",
"140 287 OFFCURVE",
"431 -5 OFFCURVE",
"790 -5 CURVE SMOOTH"
);
},
{
closed = 1;
nodes = (
"484 84 OFFCURVE",
"237 336 OFFCURVE",
"237 646 CURVE SMOOTH",
"237 956 OFFCURVE",
"484 1208 OFFCURVE",
"790 1208 CURVE SMOOTH",
"1096 1208 OFFCURVE",
"1345 956 OFFCURVE",
"1345 646 CURVE SMOOTH",
"1345 336 OFFCURVE",
"1096 84 OFFCURVE",
"790 84 CURVE SMOOTH"
);
},
{
closed = 1;
nodes = (
"1102 273 LINE",
"1102 273 OFFCURVE",
"979 498 OFFCURVE",
"926 637 CURVE",
"1057 661 OFFCURVE",
"1134 721 OFFCURVE",
"1134 850 CURVE SMOOTH",
"1134 1050 OFFCURVE",
"981 1079 OFFCURVE",
"722 1079 CURVE SMOOTH",
"527 1079 LINE",
"527 227 LINE",
"635 227 LINE",
"635 623 LINE",
"689 623 LINE SMOOTH",
"737 623 OFFCURVE",
"786 625 OFFCURVE",
"826 628 CURVE",
"889 455 OFFCURVE",
"1004 226 OFFCURVE",
"1004 226 CURVE"
);
},
{
closed = 1;
nodes = (
"635 995 LINE",
"697 995 LINE SMOOTH",
"915 995 OFFCURVE",
"1027 986 OFFCURVE",
"1027 853 CURVE SMOOTH",
"1027 724 OFFCURVE",
"943 703 OFFCURVE",
"670 703 CURVE SMOOTH",
"635 703 LINE"
);
}
);
width = 1583;
}
);
unicode = 00AE;
},
{
glyphname = trademark;
layers = (
{
layerId = "1D628CB9-BBF5-410A-9D74-9E6094BFE839";
paths = (
{
closed = 1;
nodes = (
"754 481 LINE",
"754 923 LINE",
"759 923 LINE",
"910 561 LINE",
"979 561 LINE",
"1138 923 LINE",
"1145 923 LINE",
"1145 481 LINE",
"1233 481 LINE",
"1233 1197 LINE",
"1150 1197 LINE",
"946 703 LINE",
"747 1197 LINE",
"663 1197 LINE",
"663 481 LINE"
);
},
{
closed = 1;
nodes = (
"404 481 LINE",
"404 1114 LINE",
"574 1114 LINE",
"574 1197 LINE",
"131 1197 LINE",
"131 1114 LINE",
"306 1114 LINE",
"306 481 LINE"
);
}
);
width = 1379;
}
);
unicode = 2122;
},
{
glyphname = degree;
layers = (
{
layerId = "1D628CB9-BBF5-410A-9D74-9E6094BFE839";
paths = (
{
closed = 1;
nodes = (
"351 918 LINE",
"487 918 OFFCURVE",
"586 1016 OFFCURVE",
"586 1169 CURVE SMOOTH",
"586 1319 OFFCURVE",
"490 1421 OFFCURVE",
"352 1421 CURVE SMOOTH",
"214 1421 OFFCURVE",
"112 1325 OFFCURVE",
"112 1169 CURVE SMOOTH",
"112 1019 OFFCURVE",
"208 917 OFFCURVE",
"350 917 CURVE"
);
},
{
closed = 1;
nodes = (
"262 1011 OFFCURVE",
"213 1073 OFFCURVE",
"213 1170 CURVE SMOOTH",
"213 1266 OFFCURVE",
"263 1328 OFFCURVE",
"347 1328 CURVE SMOOTH",
"434 1328 OFFCURVE",
"486 1265 OFFCURVE",
"486 1168 CURVE SMOOTH",
"486 1075 OFFCURVE",
"432 1011 OFFCURVE",
"347 1011 CURVE SMOOTH"
);
}
);
width = 699;
}
);
unicode = 00B0;
},
{
glyphname = bar;
layers = (
{
layerId = "1D628CB9-BBF5-410A-9D74-9E6094BFE839";
paths = (
{
closed = 1;
nodes = (
"269 -65 LINE",
"269 1331 LINE",
"162 1331 LINE",
"162 -65 LINE"
);
}
);
width = 423;
}
);
unicode = 007C;
},
{
glyphname = brokenbar;
layers = (
{
layerId = "1D628CB9-BBF5-410A-9D74-9E6094BFE839";
paths = (
{
closed = 1;
nodes = (
"269 -65 LINE",
"269 527 LINE",
"162 527 LINE",
"162 -65 LINE"
);
},
{
closed = 1;
nodes = (
"269 776 LINE",
"269 1331 LINE",
"162 1331 LINE",
"162 776 LINE"
);
}
);
width = 423;
}
);
unicode = 00A6;
},
{
glyphname = dagger;
layers = (
{
layerId = "1D628CB9-BBF5-410A-9D74-9E6094BFE839";
paths = (
{
closed = 1;
nodes = (
"560 0 LINE",
"560 888 LINE",
"870 888 LINE",
"870 985 LINE",
"560 985 LINE",
"560 1301 LINE",
"450 1301 LINE",
"450 985 LINE",
"142 985 LINE",
"142 888 LINE",
"450 888 LINE",
"450 0 LINE"
);
}
);
width = 1013;
}
);
unicode = 2020;
},
{
glyphname = daggerdbl;
layers = (
{
layerId = "1D628CB9-BBF5-410A-9D74-9E6094BFE839";
paths = (
{
closed = 1;
nodes = (
"566 0 LINE",
"566 226 LINE",
"876 226 LINE",
"876 322 LINE",
"566 322 LINE",
"566 980 LINE",
"876 980 LINE",
"876 1077 LINE",
"566 1077 LINE",
"566 1301 LINE",
"456 1301 LINE",
"456 1077 LINE",
"148 1077 LINE",
"148 980 LINE",
"456 980 LINE",
"456 322 LINE",
"148 322 LINE",
"148 226 LINE",
"456 226 LINE",
"456 0 LINE"
);
}
);
width = 1025;
}
);
unicode = 2021;
},
{
glyphname = numero;
layers = (
{
components = (
{
name = N;
}
);
layerId = "1D628CB9-BBF5-410A-9D74-9E6094BFE839";
paths = (
{
closed = 1;
nodes = (
"1788 398 OFFCURVE",
"1908 547 OFFCURVE",
"1908 853 CURVE SMOOTH",
"1908 1159 OFFCURVE",
"1788 1308 OFFCURVE",
"1544 1308 CURVE SMOOTH",
"1300 1308 OFFCURVE",
"1180 1159 OFFCURVE",
"1180 853 CURVE SMOOTH",
"1180 547 OFFCURVE",
"1300 398 OFFCURVE",
"1544 398 CURVE SMOOTH"
);
},
{
closed = 1;
nodes = (
"1878 188 LINE",
"1878 294 LINE",
"1210 294 LINE",
"1210 188 LINE"
);
},
{
closed = 1;
nodes = (
"1386 504 OFFCURVE",
"1308 619 OFFCURVE",
"1308 853 CURVE SMOOTH",
"1308 1088 OFFCURVE",
"1386 1203 OFFCURVE",
"1544 1203 CURVE SMOOTH",
"1702 1203 OFFCURVE",
"1780 1088 OFFCURVE",
"1780 853 CURVE SMOOTH",
"1780 619 OFFCURVE",
"1702 504 OFFCURVE",
"1544 504 CURVE SMOOTH"
);
}
);
width = 2038;
}
);
unicode = 2116;
},
{
glyphname = asciicircum;
layers = (
{
layerId = "1D628CB9-BBF5-410A-9D74-9E6094BFE839";
paths = (
{
closed = 1;
nodes = (
"247 775 LINE",
"448 1211 LINE",
"654 776 LINE",
"768 776 LINE",
"517 1308 LINE",
"380 1308 LINE",
"128 775 LINE"
);
}
);
width = 943;
}
);
unicode = 005E;
},
{
glyphname = caroncomb.alt;
layers = (
{
anchors = (
{
name = _topright;
position = "{0, 1276}";
}
);
layerId = "1D628CB9-BBF5-410A-9D74-9E6094BFE839";
paths = (
{
closed = 1;
nodes = (
"123 999 OFFCURVE",
"162 1070 OFFCURVE",
"162 1160 CURVE SMOOTH",
"162 1276 LINE",
"0 1276 LINE",
"0 1121 LINE",
"113 1121 LINE",
"69 1142 LINE",
"69 1093 OFFCURVE",
"51 1040 OFFCURVE",
"5 985 CURVE",
"61 939 LINE"
);
}
);
width = 0;
}
);
},
{
glyphname = hookabovecomb;
layers = (
{
anchors = (
{
name = _top;
position = "{0, 985}";
},
{
name = _top_case;
position = "{0, 975}";
},
{
name = top;
position = "{0, 1510}";
}
);
layerId = "1D628CB9-BBF5-410A-9D74-9E6094BFE839";
paths = (
{
closed = 1;
nodes = (
"51 1089 LINE",
"41 1156 LINE",
"144 1166 OFFCURVE",
"227 1205 OFFCURVE",
"227 1317 CURVE SMOOTH",
"227 1413 OFFCURVE",
"161 1470 OFFCURVE",
"50 1470 CURVE SMOOTH",
"5 1470 OFFCURVE",
"-45 1459 OFFCURVE",
"-89 1440 CURVE",
"-74 1360 LINE",
"-41 1372 OFFCURVE",
"-6 1380 OFFCURVE",
"24 1380 CURVE SMOOTH",
"75 1380 OFFCURVE",
"112 1358 OFFCURVE",
"112 1308 CURVE SMOOTH",
"112 1228 OFFCURVE",
"31 1211 OFFCURVE",
"-54 1205 CURVE",
"-53 1089 LINE"
);
}
);
width = 0;
}
);
unicode = 0309;
userData = {
com.schriftgestaltung.Glyphs.ColorIndex = 7;
};
},
{
glyphname = dblgravecomb;
layers = (
{
anchors = (
{
name = _top;
position = "{0, 985}";
},
{
name = top_case;
position = "{0, 1363}";
}
);
layerId = "1D628CB9-BBF5-410A-9D74-9E6094BFE839";
paths = (
{
closed = 1;
nodes = (
"247 1142 LINE",
"2 1483 LINE",
"-104 1403 LINE",
"-5 1284 LINE SMOOTH",
"30 1242 OFFCURVE",
"129 1150 OFFCURVE",
"194 1093 CURVE"
);
},
{
closed = 1;
nodes = (
"-55 1142 LINE",
"-300 1483 LINE",
"-406 1403 LINE",
"-307 1284 LINE SMOOTH",
"-272 1242 OFFCURVE",
"-173 1150 OFFCURVE",
"-108 1093 CURVE"
);
}
);
width = 0;
}
);
unicode = 030F;
},
{
glyphname = breveinvertedcomb;
layers = (
{
anchors = (
{
name = _top;
position = "{0, 1003}";
},
{
name = top_case;
position = "{0, 1372}";
}
);
layerId = "1D628CB9-BBF5-410A-9D74-9E6094BFE839";
paths = (
{
closed = 1;
nodes = (
"-136 1222 OFFCURVE",
"-83 1262 OFFCURVE",
"0 1262 CURVE SMOOTH",
"83 1262 OFFCURVE",
"136 1222 OFFCURVE",
"195 1153 CURVE",
"272 1223 LINE",
"187 1328 OFFCURVE",
"112 1372 OFFCURVE",
"0 1372 CURVE SMOOTH",
"-112 1372 OFFCURVE",
"-187 1328 OFFCURVE",
"-272 1223 CURVE",
"-195 1153 LINE"
);
}
);
width = 0;
},
{
associatedMasterId = "1D628CB9-BBF5-410A-9D74-9E6094BFE839";
layerId = "0AC3CB51-F0F6-4259-9E63-6E5CB8642859";
name = "Regular Jul 6 16, 12:30";
paths = (
{
closed = 1;
nodes = (
"-191 1031 CURVE",
"-268 1106 LINE",
"-179 1206 OFFCURVE",
"-90 1256 OFFCURVE",
"0 1256 CURVE SMOOTH",
"90 1256 OFFCURVE",
"180 1206 OFFCURVE",
"269 1106 CURVE",
"192 1031 LINE",
"136 1109 OFFCURVE",
"70 1146 OFFCURVE",
"4 1146 CURVE SMOOTH",
"-64 1146 OFFCURVE",
"-132 1107 OFFCURVE"
);
}
);
width = 0;
}
);
unicode = 0311;
userData = {
com.typemytype.robofont.layerData = {
"Regular Jul 6 16, 12:30" = {
anchors = (
);
components = (
);
contours = (
{
points = (
{
segmentType = curve;
smooth = 0;
x = -191;
y = 1031;
},
{
segmentType = line;
smooth = 0;
x = -268;
y = 1106;
},
{
smooth = 0;
x = -179;
y = 1206;
},
{
smooth = 0;
x = -90;
y = 1256;
},
{
segmentType = curve;
smooth = 1;
x = 0;
y = 1256;
},
{
smooth = 0;
x = 90;
y = 1256;
},
{
smooth = 0;
x = 180;
y = 1206;
},
{
segmentType = curve;
smooth = 0;
x = 269;
y = 1106;
},
{
segmentType = line;
smooth = 0;
x = 192;
y = 1031;
},
{
smooth = 0;
x = 136;
y = 1109;
},
{
smooth = 0;
x = 70;
y = 1146;
},
{
segmentType = curve;
smooth = 1;
x = 4;
y = 1146;
},
{
smooth = 0;
x = -64;
y = 1146;
},
{
smooth = 0;
x = -132;
y = 1107;
}
);
}
);
lib = {
};
name = breveinvertedcomb;
unicodes = (
);
width = 0;
};
};
};
},
{
glyphname = commaturnedabovecomb;
layers = (
{
anchors = (
{
name = _top;
position = "{0, 985}";
},
{
name = top_case;
position = "{0, 1376}";
}
);
layerId = "1D628CB9-BBF5-410A-9D74-9E6094BFE839";
paths = (
{
closed = 1;
nodes = (
"81 1099 LINE",
"81 1254 LINE",
"-32 1254 LINE",
"12 1233 LINE",
"12 1282 OFFCURVE",
"30 1335 OFFCURVE",
"76 1390 CURVE",
"20 1436 LINE",
"-42 1376 OFFCURVE",
"-81 1305 OFFCURVE",
"-81 1215 CURVE SMOOTH",
"-81 1099 LINE"
);
}
);
width = 0;
}
);
unicode = 0312;
},
{
glyphname = horncomb;
layers = (
{
anchors = (
{
name = _topright;
position = "{0, 985}";
}
);
layerId = "1D628CB9-BBF5-410A-9D74-9E6094BFE839";
paths = (
{
closed = 1;
nodes = (
"10 1077 LINE SMOOTH",
"132 1118 OFFCURVE",
"238 1177 OFFCURVE",
"238 1302 CURVE SMOOTH",
"238 1342 OFFCURVE",
"231 1374 OFFCURVE",
"221 1400 CURVE",
"89 1400 LINE",
"102 1372 OFFCURVE",
"110 1341 OFFCURVE",
"110 1310 CURVE SMOOTH",
"110 1234 OFFCURVE",
"71 1191 OFFCURVE",
"0 1160 CURVE SMOOTH",
"-35 1145 LINE",
"-35 1062 LINE"
);
}
);
width = 0;
}
);
unicode = 031B;
userData = {
com.schriftgestaltung.Glyphs.ColorIndex = 7;
};
},
{
glyphname = commaaccentcomb;
layers = (
{
anchors = (
{
name = _bottom;
position = "{0, 0}";
},
{
name = bottom;
position = "{0, -461}";
}
);
layerId = "1D628CB9-BBF5-410A-9D74-9E6094BFE839";
paths = (
{
closed = 1;
nodes = (
"42 -401 OFFCURVE",
"81 -330 OFFCURVE",
"81 -240 CURVE SMOOTH",
"81 -124 LINE",
"-81 -124 LINE",
"-81 -279 LINE",
"32 -279 LINE",
"-12 -258 LINE",
"-12 -307 OFFCURVE",
"-30 -360 OFFCURVE",
"-76 -415 CURVE",
"-20 -461 LINE"
);
}
);
width = 0;
}
);
unicode = 0326;
},
{
glyphname = strokeshortcomb;
layers = (
{
layerId = "1D628CB9-BBF5-410A-9D74-9E6094BFE839";
paths = (
{
closed = 1;
nodes = (
"340 449 LINE",
"340 565 LINE",
"-340 565 LINE",
"-340 449 LINE"
);
}
);
width = 0;
}
);
unicode = 0335;
},
{
glyphname = gravecomb.case;
layers = (
{
anchors = (
{
name = _top_case;
position = "{0, 991}";
},
{
name = top_case;
position = "{0, 1356}";
}
);
layerId = "1D628CB9-BBF5-410A-9D74-9E6094BFE839";
paths = (
{
closed = 1;
nodes = (
"208 1152 LINE",
"-117 1418 LINE",
"-199 1314 LINE",
"-72 1224 LINE SMOOTH",
"-18 1186 OFFCURVE",
"90 1126 OFFCURVE",
"169 1091 CURVE"
);
}
);
width = 0;
}
);
},
{
glyphname = acutecomb.case;
layers = (
{
anchors = (
{
name = _top_case;
position = "{0, 985}";
},
{
name = top_case;
position = "{0, 1363}";
}
);
layerId = "1D628CB9-BBF5-410A-9D74-9E6094BFE839";
paths = (
{
closed = 1;
nodes = (
"-84 1134 OFFCURVE",
"29 1198 OFFCURVE",
"82 1233 CURVE SMOOTH",
"204 1314 LINE",
"122 1418 LINE",
"-203 1152 LINE",
"-164 1091 LINE"
);
}
);
width = 0;
}
);
},
{
glyphname = circumflexcomb.case;
layers = (
{
anchors = (
{
name = _top_case;
position = "{1, 985}";
},
{
name = top_case;
position = "{1, 1374}";
}
);
layerId = "1D628CB9-BBF5-410A-9D74-9E6094BFE839";
paths = (
{
closed = 1;
nodes = (
"1 1284 LINE",
"213 1102 LINE",
"299 1182 LINE",
"216 1250 OFFCURVE",
"153 1303 OFFCURVE",
"53 1373 CURVE",
"-52 1373 LINE",
"-152 1303 OFFCURVE",
"-215 1250 OFFCURVE",
"-298 1182 CURVE",
"-212 1102 LINE"
);
}
);
width = 0;
}
);
},
{
glyphname = caroncomb.case;
layers = (
{
anchors = (
{
name = _top_case;
position = "{0, 985}";
},
{
name = top_case;
position = "{0, 1284}";
}
);
layerId = "1D628CB9-BBF5-410A-9D74-9E6094BFE839";
paths = (
{
closed = 1;
nodes = (
"16 1093 OFFCURVE",
"33 1106 OFFCURVE",
"52 1122 CURVE SMOOTH",
"132 1189 OFFCURVE",
"208 1259 OFFCURVE",
"280 1333 CURVE",
"198 1399 LINE",
"0 1206 LINE",
"-197 1399 LINE",
"-279 1333 LINE",
"-207 1259 OFFCURVE",
"-131 1189 OFFCURVE",
"-51 1122 CURVE SMOOTH",
"-32 1106 OFFCURVE",
"-17 1093 OFFCURVE",
"0 1093 CURVE SMOOTH"
);
}
);
width = 0;
}
);
},
{
glyphname = ringcomb.case;
layers = (
{
anchors = (
{
name = _top_case;
position = "{0, 985}";
},
{
name = top_case;
position = "{1, 1289}";
}
);
layerId = "1D628CB9-BBF5-410A-9D74-9E6094BFE839";
paths = (
{
closed = 1;
nodes = (
"135 968 OFFCURVE",
"233 1047 OFFCURVE",
"233 1170 CURVE SMOOTH",
"233 1291 OFFCURVE",
"137 1373 OFFCURVE",
"1 1373 CURVE SMOOTH",
"-135 1373 OFFCURVE",
"-233 1296 OFFCURVE",
"-233 1170 CURVE SMOOTH",
"-233 1050 OFFCURVE",
"-139 968 OFFCURVE",
"1 968 CURVE SMOOTH"
);
},
{
closed = 1;
nodes = (
"-84 1052 OFFCURVE",
"-136 1097 OFFCURVE",
"-136 1170 CURVE SMOOTH",
"-136 1242 OFFCURVE",
"-83 1289 OFFCURVE",
"1 1289 CURVE SMOOTH",
"88 1289 OFFCURVE",
"137 1243 OFFCURVE",
"137 1170 CURVE SMOOTH",
"137 1101 OFFCURVE",
"86 1052 OFFCURVE",
"1 1052 CURVE SMOOTH"
);
}
);
width = 0;
}
);
},
{
glyphname = tildecomb.case;
layers = (
{
anchors = (
{
name = _top_case;
position = "{0, 985}";
},
{
name = top_case;
position = "{0, 1284}";
}
);
layerId = "1D628CB9-BBF5-410A-9D74-9E6094BFE839";
paths = (
{
closed = 1;
nodes = (
"214 1110 OFFCURVE",
"265 1156 OFFCURVE",
"319 1271 CURVE",
"239 1315 LINE",
"194 1251 OFFCURVE",
"169 1226 OFFCURVE",
"128 1226 CURVE SMOOTH",
"45 1226 OFFCURVE",
"-29 1317 OFFCURVE",
"-132 1317 CURVE SMOOTH",
"-200 1317 OFFCURVE",
"-248 1278 OFFCURVE",
"-318 1158 CURVE",
"-237 1112 LINE",
"-192 1176 OFFCURVE",
"-163 1201 OFFCURVE",
"-121 1201 CURVE SMOOTH",
"-44 1201 OFFCURVE",
"43 1110 OFFCURVE",
"139 1110 CURVE SMOOTH"
);
}
);
width = 0;
}
);
},
{
glyphname = acute;
layers = (
{
layerId = "1D628CB9-BBF5-410A-9D74-9E6094BFE839";
paths = (
{
closed = 1;
nodes = (
"166 973 OFFCURVE",
"320 1116 OFFCURVE",
"367 1174 CURVE",
"464 1283 LINE",
"358 1363 LINE",
"113 1022 LINE",
"166 973 LINE"
);
}
);
width = 410;
}
);
unicode = 00B4;
},
{
glyphname = breve;
layers = (
{
layerId = "1D628CB9-BBF5-410A-9D74-9E6094BFE839";
paths = (
{
closed = 1;
nodes = (
"543 1031 OFFCURVE",
"618 1075 OFFCURVE",
"703 1180 CURVE",
"626 1250 LINE",
"567 1181 OFFCURVE",
"514 1141 OFFCURVE",
"431 1141 CURVE SMOOTH",
"348 1141 OFFCURVE",
"295 1181 OFFCURVE",
"236 1250 CURVE",
"159 1180 LINE",
"244 1075 OFFCURVE",
"319 1031 OFFCURVE",
"431 1031 CURVE SMOOTH"
);
}
);
width = 825;
}
);
unicode = 02D8;
},
{
glyphname = caron;
layers = (
{
layerId = "1D628CB9-BBF5-410A-9D74-9E6094BFE839";
paths = (
{
closed = 1;
nodes = (
"182 993 OFFCURVE",
"200 1003 OFFCURVE",
"216 1022 CURVE SMOOTH",
"295 1113 OFFCURVE",
"372 1205 OFFCURVE",
"444 1303 CURVE",
"356 1363 LINE",
"164 1106 LINE",
"-27 1363 LINE",
"-115 1303 LINE",
"-43 1205 OFFCURVE",
"34 1113 OFFCURVE",
"113 1022 CURVE SMOOTH",
"129 1003 OFFCURVE",
"146 993 OFFCURVE",
"164 993 CURVE SMOOTH"
);
}
);
width = 410;
}
);
unicode = 02C7;
},
{
glyphname = cedilla;
layers = (
{
layerId = "1D628CB9-BBF5-410A-9D74-9E6094BFE839";
paths = (
{
closed = 1;
nodes = (
"584 -461 OFFCURVE",
"667 -404 OFFCURVE",
"667 -279 CURVE SMOOTH",
"667 -186 OFFCURVE",
"595 -138 OFFCURVE",
"481 -137 CURVE",
"491 -70 LINE",
"387 -70 LINE",
"386 -186 LINE",
"469 -195 OFFCURVE",
"555 -194 OFFCURVE",
"555 -284 CURVE SMOOTH",
"555 -348 OFFCURVE",
"516 -375 OFFCURVE",
"463 -375 CURVE SMOOTH",
"433 -375 OFFCURVE",
"399 -366 OFFCURVE",
"366 -351 CURVE",
"351 -431 LINE",
"395 -451 OFFCURVE",
"440 -461 OFFCURVE",
"483 -461 CURVE SMOOTH"
);
}
);
width = 936;
}
);
unicode = 00B8;
},
{
glyphname = circumflex;
layers = (
{
layerId = "1D628CB9-BBF5-410A-9D74-9E6094BFE839";
paths = (
{
closed = 1;
nodes = (
"435 1260 LINE",
"647 1022 LINE",
"733 1102 LINE",
"650 1195 OFFCURVE",
"587 1267 OFFCURVE",
"487 1363 CURVE",
"382 1363 LINE",
"282 1267 OFFCURVE",
"219 1195 OFFCURVE",
"136 1102 CURVE",
"222 1022 LINE"
);
}
);
width = 869;
}
);
unicode = 02C6;
},
{
glyphname = dieresis;
layers = (
{
layerId = "1D628CB9-BBF5-410A-9D74-9E6094BFE839";
paths = (
{
closed = 1;
nodes = (
"139 1000 LINE",
"139 1126 LINE",
"0 1126 LINE",
"0 1000 LINE"
);
},
{
closed = 1;
nodes = (
"451 1000 LINE",
"451 1126 LINE",
"314 1126 LINE",
"314 1000 LINE"
);
}
);
width = 450;
}
);
unicode = 00A8;
},
{
glyphname = dotaccent;
layers = (
{
layerId = "1D628CB9-BBF5-410A-9D74-9E6094BFE839";
paths = (
{
closed = 1;
nodes = (
"57 163 LINE",
"57 318 LINE",
"-80 318 LINE",
"-80 163 LINE"
);
}
);
width = 442;
}
);
unicode = 02D9;
},
{
glyphname = grave;
layers = (
{
layerId = "1D628CB9-BBF5-410A-9D74-9E6094BFE839";
paths = (
{
closed = 1;
nodes = (
"419 1022 LINE",
"174 1363 LINE",
"68 1283 LINE",
"167 1164 LINE SMOOTH",
"214 1106 OFFCURVE",
"366 973 OFFCURVE",
"366 973 CURVE"
);
}
);
width = 486;
}
);
unicode = 0060;
},
{
glyphname = hungarumlaut;
layers = (
{
layerId = "1D628CB9-BBF5-410A-9D74-9E6094BFE839";
paths = (
{
closed = 1;
nodes = (
"418 973 OFFCURVE",
"571 1116 OFFCURVE",
"618 1174 CURVE",
"716 1283 LINE",
"610 1363 LINE",
"364 1022 LINE",
"418 973 LINE"
);
},
{
closed = 1;
nodes = (
"122 973 OFFCURVE",
"276 1116 OFFCURVE",
"323 1174 CURVE",
"420 1283 LINE",
"314 1363 LINE",
"69 1022 LINE",
"122 973 LINE"
);
}
);
width = 782;
}
);
unicode = 02DD;
},
{
glyphname = macron;
layers = (
{
layerId = "1D628CB9-BBF5-410A-9D74-9E6094BFE839";
paths = (
{
closed = 1;
nodes = (
"544 1078 LINE",
"544 1184 LINE",
"64 1184 LINE",
"64 1078 LINE"
);
}
);
width = 608;
}
);
unicode = 00AF;
},
{
glyphname = ogonek;
layers = (
{
layerId = "1D628CB9-BBF5-410A-9D74-9E6094BFE839";
paths = (
{
closed = 1;
nodes = (
"563 -457 OFFCURVE",
"608 -448 OFFCURVE",
"648 -431 CURVE",
"633 -351 LINE",
"615 -361 OFFCURVE",
"578 -371 OFFCURVE",
"543 -371 CURVE SMOOTH",
"496 -371 OFFCURVE",
"463 -346 OFFCURVE",
"463 -296 CURVE SMOOTH",
"463 -219 OFFCURVE",
"558 -150 OFFCURVE",
"612 -117 CURVE",
"527 -117 LINE",
"424 -174 OFFCURVE",
"361 -250 OFFCURVE",
"361 -320 CURVE SMOOTH",
"361 -415 OFFCURVE",
"435 -457 OFFCURVE",
"522 -457 CURVE SMOOTH"
);
}
);
width = 936;
}
);
unicode = 02DB;
},
{
glyphname = ring;
layers = (
{
layerId = "1D628CB9-BBF5-410A-9D74-9E6094BFE839";
paths = (
{
closed = 1;
nodes = (
"484 905 OFFCURVE",
"582 992 OFFCURVE",
"582 1127 CURVE SMOOTH",
"582 1260 OFFCURVE",
"486 1350 OFFCURVE",
"350 1350 CURVE SMOOTH",
"214 1350 OFFCURVE",
"116 1265 OFFCURVE",
"116 1127 CURVE SMOOTH",
"116 995 OFFCURVE",
"210 905 OFFCURVE",
"350 905 CURVE SMOOTH"
);
},
{
closed = 1;
nodes = (
"265 989 OFFCURVE",
"213 1042 OFFCURVE",
"213 1127 CURVE SMOOTH",
"213 1211 OFFCURVE",
"266 1266 OFFCURVE",
"350 1266 CURVE SMOOTH",
"437 1266 OFFCURVE",
"486 1212 OFFCURVE",
"486 1127 CURVE SMOOTH",
"486 1046 OFFCURVE",
"435 989 OFFCURVE",
"350 989 CURVE SMOOTH"
);
}
);
width = 699;
}
);
unicode = 02DA;
},
{
glyphname = tilde;
layers = (
{
layerId = "1D628CB9-BBF5-410A-9D74-9E6094BFE839";
paths = (
{
closed = 1;
nodes = (
"240 541 OFFCURVE",
"264 568 OFFCURVE",
"299 568 CURVE SMOOTH",
"325 568 OFFCURVE",
"359 553 OFFCURVE",
"410 529 CURVE",
"485 495 OFFCURVE",
"543 475 OFFCURVE",
"590 475 CURVE SMOOTH",
"661 475 OFFCURVE",
"708 520 OFFCURVE",
"759 631 CURVE",
"679 675 LINE",
"642 613 OFFCURVE",
"621 589 OFFCURVE",
"588 589 CURVE SMOOTH",
"562 589 OFFCURVE",
"529 604 OFFCURVE",
"475 625 CURVE",
"391 661 OFFCURVE",
"334 684 OFFCURVE",
"288 684 CURVE SMOOTH",
"223 684 OFFCURVE",
"182 638 OFFCURVE",
"125 518 CURVE",
"122 518 LINE",
"203 472 LINE"
);
}
);
width = 882;
}
);
unicode = 02DC;
},
{
glyphname = brevecomb_acutecomb;
layers = (
{
anchors = (
{
name = _top;
position = "{0, 933}";
},
{
name = _top_case;
position = "{0, 985}";
}
);
layerId = "1D628CB9-BBF5-410A-9D74-9E6094BFE839";
paths = (
{
closed = 1;
nodes = (
"112 1081 OFFCURVE",
"187 1121 OFFCURVE",
"272 1215 CURVE",
"195 1285 LINE",
"139 1224 OFFCURVE",
"83 1191 OFFCURVE",
"0 1191 CURVE SMOOTH",
"-83 1191 OFFCURVE",
"-139 1224 OFFCURVE",
"-195 1285 CURVE",
"-272 1215 LINE",
"-187 1121 OFFCURVE",
"-112 1081 OFFCURVE",
"0 1081 CURVE SMOOTH"
);
},
{
closed = 1;
nodes = (
"-138 1341 OFFCURVE",
"-19 1362 OFFCURVE",
"64 1381 CURVE SMOOTH",
"206 1414 LINE",
"165 1541 LINE",
"-231 1402 LINE",
"-216 1331 LINE"
);
}
);
width = 0;
}
);
},
{
glyphname = brevecomb_gravecomb;
layers = (
{
anchors = (
{
name = _top;
position = "{0, 933}";
},
{
name = _top_case;
position = "{0, 985}";
}
);
layerId = "1D628CB9-BBF5-410A-9D74-9E6094BFE839";
paths = (
{
closed = 1;
nodes = (
"112 1081 OFFCURVE",
"187 1121 OFFCURVE",
"272 1215 CURVE",
"195 1285 LINE",
"139 1224 OFFCURVE",
"83 1191 OFFCURVE",
"0 1191 CURVE SMOOTH",
"-83 1191 OFFCURVE",
"-139 1224 OFFCURVE",
"-195 1285 CURVE",
"-272 1215 LINE",
"-187 1121 OFFCURVE",
"-112 1081 OFFCURVE",
"0 1081 CURVE SMOOTH"
);
},
{
closed = 1;
nodes = (
"206 1402 LINE",
"-190 1541 LINE",
"-231 1414 LINE",
"-89 1381 LINE SMOOTH",
"-6 1362 OFFCURVE",
"113 1341 OFFCURVE",
"191 1331 CURVE"
);
}
);
width = 0;
},
{
anchors = (
{
name = _top;
position = "{0, 985}";
},
{
name = top_case;
position = "{0, 1284}";
}
);
associatedMasterId = "1D628CB9-BBF5-410A-9D74-9E6094BFE839";
layerId = "390208E4-DB5A-43D5-8FE2-02331D1010C9";
name = "Regular Jul 25 16, 11:21";
paths = (
{
closed = 1;
nodes = (
"112 1131 OFFCURVE",
"187 1175 OFFCURVE",
"272 1280 CURVE",
"195 1350 LINE",
"136 1281 OFFCURVE",
"83 1241 OFFCURVE",
"0 1241 CURVE SMOOTH",
"-83 1241 OFFCURVE",
"-136 1281 OFFCURVE",
"-195 1350 CURVE",
"-272 1280 LINE",
"-187 1175 OFFCURVE",
"-112 1131 OFFCURVE",
"0 1131 CURVE SMOOTH"
);
},
{
closed = 1;
nodes = (
"176 1447 LINE",
"-69 1788 LINE",
"-175 1708 LINE",
"-76 1589 LINE SMOOTH",
"-28 1532 OFFCURVE",
"123 1398 OFFCURVE",
"123 1398 CURVE"
);
}
);
width = 600;
}
);
},
{
glyphname = brevecomb_hookabovecomb;
layers = (
{
anchors = (
{
name = _top;
position = "{0, 933}";
},
{
name = _top_case;
position = "{0, 985}";
}
);
layerId = "1D628CB9-BBF5-410A-9D74-9E6094BFE839";
paths = (
{
closed = 1;
nodes = (
"51 1265 LINE",
"41 1332 LINE",
"144 1342 OFFCURVE",
"227 1381 OFFCURVE",
"227 1493 CURVE SMOOTH",
"227 1589 OFFCURVE",
"161 1646 OFFCURVE",
"50 1646 CURVE SMOOTH",
"5 1646 OFFCURVE",
"-45 1635 OFFCURVE",
"-89 1616 CURVE",
"-74 1536 LINE",
"-41 1548 OFFCURVE",
"-6 1556 OFFCURVE",
"24 1556 CURVE SMOOTH",
"75 1556 OFFCURVE",
"112 1534 OFFCURVE",
"112 1484 CURVE SMOOTH",
"112 1404 OFFCURVE",
"31 1387 OFFCURVE",
"-54 1381 CURVE",
"-53 1265 LINE"
);
},
{
closed = 1;
nodes = (
"112 1081 OFFCURVE",
"187 1121 OFFCURVE",
"272 1215 CURVE",
"195 1285 LINE",
"139 1224 OFFCURVE",
"83 1191 OFFCURVE",
"0 1191 CURVE SMOOTH",
"-83 1191 OFFCURVE",
"-139 1224 OFFCURVE",
"-195 1285 CURVE",
"-272 1215 LINE",
"-187 1121 OFFCURVE",
"-112 1081 OFFCURVE",
"0 1081 CURVE SMOOTH"
);
}
);
width = 0;
},
{
anchors = (
{
name = _top;
position = "{0, 985}";
},
{
name = top;
position = "{0, 1480}";
},
{
name = top_case;
position = "{0, 1284}";
}
);
associatedMasterId = "1D628CB9-BBF5-410A-9D74-9E6094BFE839";
layerId = "69369286-369F-44E3-BAB2-2285ECD6A32E";
name = "Regular Jul 25 16, 11:22";
paths = (
{
closed = 1;
nodes = (
"51 1359 LINE",
"41 1426 LINE",
"144 1436 OFFCURVE",
"227 1475 OFFCURVE",
"227 1587 CURVE SMOOTH",
"227 1683 OFFCURVE",
"161 1740 OFFCURVE",
"50 1740 CURVE SMOOTH",
"5 1740 OFFCURVE",
"-45 1729 OFFCURVE",
"-89 1710 CURVE",
"-74 1630 LINE",
"-41 1642 OFFCURVE",
"-6 1650 OFFCURVE",
"24 1650 CURVE SMOOTH",
"75 1650 OFFCURVE",
"112 1628 OFFCURVE",
"112 1578 CURVE SMOOTH",
"112 1498 OFFCURVE",
"31 1481 OFFCURVE",
"-54 1475 CURVE",
"-53 1359 LINE"
);
},
{
closed = 1;
nodes = (
"112 1131 OFFCURVE",
"187 1175 OFFCURVE",
"272 1280 CURVE",
"195 1350 LINE",
"136 1281 OFFCURVE",
"83 1241 OFFCURVE",
"0 1241 CURVE SMOOTH",
"-83 1241 OFFCURVE",
"-136 1281 OFFCURVE",
"-195 1350 CURVE",
"-272 1280 LINE",
"-187 1175 OFFCURVE",
"-112 1131 OFFCURVE",
"0 1131 CURVE SMOOTH"
);
}
);
width = 600;
}
);
},
{
glyphname = brevecomb_tildecomb;
layers = (
{
anchors = (
{
name = _top;
position = "{0, 933}";
},
{
name = _top_case;
position = "{0, 985}";
}
);
layerId = "1D628CB9-BBF5-410A-9D74-9E6094BFE839";
paths = (
{
closed = 1;
nodes = (
"112 1081 OFFCURVE",
"187 1121 OFFCURVE",
"272 1215 CURVE",
"195 1285 LINE",
"139 1224 OFFCURVE",
"83 1191 OFFCURVE",
"0 1191 CURVE SMOOTH",
"-83 1191 OFFCURVE",
"-139 1224 OFFCURVE",
"-195 1285 CURVE",
"-272 1215 LINE",
"-187 1121 OFFCURVE",
"-112 1081 OFFCURVE",
"0 1081 CURVE SMOOTH"
);
},
{
closed = 1;
nodes = (
"214 1320 OFFCURVE",
"265 1366 OFFCURVE",
"319 1481 CURVE",
"239 1525 LINE",
"194 1461 OFFCURVE",
"169 1436 OFFCURVE",
"128 1436 CURVE SMOOTH",
"45 1436 OFFCURVE",
"-29 1527 OFFCURVE",
"-132 1527 CURVE SMOOTH",
"-200 1527 OFFCURVE",
"-248 1488 OFFCURVE",
"-318 1368 CURVE",
"-237 1322 LINE",
"-192 1386 OFFCURVE",
"-163 1411 OFFCURVE",
"-121 1411 CURVE SMOOTH",
"-44 1411 OFFCURVE",
"43 1320 OFFCURVE",
"139 1320 CURVE SMOOTH"
);
}
);
width = 0;
},
{
anchors = (
{
name = _top;
position = "{0, 985}";
},
{
name = top_case;
position = "{0, 1284}";
}
);
associatedMasterId = "1D628CB9-BBF5-410A-9D74-9E6094BFE839";
layerId = "5CF795D9-6790-41DC-B31B-FDA7C1D53F3A";
name = "Regular Jul 25 16, 11:23";
paths = (
{
closed = 1;
nodes = (
"112 1131 OFFCURVE",
"187 1175 OFFCURVE",
"272 1280 CURVE",
"195 1350 LINE",
"136 1281 OFFCURVE",
"83 1241 OFFCURVE",
"0 1241 CURVE SMOOTH",
"-83 1241 OFFCURVE",
"-136 1281 OFFCURVE",
"-195 1350 CURVE",
"-272 1280 LINE",
"-187 1175 OFFCURVE",
"-112 1131 OFFCURVE",
"0 1131 CURVE SMOOTH"
);
},
{
closed = 1;
nodes = (
"-200 1451 OFFCURVE",
"-176 1478 OFFCURVE",
"-141 1478 CURVE SMOOTH",
"-115 1478 OFFCURVE",
"-81 1463 OFFCURVE",
"-30 1439 CURVE",
"45 1405 OFFCURVE",
"103 1385 OFFCURVE",
"150 1385 CURVE SMOOTH",
"221 1385 OFFCURVE",
"268 1430 OFFCURVE",
"319 1541 CURVE",
"239 1585 LINE",
"202 1523 OFFCURVE",
"181 1499 OFFCURVE",
"148 1499 CURVE SMOOTH",
"122 1499 OFFCURVE",
"89 1514 OFFCURVE",
"35 1535 CURVE",
"-49 1571 OFFCURVE",
"-106 1594 OFFCURVE",
"-152 1594 CURVE SMOOTH",
"-217 1594 OFFCURVE",
"-258 1548 OFFCURVE",
"-315 1428 CURVE",
"-318 1428 LINE",
"-237 1382 LINE"
);
}
);
width = 600;
}
);
},
{
glyphname = circumflexcomb_acutecomb;
layers = (
{
anchors = (
{
name = _top;
position = "{0, 933}";
},
{
name = _top_case;
position = "{1, 985}";
}
);
layerId = "1D628CB9-BBF5-410A-9D74-9E6094BFE839";
paths = (
{
closed = 1;
nodes = (
"1 1247 LINE",
"213 1042 LINE",
"299 1122 LINE",
"216 1201 OFFCURVE",
"153 1255 OFFCURVE",
"53 1333 CURVE",
"-52 1333 LINE",
"-152 1255 OFFCURVE",
"-215 1199 OFFCURVE",
"-298 1122 CURVE",
"-212 1042 LINE"
);
},
{
closed = 1;
nodes = (
"317 1321 OFFCURVE",
"332 1337 OFFCURVE",
"359 1373 CURVE SMOOTH",
"463 1512 LINE",
"302 1512 LINE",
"185 1297 LINE",
"290 1297 LINE"
);
}
);
width = 0;
},
{
anchors = (
{
name = _top;
position = "{1, 985}";
}
);
associatedMasterId = "1D628CB9-BBF5-410A-9D74-9E6094BFE839";
layerId = "C9EE15CE-1574-4092-96DD-EAB91CA9DAB9";
name = "Regular Jul 25 16, 11:24";
paths = (
{
closed = 1;
nodes = (
"1 1360 LINE",
"213 1122 LINE",
"299 1202 LINE",
"216 1295 OFFCURVE",
"153 1367 OFFCURVE",
"53 1463 CURVE",
"-52 1463 LINE",
"-152 1367 OFFCURVE",
"-215 1295 OFFCURVE",
"-298 1202 CURVE",
"-212 1122 LINE"
);
},
{
closed = 1;
nodes = (
"258 1368 OFFCURVE",
"412 1511 OFFCURVE",
"459 1569 CURVE",
"556 1678 LINE",
"450 1758 LINE",
"205 1417 LINE",
"258 1368 LINE"
);
}
);
width = 600;
}
);
},
